<svg width="210" height="32" viewBox="0 0 210 32" fill="none" xmlns="http://www.w3.org/2000/svg">
    <g>
        <path d="M190.862 17.2313L177.938 5.58502H184.186L194.105 14.5252L204.726 5.58502H209.192L196.241 16.4656L209.192 28.1118H202.94L193.029 19.193L182.406 28.1118H177.938L190.862 17.2313ZM155.342 28.1118C154.314 28.1118 153.32 27.9742 152.37 27.7047C151.414 27.4333 150.528 27.0592 149.703 26.5649C148.867 26.0803 148.123 25.4968 147.446 24.8106C146.768 24.1283 146.186 23.3684 145.7 22.5368C145.221 21.6975 144.849 20.8077 144.568 19.8443C144.304 18.8867 144.17 17.8865 144.17 16.8474C144.17 15.8104 144.304 14.8101 144.568 13.8487C144.849 12.8833 145.221 11.9974 145.7 11.1581C146.186 10.3265 146.768 9.56661 147.446 8.88427C148.123 8.2 148.867 7.61458 149.703 7.13385C150.528 6.63566 151.414 6.26154 152.37 5.99016C153.32 5.72459 154.314 5.58502 155.342 5.58502H175.432V7.61458H158.236C157.047 7.61458 155.935 7.82006 154.89 8.24458C153.845 8.66716 152.926 9.24482 152.112 9.98725C151.302 10.7336 150.635 11.6039 150.115 12.6042C149.594 13.6005 149.268 14.6783 149.131 15.8336H175.432V17.8593H149.131C149.268 19.0146 149.594 20.0982 150.115 21.1082C150.635 22.1162 151.302 22.9826 152.112 23.7134C152.926 24.4501 153.845 25.0277 154.89 25.4522C155.935 25.8748 157.047 26.0803 158.236 26.0803H175.432V28.1118H155.342ZM140.313 28.1118H137.855V9.7275L126.914 28.1118H122.006L111.061 9.7275V28.1118H108.607V5.58502H113.521L124.46 23.9926L135.405 5.58502H140.313V28.1118ZM85.5416 28.1118C84.5123 28.1118 83.5256 27.9742 82.5739 27.7047C81.6201 27.4333 80.7207 27.0592 79.9007 26.5649C79.0691 26.0803 78.3267 25.4968 77.6463 24.8106C76.9698 24.1283 76.3902 23.3684 75.9036 22.5368C75.421 21.6975 75.0488 20.8077 74.7774 19.8443C74.5041 18.8867 74.3761 17.8865 74.3761 16.8474C74.3761 15.8104 74.5041 14.8101 74.7774 13.8487C75.0488 12.8833 75.421 11.9974 75.9036 11.1581C76.3902 10.3265 76.9698 9.56661 77.6463 8.88427C78.3267 8.2 79.0691 7.61458 79.9007 7.13385C80.7207 6.63566 81.6201 6.26154 82.5739 5.99016C83.5256 5.72459 84.5123 5.58502 85.5416 5.58502H105.634V7.61458H88.4416C87.2533 7.61458 86.1367 7.82006 85.0939 8.24458C84.049 8.66716 83.1283 9.24482 82.3102 9.98725C81.5019 10.7336 80.8351 11.6039 80.3136 12.6042C79.7961 13.6005 79.4685 14.6783 79.3308 15.8336H105.634V17.8593H79.3308C79.4685 19.0146 79.7961 20.0982 80.3136 21.1082C80.8351 22.1162 81.5019 22.9826 82.3102 23.7134C83.1283 24.4501 84.049 25.0277 85.0939 25.4522C86.1367 25.8748 87.2533 26.0803 88.4416 26.0803H105.634V28.1118H85.5416ZM62.1251 15.8336C62.6873 15.8162 63.2184 15.6941 63.7146 15.4653C64.2206 15.225 64.647 14.9187 65.0095 14.5368C65.3798 14.1569 65.6705 13.7091 65.8721 13.1954C66.0776 12.6895 66.1881 12.1428 66.1881 11.5593C66.1881 10.9526 66.0737 10.4137 65.8469 9.93297C65.6298 9.4503 65.3255 9.03547 64.9436 8.69624C64.5714 8.35313 64.1198 8.08175 63.608 7.89566C63.0924 7.70569 62.5361 7.61458 61.9371 7.61458H43.8532V15.8336H62.1251ZM66.1881 21.8079C66.1881 21.209 66.0737 20.6604 65.8469 20.1874C65.6298 19.7008 65.3255 19.2918 64.9436 18.9448C64.5714 18.6017 64.1198 18.3323 63.608 18.1462C63.0924 17.9562 62.5361 17.8593 61.9371 17.8593H43.8532V28.1118H39.389V5.58502H65.0677C65.8431 5.58502 66.568 5.74591 67.2465 6.07739C67.923 6.40886 68.5181 6.85083 69.0202 7.39941C69.53 7.94218 69.9274 8.58381 70.2182 9.2991C70.505 10.0202 70.6524 10.7704 70.6524 11.5477C70.6524 12.5751 70.4159 13.5559 69.9487 14.498C69.4777 15.4324 68.8535 16.2 68.0607 16.8029C68.8535 17.3534 69.4777 18.0803 69.9487 18.9604C70.4159 19.852 70.6524 20.798 70.6524 21.8079V28.1118H66.1881V21.8079Z" fill="black" class="Black"/>
        <path d="M25.8091 3.39215C23.0975 1.26677 19.6832 0 15.9748 0C7.15294 0 4.57764e-05 7.16259 4.57764e-05 16C4.57764e-05 24.8355 7.15294 32 15.9748 32C20.5472 32 24.6723 30.0737 27.5847 26.987H15.0519C13.9799 26.987 12.9409 26.8397 11.9426 26.5547C10.9424 26.2756 10.0061 25.8802 9.14735 25.3645C8.27504 24.8547 7.49772 24.246 6.78437 23.5308C6.07296 22.8135 5.46622 22.0188 4.95835 21.1465C4.45241 20.2683 4.06472 19.334 3.77395 18.3279C3.49482 17.3219 3.36106 16.2771 3.36106 15.1876C3.36106 14.1002 3.49482 13.0495 3.77395 12.0454C4.06472 11.0374 4.45241 10.107 4.95835 9.23078C5.46622 8.35847 6.07296 7.56177 6.78437 6.84454C7.49772 6.12731 8.27504 5.51476 9.14735 5.00882C10.0061 4.49319 10.9424 4.09387 11.9426 3.81473C12.9409 3.53754 13.9799 3.39215 15.0519 3.39215H25.8091Z" fill="#2BB6B7"/>
        <path d="M28.0393 5.51476H18.0875C16.8411 5.51476 15.678 5.72993 14.5828 6.17771C13.4914 6.6158 12.5203 7.22641 11.6693 8.00373C10.8222 8.78299 10.1205 9.69407 9.57769 10.7428C9.03492 11.7895 8.69181 12.9158 8.55224 14.1234H31.839C31.4571 10.8499 30.0884 7.87831 28.0393 5.51476Z" fill="#2BB6B7"/>
        <path d="M31.9458 16.248H8.55224C8.69181 17.4556 9.03492 18.5896 9.57769 19.6461C10.1205 20.6987 10.8222 21.6136 11.6693 22.3793C12.5203 23.1508 13.4914 23.7556 14.5828 24.1995C15.678 24.6395 16.8411 24.8547 18.0875 24.8547H29.2795C30.9225 22.3831 31.8976 19.4279 31.9458 16.248Z" fill="#2BB6B7"/>
        <path d="M15.2984 28.4703C14.2226 28.4703 13.1816 28.3268 12.1872 28.0419C11.1869 27.7647 10.2507 27.3673 9.39194 26.8517C8.52351 26.3399 7.73844 25.7293 7.02896 25.016C6.31755 24.2987 5.70887 23.504 5.201 22.6317C4.697 21.7516 4.3035 20.8211 4.01467 19.8131C3.74134 18.8051 3.60371 17.7603 3.60371 16.6728C3.60371 15.5873 3.74134 14.5367 4.01467 13.5267C4.3035 12.5246 4.697 11.5902 5.201 10.7121C5.70887 9.84367 6.31755 9.04697 7.02896 8.32974C7.73844 7.61445 8.52351 6.99996 9.39194 6.49402C10.2507 5.97645 11.1869 5.58295 12.1872 5.29993C13.1816 5.01886 14.2226 4.87347 15.2984 4.87347H36.3403V6.99996H18.3301C17.0837 6.99996 15.9226 7.219 14.8274 7.65903C13.7321 8.101 12.7648 8.70967 11.9139 9.48893C11.0706 10.2701 10.3612 11.1793 9.82034 12.226C9.28145 13.2728 8.93834 14.401 8.79489 15.6106H36.3403V17.7351H8.79489C8.93834 18.9408 9.28145 20.0768 9.82034 21.1313C10.3612 22.1839 11.0706 23.0988 11.9139 23.8645C12.7648 24.638 13.7321 25.2408 14.8274 25.6808C15.9226 26.1247 17.0837 26.3399 18.3301 26.3399H36.3403V28.4703H15.2984Z" fill="black" class="Black"/>
    </g>
</svg>