<svg width="16" height="16" viewBox="0 0 16 16" fill="none" xmlns="http://www.w3.org/2000/svg">
<g opacity="0.88">
<path d="M11 5C11 4.72386 10.7761 4.5 10.5 4.5C10.2239 4.5 10 4.72386 10 5V6H9C8.72386 6 8.5 6.22386 8.5 6.5C8.5 6.77614 8.72386 7 9 7H10V8C10 8.27614 10.2239 8.5 10.5 8.5C10.7761 8.5 11 8.27614 11 8V7H12C12.2761 7 12.5 6.77614 12.5 6.5C12.5 6.22386 12.2761 6 12 6H11V5Z" fill="#377AB5" class="Blue"/>
<path d="M8.5 9.5C8.5 9.22386 8.72386 9 9 9H12C12.2761 9 12.5 9.22386 12.5 9.5C12.5 9.77614 12.2761 10 12 10H9C8.72386 10 8.5 9.77614 8.5 9.5Z" fill="#377AB5" class="Blue"/>
<path fill-rule="evenodd" clip-rule="evenodd" d="M11 0.5C11 0.223858 10.7761 0 10.5 0C10.2239 0 10 0.223858 10 0.5V2.02242C7.19675 2.27504 5 4.63098 5 7.5C5 10.369 7.19675 12.725 10 12.9776V14.5C10 14.7761 10.2239 15 10.5 15C10.7761 15 11 14.7761 11 14.5V12.9776C13.8033 12.725 16 10.369 16 7.5C16 4.63098 13.8033 2.27504 11 2.02242V0.5ZM10.5 12C12.9853 12 15 9.98528 15 7.5C15 5.01472 12.9853 3 10.5 3C8.01472 3 6 5.01472 6 7.5C6 9.98528 8.01472 12 10.5 12Z" fill="#377AB5" class="Blue"/>
<path d="M2.5 5L0.625 8H2V14.5C2 14.7761 2.22386 15 2.5 15C2.77614 15 3 14.7761 3 14.5V8H4.375L2.5 5Z" fill="#377AB5" class="Blue"/>
<path d="M3 0.5C3 0.223858 2.77614 0 2.5 0C2.22386 0 2 0.223858 2 0.5V3.5C2 3.77614 2.22386 4 2.5 4C2.77614 4 3 3.77614 3 3.5V0.5Z" fill="#377AB5" class="Blue"/>
</g>
</svg>
