<svg width="16" height="16" viewBox="0 0 16 16" fill="none" xmlns="http://www.w3.org/2000/svg">
<g opacity="0.88">
<path d="M10.5 4.5C10.7761 4.5 11 4.72386 11 5V6H12C12.2761 6 12.5 6.22386 12.5 6.5C12.5 6.77614 12.2761 7 12 7H11V8C11 8.27614 10.7761 8.5 10.5 8.5C10.2239 8.5 10 8.27614 10 8V7H9C8.72386 7 8.5 6.77614 8.5 6.5C8.5 6.22386 8.72386 6 9 6H10V5C10 4.72386 10.2239 4.5 10.5 4.5Z" fill="#377AB5" class="Blue"/>
<path d="M9 9C8.72386 9 8.5 9.22386 8.5 9.5C8.5 9.77614 8.72386 10 9 10H12C12.2761 10 12.5 9.77614 12.5 9.5C12.5 9.22386 12.2761 9 12 9H9Z" fill="#377AB5" class="Blue"/>
<path fill-rule="evenodd" clip-rule="evenodd" d="M10.5 0C10.7761 0 11 0.223858 11 0.5V2.02242C13.8033 2.27504 16 4.63098 16 7.5C16 10.369 13.8033 12.725 11 12.9776V14.5C11 14.7761 10.7761 15 10.5 15C10.2239 15 10 14.7761 10 14.5V12.9776C7.19675 12.725 5 10.369 5 7.5C5 4.63098 7.19675 2.27504 10 2.02242V0.5C10 0.223858 10.2239 0 10.5 0ZM15 7.5C15 9.98528 12.9853 12 10.5 12C8.01472 12 6 9.98528 6 7.5C6 5.01472 8.01472 3 10.5 3C12.9853 3 15 5.01472 15 7.5Z" fill="#377AB5" class="Blue"/>
<path d="M2.5 4.5C2.77614 4.5 3 4.72386 3 5V6H4C4.27614 6 4.5 6.22386 4.5 6.5C4.5 6.77614 4.27614 7 4 7H3V8C3 8.27614 2.77614 8.5 2.5 8.5C2.22386 8.5 2 8.27614 2 8V7H1C0.723858 7 0.5 6.77614 0.5 6.5C0.5 6.22386 0.723858 6 1 6H2V5C2 4.72386 2.22386 4.5 2.5 4.5Z" fill="#377AB5" class="Blue"/>
<path d="M1 9C0.723858 9 0.5 9.22386 0.5 9.5C0.5 9.77614 0.723858 10 1 10H4C4.27614 10 4.5 9.77614 4.5 9.5C4.5 9.22386 4.27614 9 4 9H1Z" fill="#377AB5" class="Blue"/>
<path d="M3 0.5C3 0.223858 2.77614 0 2.5 0C2.22386 0 2 0.223858 2 0.5V3C2 3.27614 2.22386 3.5 2.5 3.5C2.77614 3.5 3 3.27614 3 3V0.5Z" fill="#377AB5" class="Blue"/>
<path d="M3 12C3 11.7239 2.77614 11.5 2.5 11.5C2.22386 11.5 2 11.7239 2 12V14.5C2 14.7761 2.22386 15 2.5 15C2.77614 15 3 14.7761 3 14.5V12Z" fill="#377AB5" class="Blue"/>
</g>
</svg>
