<svg width="16" height="16" viewBox="0 0 16 16" fill="none" xmlns="http://www.w3.org/2000/svg">
  <path opacity="0.72" fill-rule="evenodd" clip-rule="evenodd" d="M0.5 2C0.776142 2 1 2.22386 1 2.5V13H15.5C15.7761 13 16 13.2239 16 13.5C16 13.7761 15.7761 14 15.5 14H1C0.447715 14 0 13.5523 0 13V2.5C0 2.22386 0.223858 2 0.5 2Z" fill="#404040" class="Black" />
  <path opacity="0.88" fill-rule="evenodd" clip-rule="evenodd" d="M11.5 4C11.7761 4 12 3.77614 12 3.5C12 3.22386 11.7761 3 11.5 3C11.2239 3 11 3.22386 11 3.5C11 3.77614 11.2239 4 11.5 4ZM11.5 5C12.3284 5 13 4.32843 13 3.5C13 2.67157 12.3284 2 11.5 2C10.6716 2 10 2.67157 10 3.5C10 4.32843 10.6716 5 11.5 5Z" fill="#D04D2F" class="Red" />
  <g opacity="0.72">
    <path d="M11 13H12V12.5C12 12.2239 11.7761 12 11.5 12C11.2239 12 11 12.2239 11 12.5V13Z" fill="#404040" class="Black" />
    <path d="M12 6.5C12 6.22386 11.7761 6 11.5 6C11.2239 6 11 6.22386 11 6.5V7.5C11 7.77614 11.2239 8 11.5 8C11.7761 8 12 7.77614 12 7.5V6.5Z" fill="#404040" class="Black" />
    <path d="M12 9.5C12 9.22386 11.7761 9 11.5 9C11.2239 9 11 9.22386 11 9.5V10.5C11 10.7761 11.2239 11 11.5 11C11.7761 11 12 10.7761 12 10.5V9.5Z" fill="#404040" class="Black" />
  </g>
  <g opacity="0.88">
    <path d="M-4.51109e-10 7.98835C-0.000182652 7.99612 -0.000183558 8.0039 -4.51109e-10 8.0117V7.98835Z" fill="#4DAE89" class="green" />
    <path d="M2.90548 13C2.51816 12.631 2.1606 12.1877 1.83863 11.7217C1.53205 11.278 1.25044 10.8029 1 10.3325V7.91098C1.33 8.79848 1.92346 10.0853 2.66136 11.1533C3.04197 11.7042 3.44789 12.1775 3.86002 12.5086C4.27432 12.8415 4.65595 13 5 13C5.58624 13 6.08224 12.5958 6.55882 11.7022C7.03042 10.8179 7.39149 9.62163 7.77109 8.35632L7.78135 8.32211C8.14868 7.09759 8.5353 5.8088 9.05882 4.8272C9.11149 4.72845 9.16649 4.63108 9.22401 4.5358C9.37785 4.87329 9.60454 5.17058 9.884 5.40756C9.44009 6.27977 9.09302 7.42997 8.72891 8.64367L8.71865 8.67787C8.35132 9.90239 7.9647 11.1912 7.44117 12.1728C7.2842 12.4671 7.1065 12.7492 6.90322 13H2.90548Z" fill="#4DAE89" class="green" />
    <path d="M13.5498 4.93159C13.752 4.64263 13.8946 4.30893 13.9599 3.9483C14.2243 4.17472 14.4599 4.42746 14.6673 4.69004C15.3785 5.59022 15.8051 6.65869 15.9851 7.37872C16.052 7.64662 15.8892 7.91809 15.6213 7.98506C15.3534 8.05204 15.0819 7.88916 15.0149 7.62126C14.8616 7.00796 14.4882 6.07643 13.8827 5.30994C13.7773 5.17663 13.6664 5.04993 13.5498 4.93159Z" fill="#4DAE89" class="green" />
  </g>
</svg>