<svg width="16" height="16" viewBox="0 0 16 16" fill="none" xmlns="http://www.w3.org/2000/svg">
<path opacity="0.88" fill-rule="evenodd" clip-rule="evenodd" d="M5.60745 1.21743C4.94944 0.71424 4 1.18343 4 2.01178V7H1.5C1.22386 7 1 7.22386 1 7.5C1 7.77614 1.22386 8 1.5 8H4V12.9882C4 13.8166 4.94944 14.2857 5.60745 13.7826L12.7843 8.29435C12.8704 8.22856 12.9423 8.1523 13 8.06899V12.5C13 12.7761 13.2239 13 13.5 13C13.7761 13 14 12.7761 14 12.5V8H15.5C15.7761 8 16 7.77614 16 7.5C16 7.22386 15.7761 7 15.5 7H14V2.5C14 2.22386 13.7761 2 13.5 2C13.2239 2 13 2.22386 13 2.5V6.93099C12.9423 6.84769 12.8704 6.77142 12.7843 6.70563L5.60745 1.21743ZM11.5231 7L5 2.01178V7H11.5231ZM5 8V12.9882L11.523 8H5Z" fill="#377AB5" class="Blue"/>
</svg>
