<svg width="16" height="16" viewBox="0 0 16 16" fill="none" xmlns="http://www.w3.org/2000/svg">
<path opacity="0.88" fill-rule="evenodd" clip-rule="evenodd" d="M3.14645 2.14645C3.24021 2.05268 3.36739 2 3.5 2H13.5C13.6326 2 13.7598 2.05268 13.8536 2.14645L15.8536 4.14645C16.0488 4.34171 16.0488 4.65829 15.8536 4.85355L13.8536 6.85355C13.7598 6.94732 13.6326 7 13.5 7H3.5C3.36739 7 3.24021 6.94732 3.14645 6.85355L1.14645 4.85355C0.951184 4.65829 0.951184 4.34171 1.14645 4.14645L3.14645 2.14645ZM3.70711 3L3 3.70711V4H4.5C4.77614 4 5 4.22386 5 4.5C5 4.77614 4.77614 5 4.5 5H3V5.29289L3.70711 6H6V3H3.70711ZM7 3V6H13.2929L14 5.29289V3.70711L13.2929 3H7ZM3.14645 8.14645C3.24021 8.05268 3.36739 8 3.5 8H13.5C13.6326 8 13.7598 8.05268 13.8536 8.14645L15.8536 10.1464C16.0488 10.3417 16.0488 10.6583 15.8536 10.8536L13.8536 12.8536C13.7598 12.9473 13.6326 13 13.5 13H3.5C3.36739 13 3.24021 12.9473 3.14645 12.8536L1.14645 10.8536C0.951184 10.6583 0.951184 10.3417 1.14645 10.1464L3.14645 8.14645ZM3.70711 9L3 9.70711V10H4.5C4.77614 10 5 10.2239 5 10.5C5 10.7761 4.77614 11 4.5 11H3V11.2929L3.70711 12H6V9H3.70711ZM7 9V12H13.2929L14 11.2929V9.70711L13.2929 9H7Z" fill="#377AB5" class="Blue"/>
</svg>
