<svg width="16" height="16" viewBox="0 0 16 16" fill="none" xmlns="http://www.w3.org/2000/svg">
<path opacity="0.88" fill-rule="evenodd" clip-rule="evenodd" d="M7.5 0C3.35786 0 0 3.35786 0 7.5C0 11.6421 3.35786 15 7.5 15C8.37659 15 9.21805 14.8496 10 14.5732V15.5C10 15.7761 10.2239 16 10.5 16C10.7761 16 11 15.7761 11 15.5V14.135C13.3789 12.8775 15 10.378 15 7.5C15 3.35786 11.6421 0 7.5 0ZM4 7H1.01894C1.27426 3.64378 4.07838 1 7.5 1C8.33009 1 9.12384 1.1556 9.85367 1.43923L5 6.29289V4C5 3.72386 4.77614 3.5 4.5 3.5C4.22386 3.5 4 3.72386 4 4V7ZM14 7.5C14 5.11695 12.7176 3.03342 10.8052 1.90189L5.20711 7.5L8.10355 10.3964L9.5 9L10.4537 13.2917C12.5588 12.216 14 10.0263 14 7.5ZM10.1721 13.4271L6 12.5L7.39645 11.1036L5 8.70711V11C5 11.2761 4.77614 11.5 4.5 11.5C4.22386 11.5 4 11.2761 4 11V8H1.01894C1.27426 11.3562 4.07839 14 7.5 14C8.45242 14 9.35699 13.7952 10.1721 13.4271Z" fill="#377AB5" class="Blue"/>
</svg>
