<svg width="16" height="16" viewBox="0 0 16 16" fill="none" xmlns="http://www.w3.org/2000/svg">
<path opacity="0.72" fill-rule="evenodd" clip-rule="evenodd" d="M13.5 14C13.776 14 14 14.224 14 14.5C14 14.776 13.776 15 13.5 15C13.224 15 13 14.776 13 14.5C13 14.224 13.224 14 13.5 14ZM15.5 14C15.776 14 16 14.224 16 14.5C16 14.776 15.776 15 15.5 15C15.224 15 15 14.776 15 14.5C15 14.224 15.224 14 15.5 14ZM11.5 14C11.776 14 12 14.224 12 14.5C12 14.776 11.776 15 11.5 15C11.224 15 11 14.776 11 14.5C11 14.224 11.224 14 11.5 14ZM9.5 14C9.776 14 10 14.224 10 14.5C10 14.776 9.776 15 9.5 15C9.224 15 9 14.776 9 14.5C9 14.224 9.224 14 9.5 14ZM7.5 14C7.776 14 8 14.224 8 14.5C8 14.776 7.776 15 7.5 15C7.224 15 7 14.776 7 14.5C7 14.224 7.224 14 7.5 14ZM5.5 14C5.776 14 6 14.224 6 14.5C6 14.776 5.776 15 5.5 15C5.224 15 5 14.776 5 14.5C5 14.224 5.224 14 5.5 14ZM1.5 14C1.776 14 2 14.224 2 14.5C2 14.776 1.776 15 1.5 15C1.224 15 1 14.776 1 14.5C1 14.224 1.224 14 1.5 14ZM3.5 14C3.776 14 4 14.224 4 14.5C4 14.776 3.776 15 3.5 15C3.224 15 3 14.776 3 14.5C3 14.224 3.224 14 3.5 14ZM1.5 12C1.776 12 2 12.224 2 12.5C2 12.776 1.776 13 1.5 13C1.224 13 1 12.776 1 12.5C1 12.224 1.224 12 1.5 12ZM15.5 12C15.776 12 16 12.224 16 12.5C16 12.776 15.776 13 15.5 13C15.224 13 15 12.776 15 12.5C15 12.224 15.224 12 15.5 12ZM1.5 10C1.776 10 2 10.224 2 10.5C2 10.776 1.776 11 1.5 11C1.224 11 1 10.776 1 10.5C1 10.224 1.224 10 1.5 10ZM15.5 10C15.776 10 16 10.224 16 10.5C16 10.776 15.776 11 15.5 11C15.224 11 15 10.776 15 10.5C15 10.224 15.224 10 15.5 10ZM15.5 8C15.776 8 16 8.224 16 8.5C16 8.776 15.776 9 15.5 9C15.224 9 15 8.776 15 8.5C15 8.224 15.224 8 15.5 8ZM1.5 8C1.776 8 2 8.224 2 8.5C2 8.776 1.776 9 1.5 9C1.224 9 1 8.776 1 8.5C1 8.224 1.224 8 1.5 8ZM1.5 6C1.776 6 2 6.224 2 6.5C2 6.776 1.776 7 1.5 7C1.224 7 1 6.776 1 6.5C1 6.224 1.224 6 1.5 6ZM15.5 6C15.776 6 16 6.224 16 6.5C16 6.776 15.776 7 15.5 7C15.224 7 15 6.776 15 6.5C15 6.224 15.224 6 15.5 6ZM1.5 4C1.776 4 2 4.224 2 4.5C2 4.776 1.776 5 1.5 5C1.224 5 1 4.776 1 4.5C1 4.224 1.224 4 1.5 4ZM15.5 4C15.776 4 16 4.224 16 4.5C16 4.776 15.776 5 15.5 5C15.224 5 15 4.776 15 4.5C15 4.224 15.224 4 15.5 4ZM1.5 2C1.776 2 2 2.224 2 2.5C2 2.776 1.776 3 1.5 3C1.224 3 1 2.776 1 2.5C1 2.224 1.224 2 1.5 2ZM15.5 2C15.776 2 16 2.224 16 2.5C16 2.776 15.776 3 15.5 3C15.224 3 15 2.776 15 2.5C15 2.224 15.224 2 15.5 2ZM1.5 0C1.776 0 2 0.224 2 0.5C2 0.776 1.776 1 1.5 1C1.224 1 1 0.776 1 0.5C1 0.224 1.224 0 1.5 0ZM3.5 0C3.776 0 4 0.224 4 0.5C4 0.776 3.776 1 3.5 1C3.224 1 3 0.776 3 0.5C3 0.224 3.224 0 3.5 0ZM5.5 0C5.776 0 6 0.224 6 0.5C6 0.776 5.776 1 5.5 1C5.224 1 5 0.776 5 0.5C5 0.224 5.224 0 5.5 0ZM7.5 0C7.776 0 8 0.224 8 0.5C8 0.776 7.776 1 7.5 1C7.224 1 7 0.776 7 0.5C7 0.224 7.224 0 7.5 0ZM9.5 0C9.776 0 10 0.224 10 0.5C10 0.776 9.776 1 9.5 1C9.224 1 9 0.776 9 0.5C9 0.224 9.224 0 9.5 0ZM11.5 0C11.776 0 12 0.224 12 0.5C12 0.776 11.776 1 11.5 1C11.224 1 11 0.776 11 0.5C11 0.224 11.224 0 11.5 0ZM13.5 0C13.776 0 14 0.224 14 0.5C14 0.776 13.776 1 13.5 1C13.224 1 13 0.776 13 0.5C13 0.224 13.224 0 13.5 0ZM15.5 0C15.776 0 16 0.224 16 0.5C16 0.776 15.776 1 15.5 1C15.224 1 15 0.776 15 0.5C15 0.224 15.224 0 15.5 0Z" fill="#404040" class="Black"/>
<path opacity="0.88" fill-rule="evenodd" clip-rule="evenodd" d="M7.95668 3.27274L4.75213 12H5.86009L6.73747 9.52842H10.2668L11.1442 12H12.2521L9.04759 3.27274H7.95668ZM9.93399 8.59092L8.53622 4.65342H8.46804L7.07027 8.59092H9.93399Z" fill="#377AB5" class="Blue"/>
</svg>
