<svg width="16" height="16" viewBox="0 0 16 16" fill="none" xmlns="http://www.w3.org/2000/svg">
<g opacity="0.88">
<path d="M12.5004 11.1293C12.9787 11.4054 13.1426 12.017 12.8664 12.4953C12.5903 12.9736 11.9787 13.1375 11.5004 12.8613C11.0221 12.5852 10.8582 11.9736 11.1344 11.4953C11.4105 11.017 12.0221 10.8531 12.5004 11.1293Z" fill="#377AB5" class="Blue"/>
<path d="M4.50042 11.1293C4.97871 11.4054 5.14258 12.017 4.86644 12.4953C4.5903 12.9736 3.97871 13.1375 3.50042 12.8613C3.02212 12.5852 2.85825 11.9736 3.13439 11.4953C3.41053 11.017 4.02212 10.8531 4.50042 11.1293Z" fill="#377AB5" class="Blue"/>
<path fill-rule="evenodd" clip-rule="evenodd" d="M4.71145 0.0666943C4.94961 -0.0704464 5.2538 0.0103264 5.39255 0.247547L7.99935 4.7043L10.6061 0.247558C10.7449 0.0103381 11.0491 -0.0704349 11.2872 0.0667056L11.4759 0.175348C12.6782 0.867659 13.0868 2.4065 12.3863 3.60403L9.87105 7.9043L10.6881 9.30125C12.0913 8.61806 13.8044 9.12755 14.5968 10.5C15.4252 11.9349 14.9336 13.7696 13.4987 14.5981C12.0642 15.4263 10.2301 14.9352 9.40135 13.5013L7.99934 11.1043L6.59807 13.5L6.59735 13.5013C5.76858 14.9352 3.93446 15.4263 2.5 14.5981C1.06512 13.7697 0.573494 11.9349 1.40192 10.5C2.1943 9.12756 3.90736 8.61807 5.31055 9.30126L6.12764 7.9043L3.61237 3.60402C2.91193 2.40649 3.32053 0.867648 4.52278 0.175337L4.71145 0.0666943ZM8.57859 10.114L10.2666 13C10.8189 13.9566 12.0421 14.2843 12.9987 13.732C13.9553 13.1798 14.283 11.9566 13.7307 11C13.1785 10.0434 11.9553 9.71566 10.9987 10.2679C10.9321 10.3064 10.8687 10.3479 10.8086 10.3923C10.6945 10.4765 10.5499 10.5083 10.411 10.4797C10.272 10.4511 10.1518 10.3649 10.0801 10.2424L9.2918 8.89463L8.57859 10.114ZM4.79315 1.20342L7.4201 5.69463L6.70689 6.91398L4.47556 3.09914C4.10338 2.46284 4.25306 1.66595 4.79315 1.20342ZM3 13.7321C2.04341 13.1798 1.71566 11.9566 2.26795 11C2.82023 10.0434 4.04341 9.71567 5 10.268C5.06657 10.3064 5.12994 10.348 5.19008 10.3923C5.30423 10.4766 5.44878 10.5083 5.58772 10.4797C5.72666 10.4512 5.84692 10.3649 5.91854 10.2424L11.2055 1.20343C11.7456 1.66596 11.8953 2.46286 11.5231 3.09915L5.73347 12.9976L5.73205 13C5.17976 13.9566 3.95658 14.2843 3 13.7321Z" fill="#377AB5" class="Blue"/>
</g>
<g opacity="0.2">
<path d="M12.5004 11.1293C12.9787 11.4054 13.1426 12.017 12.8664 12.4953C12.5903 12.9736 11.9787 13.1374 11.5004 12.8613C11.0221 12.5852 10.8582 11.9736 11.1344 11.4953C11.4105 11.017 12.0221 10.8531 12.5004 11.1293Z" fill="#377AB5" class="Blue"/>
<path fill-rule="evenodd" clip-rule="evenodd" d="M8.57859 10.114L10.2666 13C10.8189 13.9566 12.0421 14.2843 12.9987 13.732C13.9553 13.1798 14.283 11.9566 13.7307 11C13.1784 10.0434 11.9553 9.71566 10.9987 10.2679C10.9321 10.3064 10.8687 10.3479 10.8086 10.3923C10.6944 10.4765 10.5499 10.5083 10.411 10.4797C10.272 10.4511 10.1518 10.3649 10.0801 10.2424L9.2918 8.89463L8.57859 10.114ZM4.79315 1.20341L7.42009 5.69463L6.70689 6.91398L4.47555 3.09914C4.10338 2.46284 4.25305 1.66595 4.79315 1.20341Z" fill="#377AB5" class="Blue"/>
</g>
</svg>
