<svg width="16" height="16" viewBox="0 0 16 16" fill="none" xmlns="http://www.w3.org/2000/svg">
<path opacity="0.88" fill-rule="evenodd" clip-rule="evenodd" d="M2 1.5C2 0.671573 2.67157 0 3.5 0H8.29289C8.55811 0 8.81246 0.105357 9 0.292893L12.7071 4C12.8946 4.18754 13 4.44189 13 4.70711V9.07629C12.8799 9.02648 12.7499 9 12.6169 9H12V5H9C8.44772 5 8 4.55228 8 4V1H3.5C3.22386 1 3 1.22386 3 1.5V13.5C3 13.7761 3.22386 14 3.5 14H4.08991C4.15687 14.3506 4.2629 14.6855 4.41349 15H3.5C2.67157 15 2 14.3284 2 13.5V1.5ZM9 1.70711V4H11.2929L9 1.70711Z" fill="#377AB5" class="Blue"/>
<path opacity="0.12" d="M3.5 1C3.22386 1 3 1.22386 3 1.5V13.5C3 13.7761 3.22386 14 3.5 14H4.08991C4.02856 13.6788 4 13.3443 4 13C4 12.2528 4.13476 11.5518 4.44893 10.9335C4.75184 10.3355 5.18346 9.8454 5.74981 9.50162C6.31032 9.16139 6.93573 9 7.59834 9C8.01141 9 8.41373 9.05988 8.79785 9.189C9.18137 9.31792 9.53239 9.51079 9.84276 9.76875C10.1322 10.0076 10.3703 10.2932 10.5577 10.6172C10.6352 10.5864 10.7173 10.5651 10.8025 10.5545L10.9035 9.85675C10.9747 9.36493 11.3962 9 11.8932 9H12V5H9C8.44772 5 8 4.55228 8 4V1H3.5Z" fill="#377AB5" class="Blue"/>
<g opacity="0.72">
<path d="M8.96399 12.0504H10C9.95753 11.7253 9.86704 11.4363 9.72853 11.1835C9.59187 10.9287 9.41736 10.7139 9.20499 10.539C8.99261 10.3622 8.75069 10.2281 8.47922 10.1369C8.20776 10.0456 7.91413 10 7.59834 10C7.10342 10 6.6602 10.1188 6.2687 10.3565C5.87719 10.5941 5.56787 10.9373 5.34072 11.3859C5.11357 11.8327 5 12.3707 5 13C5 13.6274 5.11265 14.1654 5.33795 14.6141C5.56325 15.0627 5.87165 15.4059 6.26316 15.6435C6.65466 15.8812 7.09972 16 7.59834 16C7.93629 16 8.24377 15.9487 8.52078 15.846C8.79778 15.7414 9.0397 15.597 9.24654 15.4125C9.45337 15.2262 9.6205 15.0114 9.74792 14.7681C9.87719 14.5247 9.96122 14.2643 10 13.9867L8.96399 13.981C8.93259 14.1521 8.87535 14.3042 8.79224 14.4373C8.71099 14.5703 8.61034 14.6825 8.4903 14.7738C8.37211 14.865 8.23823 14.9344 8.08864 14.9819C7.9409 15.0276 7.78209 15.0504 7.61219 15.0504C7.30563 15.0504 7.03324 14.9734 6.79501 14.8194C6.55863 14.6635 6.37211 14.4335 6.23546 14.1293C6.10065 13.8232 6.03324 13.4468 6.03324 13C6.03324 12.5608 6.10065 12.1892 6.23546 11.885C6.37027 11.5789 6.55679 11.347 6.79501 11.1892C7.03324 11.0295 7.30656 10.9496 7.61496 10.9496C7.78855 10.9496 7.95014 10.9743 8.09972 11.0238C8.25115 11.0713 8.38596 11.1426 8.50415 11.2376C8.62234 11.3327 8.72114 11.4487 8.80055 11.5856C8.87996 11.7205 8.93444 11.8755 8.96399 12.0504Z" fill="#404040" class="Black"/>
<path fill-rule="evenodd" clip-rule="evenodd" d="M12.8857 16L13.1096 14.4531H11.9723L11.7484 16H11.0247L11.2486 14.4531H10.5L10.6215 13.6328H11.3673L11.5505 12.3672H10.8076L10.9265 11.5469H11.6693L11.8932 10H12.6169L12.393 11.5469H13.5303L13.7542 10H14.4779L14.254 11.5469H15L14.8811 12.3672H14.1352L13.9521 13.6328H14.695L14.5735 14.4531H13.8333L13.6094 16H12.8857ZM13.4115 12.3672L13.2283 13.6328H12.0911L12.2743 12.3672H13.4115Z" fill="#404040" class="Black"/>
</g>
</svg>
