<svg width="16" height="16" viewBox="0 0 16 16" fill="none" xmlns="http://www.w3.org/2000/svg">
<g opacity="0.88">
<path d="M0.75 0C0.473858 0 0.25 0.223858 0.25 0.5C0.25 0.776142 0.473858 1 0.75 1H1V6H0.75C0.473858 6 0.25 6.22386 0.25 6.5C0.25 6.77614 0.473858 7 0.75 7H2.25C2.52614 7 2.75 6.77614 2.75 6.5C2.75 6.22386 2.52614 6 2.25 6H2V4H4C4.27614 4 4.5 3.77614 4.5 3.5C4.5 3.22386 4.27614 3 4 3H2V1H5C5 1.27614 5.22386 1.5 5.5 1.5C5.77614 1.5 6 1.27614 6 1V0.5C6 0.223858 5.77614 0 5.5 0H0.75Z" fill="#377AB5" class="Blue"/>
<path d="M10.5 4.5C10.7761 4.5 11 4.72386 11 5V6H12C12.2761 6 12.5 6.22386 12.5 6.5C12.5 6.77614 12.2761 7 12 7H11V8C11 8.27614 10.7761 8.5 10.5 8.5C10.2239 8.5 10 8.27614 10 8V7H9C8.72386 7 8.5 6.77614 8.5 6.5C8.5 6.22386 8.72386 6 9 6H10V5C10 4.72386 10.2239 4.5 10.5 4.5Z" fill="#377AB5" class="Blue"/>
<path d="M9 9C8.72386 9 8.5 9.22386 8.5 9.5C8.5 9.77614 8.72386 10 9 10H12C12.2761 10 12.5 9.77614 12.5 9.5C12.5 9.22386 12.2761 9 12 9H9Z" fill="#377AB5" class="Blue"/>
<path fill-rule="evenodd" clip-rule="evenodd" d="M10.5 0C10.7761 0 11 0.223858 11 0.5V2.02242C13.8033 2.27504 16 4.63098 16 7.5C16 10.369 13.8033 12.725 11 12.9776V14.5C11 14.7761 10.7761 15 10.5 15C10.2239 15 10 14.7761 10 14.5V12.9776C7.19675 12.725 5 10.369 5 7.5C5 4.63098 7.19675 2.27504 10 2.02242V0.5C10 0.223858 10.2239 0 10.5 0ZM15 7.5C15 9.98528 12.9853 12 10.5 12C8.01472 12 6 9.98528 6 7.5C6 5.01472 8.01472 3 10.5 3C12.9853 3 15 5.01472 15 7.5Z" fill="#377AB5" class="Blue"/>
</g>
</svg>
