<svg width="16" height="16" viewBox="0 0 16 16" fill="none" xmlns="http://www.w3.org/2000/svg">
<g opacity="0.88">
<path fill-rule="evenodd" clip-rule="evenodd" d="M9.25 5C8.97386 5 8.75 5.22386 8.75 5.5C8.75 5.68507 8.85055 5.84666 9 5.93311V10.0669C8.85055 10.1533 8.75 10.3149 8.75 10.5C8.75 10.7761 8.97386 11 9.25 11H9.75C10.0261 11 10.25 10.7761 10.25 10.5C10.25 10.3149 10.1495 10.1533 10 10.0669V9H11C12.1046 9 13 8.10457 13 7C13 5.89543 12.1046 5 11 5H9.25ZM10 8V6H11C11.5523 6 12 6.44772 12 7C12 7.55228 11.5523 8 11 8H10Z" fill="#377AB5" class="Blue"/>
<path d="M5.45731 6.13271C5.6037 6.05082 5.79295 6 6.04283 6C6.27739 6 6.45442 6.04287 6.58924 6.11003L6.59489 6.11281C6.73004 6.17802 6.82269 6.26503 6.88824 6.37644L6.89176 6.38232C6.95631 6.48867 7 6.63312 7 6.83717C7 6.93907 6.97708 7.05076 6.92038 7.17605L6.91819 7.18097C6.85779 7.31836 6.76286 7.47679 6.62483 7.65651L6.62259 7.65944C6.48175 7.84565 6.3088 8.05239 6.10221 8.28004L4.2453 10.1474C4.10289 10.2907 4.06063 10.5055 4.13818 10.692C4.21574 10.8785 4.39788 11 4.59985 11H7.5C7.77614 11 8 10.7761 8 10.5V10C8 9.72386 7.77614 9.5 7.5 9.5C7.22386 9.5 7 9.72386 7 10H5.80216L6.81929 8.97713C6.82455 8.97184 6.8297 8.96642 6.83473 8.96089C7.05924 8.7139 7.25453 8.48153 7.41903 8.26416C7.59187 8.03894 7.73251 7.81276 7.83256 7.58586C7.9406 7.34629 8 7.09547 8 6.83717C8 6.48722 7.92366 6.15654 7.74839 5.86639C7.57819 5.57844 7.33446 5.35997 7.03232 5.21355C6.73295 5.06505 6.39806 5 6.04283 5C5.65519 5 5.29192 5.07981 4.97072 5.25908C4.66052 5.42997 4.41227 5.66915 4.23924 5.97464L4.23832 5.97627C4.06779 6.28001 3.99149 6.61516 4.00075 6.96874C4.0021 7.02044 4.01147 7.07162 4.02852 7.12045L4.03561 7.14076C4.12662 7.40147 4.41176 7.53904 4.67247 7.44803C4.90725 7.36606 5.04216 7.12668 5.00021 6.88947C5.00337 6.72546 5.04204 6.58771 5.10983 6.46665C5.18702 6.33071 5.29736 6.22066 5.45408 6.1345L5.45731 6.13271Z" fill="#377AB5" class="Blue"/>
<path fill-rule="evenodd" clip-rule="evenodd" d="M2.5 2C2.22386 2 2 2.22386 2 2.5V4H1.5C1.22386 4 1 4.22386 1 4.5C1 4.77614 1.22386 5 1.5 5H2V11H1.5C1.22386 11 1 11.2239 1 11.5C1 11.7761 1.22386 12 1.5 12H2V13.5C2 13.7761 2.22386 14 2.5 14H14.5C14.7761 14 15 13.7761 15 13.5V12H15.5C15.7761 12 16 11.7761 16 11.5C16 11.2239 15.7761 11 15.5 11H15V5H15.5C15.7761 5 16 4.77614 16 4.5C16 4.22386 15.7761 4 15.5 4H15V2.5C15 2.22386 14.7761 2 14.5 2H2.5ZM3 3H14V13H3V3Z" fill="#377AB5" class="Blue"/>
</g>
</svg>
