<svg width="16" height="16" viewBox="0 0 16 16" fill="none" xmlns="http://www.w3.org/2000/svg">
<path opacity="0.88" fill-rule="evenodd" clip-rule="evenodd" d="M2.5 1C1.67157 1 1 1.67157 1 2.5V5.5V12.5C1 13.3284 1.67157 14 2.5 14H12.7676C12.5974 13.7058 12.5 13.3643 12.5 13H2.5C2.22386 13 2 12.7761 2 12.5V6H7.5H12.6377C12.8425 5.42173 13.3941 5 14.0525 5H14.9475C14.9651 5 14.9826 5.0003 15 5.0009V2.5C15 1.67157 14.3284 1 13.5 1H2.5ZM2 2.5C2 2.22386 2.22386 2 2.5 2H13.5C13.7761 2 14 2.22386 14 2.5V5H7.5H2V2.5Z" fill="#377AB5" class="Blue"/>
<g opacity="0.88">
<path d="M14.0525 6C13.7567 6 13.5255 6.25541 13.555 6.54975L13.955 10.5498C13.9805 10.8054 14.1956 11 14.4525 11H14.5475C14.8044 11 15.0195 10.8054 15.045 10.5498L15.445 6.54975C15.4745 6.25541 15.2433 6 14.9475 6H14.0525Z" fill="#D04D2F" class="Red"/>
<path d="M14.5 12C13.9477 12 13.5 12.4477 13.5 13C13.5 13.5523 13.9477 14 14.5 14C15.0523 14 15.5 13.5523 15.5 13C15.5 12.4477 15.0523 12 14.5 12Z" fill="#D04D2F" class="Red"/>
</g>
</svg>
