<svg width="16" height="16" viewBox="0 0 16 16" fill="none" xmlns="http://www.w3.org/2000/svg">
<path opacity="0.88" fill-rule="evenodd" clip-rule="evenodd" d="M5.5 2C5.22386 2 5 2.22386 5 2.5V3H11V2.5C11 2.22386 10.7761 2 10.5 2H5.5ZM12 3V2.5C12 1.67157 11.3284 1 10.5 1H5.5C4.67157 1 4 1.67157 4 2.5V3H3C1.89543 3 1 3.89543 1 5V10.5C1 11.3284 1.67157 12 2.5 12H4V13.5C4 14.3284 4.67157 15 5.5 15H10.5C11.3284 15 12 14.3284 12 13.5V12H13.5C14.3284 12 15 11.3284 15 10.5V5C15 3.89543 14.1046 3 13 3H12ZM12 11H13.5C13.7761 11 14 10.7761 14 10.5V5C14 4.44772 13.5523 4 13 4H3C2.44772 4 2 4.44772 2 5V10.5C2 10.7761 2.22386 11 2.5 11H4V9.5C4 8.67157 4.67157 8 5.5 8H10.5C11.3284 8 12 8.67157 12 9.5V11ZM5.5 9C5.22386 9 5 9.22386 5 9.5V13.5C5 13.7761 5.22386 14 5.5 14H10.5C10.7761 14 11 13.7761 11 13.5V9.5C11 9.22386 10.7761 9 10.5 9H5.5Z" fill="#377AB5" class="Blue"/>
<path opacity="0.2" fill-rule="evenodd" clip-rule="evenodd" d="M12 11H13.5C13.7761 11 14 10.7761 14 10.5V5C14 4.44772 13.5523 4 13 4H3C2.44772 4 2 4.44772 2 5V10.5C2 10.7761 2.22386 11 2.5 11H4V9.5C4 8.67157 4.67157 8 5.5 8H10.5C11.3284 8 12 8.67157 12 9.5V11Z" fill="#377AB5" class="Blue"/>
</svg>
