<svg width="16" height="16" viewBox="0 0 16 16" fill="none" xmlns="http://www.w3.org/2000/svg">
<path opacity="0.88" fill-rule="evenodd" clip-rule="evenodd" d="M1 2.5C1 1.67157 1.67157 1 2.5 1H12.0858C12.4836 1 12.8651 1.15804 13.1464 1.43934L14.5607 2.85355C14.842 3.13486 15 3.51639 15 3.91421V13.5C15 14.3284 14.3284 15 13.5 15H2.5C1.67157 15 1 14.3284 1 13.5V2.5ZM2.5 2C2.22386 2 2 2.22386 2 2.5V13.5C2 13.7761 2.22386 14 2.5 14H4V10C4 9.44772 4.44772 9 5 9H11C11.5523 9 12 9.44771 12 10V14H13.5C13.7761 14 14 13.7761 14 13.5V3.91421C14 3.78161 13.9473 3.65443 13.8536 3.56066L12.4393 2.14645C12.3456 2.05268 12.2184 2 12.0858 2H12V5C12 5.55228 11.5523 6 11 6H5C4.44772 6 4 5.55228 4 5V2H2.5ZM5 2V5H9V2H5ZM10 2V5H11V2H10ZM11 14H5V10H11V14Z" fill="#377AB5" class="Blue"/>
<path opacity="0.2" d="M2 2.5C2 2.22386 2.22386 2 2.5 2H4V5C4 5.55228 4.44772 6 5 6H11C11.5523 6 12 5.55228 12 5V2H12.0858C12.2184 2 12.3456 2.05268 12.4393 2.14645L13.8536 3.56066C13.9473 3.65443 14 3.78161 14 3.91421V13.5C14 13.7761 13.7761 14 13.5 14H12V10C12 9.44771 11.5523 9 11 9H5C4.44772 9 4 9.44772 4 10V14H2.5C2.22386 14 2 13.7761 2 13.5V2.5Z" fill="#377AB5" class="Blue"/>
</svg>
