<svg width="16" height="16" viewBox="0 0 16 16" fill="none" xmlns="http://www.w3.org/2000/svg">
  <path opacity="0.88" fill-rule="evenodd" clip-rule="evenodd" d="M8.68358 12.4216C8.40909 12.7736 7.98098 13 7.5 13C7.0507 13 6.64754 12.8025 6.37263 12.4895L3.99878 13.439C3.99959 13.4593 4 13.4796 4 13.5C4 14.3284 3.32843 15 2.5 15C1.67157 15 1 14.3284 1 13.5C1 12.6716 1.67157 12 2.5 12C2.94932 12 3.3525 12.1976 3.62741 12.5105L6.00122 11.561C6.00041 11.5408 6 11.5204 6 11.5C6 10.6716 6.67157 10 7.5 10C8.31937 10 8.9853 10.657 8.99976 11.4729L12.3164 12.5784C12.5909 12.2264 13.019 12 13.5 12C14.3284 12 15 12.6716 15 13.5C15 14.3284 14.3284 15 13.5 15C12.6806 15 12.0147 14.343 12.0002 13.5271L8.68358 12.4216ZM8 11.5C8 11.7761 7.77614 12 7.5 12C7.22386 12 7 11.7761 7 11.5C7 11.2239 7.22386 11 7.5 11C7.77614 11 8 11.2239 8 11.5ZM3 13.5C3 13.7761 2.77614 14 2.5 14C2.22386 14 2 13.7761 2 13.5C2 13.2239 2.22386 13 2.5 13C2.77614 13 3 13.2239 3 13.5ZM13.5 14C13.7761 14 14 13.7761 14 13.5C14 13.2239 13.7761 13 13.5 13C13.2239 13 13 13.2239 13 13.5C13 13.7761 13.2239 14 13.5 14Z" fill="#377AB5" class="Blue" />
  <path opacity="0.88" fill-rule="evenodd" clip-rule="evenodd" d="M2.5 1C3.15311 1 3.70873 1.4174 3.91465 2H6.08535C6.29127 1.4174 6.84689 1 7.5 1C8.15311 1 8.70873 1.4174 8.91465 2H12.0854C12.2913 1.4174 12.8469 1 13.5 1C14.3284 1 15 1.67157 15 2.5C15 3.32843 14.3284 4 13.5 4C12.8469 4 12.2913 3.5826 12.0854 3H8.91465C8.70873 3.5826 8.15311 4 7.5 4C6.84689 4 6.29127 3.5826 6.08535 3H3.91465C3.70873 3.5826 3.15311 4 2.5 4C1.67157 4 1 3.32843 1 2.5C1 1.67157 1.67157 1 2.5 1ZM3 2.5C3 2.77614 2.77614 3 2.5 3C2.22386 3 2 2.77614 2 2.5C2 2.22386 2.22386 2 2.5 2C2.77614 2 3 2.22386 3 2.5ZM13 2.5C13 2.77614 13.2239 3 13.5 3C13.7761 3 14 2.77614 14 2.5C14 2.22386 13.7761 2 13.5 2C13.2239 2 13 2.22386 13 2.5ZM7.5 2C7.77614 2 8 2.22386 8 2.5C8 2.77614 7.77614 3 7.5 3C7.22386 3 7 2.77614 7 2.5C7 2.22386 7.22386 2 7.5 2Z" fill="#4DAE89" class="green" />
  <path opacity="0.88" fill-rule="evenodd" clip-rule="evenodd" d="M2.5 8C3.04789 8 3.52716 7.70626 3.78894 7.26767L6.01499 7.71288C6.11836 8.44049 6.74384 9 7.5 9C8.23953 9 8.85407 8.46482 8.97744 7.76063L12.1869 7.22571C12.4426 7.68742 12.9348 8 13.5 8C14.3284 8 15 7.32843 15 6.5C15 5.67157 14.3284 5 13.5 5C12.7605 5 12.146 5.53515 12.0226 6.23931L8.81305 6.77423C8.55731 6.31255 8.06516 6 7.5 6C6.95213 6 6.47286 6.29373 6.21108 6.7323L3.985 6.28708C3.88161 5.55949 3.25615 5 2.5 5C1.67157 5 1 5.67157 1 6.5C1 7.32843 1.67157 8 2.5 8ZM3 6.5C3 6.77614 2.77614 7 2.5 7C2.22386 7 2 6.77614 2 6.5C2 6.22386 2.22386 6 2.5 6C2.77614 6 3 6.22386 3 6.5ZM14 6.5C14 6.77614 13.7761 7 13.5 7C13.2239 7 13 6.77614 13 6.5C13 6.22386 13.2239 6 13.5 6C13.7761 6 14 6.22386 14 6.5ZM8 7.5C8 7.77614 7.77614 8 7.5 8C7.22386 8 7 7.77614 7 7.5C7 7.22386 7.22386 7 7.5 7C7.77614 7 8 7.22386 8 7.5Z" fill="#EEB764" class="style2" />
  <path opacity="0.24" fill-rule="evenodd" clip-rule="evenodd" d="M2.5 8C3.04789 8 3.52716 7.70626 3.78894 7.26767L6.01499 7.71288C6.11836 8.44049 6.74384 9 7.5 9C8.23953 9 8.85407 8.46482 8.97744 7.76063L12.1869 7.22571C12.4426 7.68742 12.9348 8 13.5 8C14.3284 8 15 7.32843 15 6.5C15 5.67157 14.3284 5 13.5 5C12.7605 5 12.146 5.53515 12.0226 6.23931L8.81305 6.77423C8.55731 6.31255 8.06516 6 7.5 6C6.95213 6 6.47286 6.29373 6.21108 6.7323L3.985 6.28708C3.88161 5.55949 3.25615 5 2.5 5C1.67157 5 1 5.67157 1 6.5C1 7.32843 1.67157 8 2.5 8ZM3 6.5C3 6.77614 2.77614 7 2.5 7C2.22386 7 2 6.77614 2 6.5C2 6.22386 2.22386 6 2.5 6C2.77614 6 3 6.22386 3 6.5ZM14 6.5C14 6.77614 13.7761 7 13.5 7C13.2239 7 13 6.77614 13 6.5C13 6.22386 13.2239 6 13.5 6C13.7761 6 14 6.22386 14 6.5ZM8 7.5C8 7.77614 7.77614 8 7.5 8C7.22386 8 7 7.77614 7 7.5C7 7.22386 7.22386 7 7.5 7C7.77614 7 8 7.22386 8 7.5Z" fill="#D04D2F" class="Red" />
</svg>