<svg width="16" height="16" viewBox="0 0 16 16" fill="none" xmlns="http://www.w3.org/2000/svg">
<path opacity="0.88" fill-rule="evenodd" clip-rule="evenodd" d="M4 2V1.5C4 0.671573 4.67157 0 5.5 0H9.5C9.63261 0 9.75979 0.0526784 9.85355 0.146447L13.8536 4.14645C13.9473 4.24021 14 4.36739 14 4.5V12.5C14 13.3284 13.3284 14 12.5 14H12V14.5C12 15.3284 11.3284 16 10.5 16H3.5C2.67157 16 2 15.3284 2 14.5V3.5C2 2.67157 2.67157 2 3.5 2H4ZM5 1.5C5 1.22386 5.22386 1 5.5 1H9V4C9 4.55228 9.44772 5 10 5H13V12.5C13 12.7761 12.7761 13 12.5 13H5.5C5.22386 13 5 12.7761 5 12.5V1.5ZM4 3H3.5C3.22386 3 3 3.22386 3 3.5V14.5C3 14.7761 3.22386 15 3.5 15H10.5C10.7761 15 11 14.7761 11 14.5V14H5.5C4.67157 14 4 13.3284 4 12.5V3ZM12.2929 4L10 1.70711V4H12.2929Z" fill="#377AB5" class="Blue"/>
<path opacity="0.2" fill-rule="evenodd" clip-rule="evenodd" d="M4 3H3.5C3.22386 3 3 3.22386 3 3.5V14.5C3 14.7761 3.22386 15 3.5 15H10.5C10.7761 15 11 14.7761 11 14.5V14H5.5C4.67157 14 4 13.3284 4 12.5V3Z" fill="#377AB5" class="Blue"/>
</svg>
