<svg width="16" height="16" viewBox="0 0 16 16" fill="none" xmlns="http://www.w3.org/2000/svg">
<path opacity="0.88" fill-rule="evenodd" clip-rule="evenodd" d="M7.5 0C11.4741 0 14.7263 3.09098 14.9836 7H15.5C15.7761 7 16 7.22386 16 7.5C16 7.77614 15.7761 8 15.5 8H14.9836C14.8081 10.6656 13.24 12.9509 11 14.135V15.5C11 15.7761 10.7761 16 10.5 16C10.2239 16 10 15.7761 10 15.5V14.5732C9.21805 14.8496 8.37659 15 7.5 15C3.35786 15 0 11.6421 0 7.5C0 3.35786 3.35786 0 7.5 0ZM4 7H1.01894C1.27426 3.64378 4.07838 1 7.5 1C8.33009 1 9.12384 1.1556 9.85367 1.43923L5 6.29289V4C5 3.72386 4.77614 3.5 4.5 3.5C4.22386 3.5 4 3.72386 4 4V7ZM5.70711 7L10.8052 1.90189C12.5826 2.95354 13.8158 4.82751 13.9811 7H5.70711ZM10.4537 13.2917C12.4186 12.2876 13.8051 10.313 13.9811 8H5.70711L8.10355 10.3964L9.5 9L10.4537 13.2917ZM10.1721 13.4271C9.35699 13.7952 8.45242 14 7.5 14C4.07839 14 1.27426 11.3562 1.01894 8H4V11C4 11.2761 4.22386 11.5 4.5 11.5C4.77614 11.5 5 11.2761 5 11V8.70711L7.39645 11.1036L6 12.5L10.1721 13.4271Z" fill="#377AB5" class="Blue"/>
</svg>
