<svg width="16" height="16" viewBox="0 0 16 16" fill="none" xmlns="http://www.w3.org/2000/svg">
<path opacity="0.72" d="M10 14.2929V9.89039L9 9.64039V14.8596L2.19515 13.1584L6.37059 8.98296C6.19524 8.93601 6.06243 8.79903 6.017 8.62945L2 12.6464V6.14039L6 7.14039V6.10961L2.478 5.22911L6 1.70711V0.499999C6 0.367426 6.05259 0.241218 6.14468 0.148215L1.14645 5.14645C1.05268 5.24022 1 5.36739 1 5.5V13.5C1 13.7294 1.15615 13.9294 1.37873 13.9851L9.37873 15.9851C9.54912 16.0277 9.72936 15.9777 9.85355 15.8536L14.8528 10.8543C14.8387 10.8684 14.8236 10.8817 14.8077 10.8941C14.6863 10.9889 14.5281 11.0224 14.3787 10.9851L13.522 10.7709L10 14.2929Z" fill="#404040" class="Black"/>
<g opacity="0.88">
<path d="M6.19229 0.105894C6.31365 0.0111406 6.4719 -0.022417 6.62127 0.0149257L14.6135 2.01298C14.4509 1.97526 14.2731 2.01975 14.1464 2.14645L9.34663 6.94627L6 6.10961V0.499997C6 0.346029 6.07094 0.200648 6.19229 0.105894Z" fill="#377AB5" class="Blue"/>
<path d="M10 7.70711V9.89038L14.3787 10.9851C14.5281 11.0224 14.6863 10.9889 14.8077 10.8941C14.9291 10.7993 15 10.654 15 10.5V2.50049C14.9999 2.62829 14.9511 2.75605 14.8536 2.85355L10 7.70711Z" fill="#377AB5" class="Blue"/>
<path d="M14.8674 2.1608C14.8532 2.14546 14.8381 2.13099 14.822 2.11749C14.8329 2.12661 14.8434 2.13626 14.8536 2.14645C14.8583 2.15116 14.8629 2.15595 14.8674 2.1608Z" fill="#377AB5" class="Blue"/>
<path d="M9 7.89038V9.64038L6.37873 8.98507C6.15615 8.92942 6 8.72943 6 8.5V7.14039L9 7.89038Z" fill="#377AB5" class="Blue"/>
</g>
</svg>
