<svg width="16" height="16" viewBox="0 0 16 16" fill="none" xmlns="http://www.w3.org/2000/svg">
  <g clip-path="url(#clip0_1004_3294)">
    <path opacity="0.88" fill-rule="evenodd" clip-rule="evenodd" d="M8 0C3.58502 0 0 3.584 0 8C0 12.415 3.58502 16 8 16C12.415 16 16 12.415 16 8C16 3.584 12.415 0 8 0ZM8 1C11.863 1 15 4.136 15 8C15 11.863 11.863 15 8 15C4.13702 15 1 11.863 1 8C1 4.136 4.13702 1 8 1ZM6.5 7H7.85999L6.80103 11.235C6.66302 11.787 6.867 12.367 7.31799 12.713C7.76898 13.058 8.383 13.103 8.88 12.827C8.90198 12.814 8.92401 12.8 8.94397 12.784C9.13702 12.633 9.31403 12.465 9.43701 12.242C9.57098 12.001 9.48401 11.696 9.242 11.562C9.00098 11.429 8.69702 11.516 8.56299 11.757C8.51398 11.844 8.44202 11.906 8.367 11.966C8.21997 12.033 8.052 12.015 7.92603 11.919C7.79102 11.815 7.72998 11.642 7.771 11.477L8.98499 6.621C9.02197 6.471 8.98901 6.313 8.89398 6.192C8.79901 6.071 8.65399 6 8.5 6H6.5C6.224 6 6 6.224 6 6.5C6 6.776 6.224 7 6.5 7ZM9 3C9.552 3 10 3.448 10 4C10 4.552 9.552 5 9 5C8.448 5 8 4.552 8 4C8 3.448 8.448 3 9 3Z" fill="#377AB5" class="Blue" />
  </g>
  <defs>
    <clipPath id="clip0_1004_3294">
      <rect width="16" height="16" fill="white" class="white" />
    </clipPath>
  </defs>
</svg>