<svg width="16" height="16" viewBox="0 0 16 16" fill="none" xmlns="http://www.w3.org/2000/svg">
<path opacity="0.88" fill-rule="evenodd" clip-rule="evenodd" d="M5.14645 0.146447C5.24021 0.0526784 5.36739 0 5.5 0H10.5C10.6326 0 10.7598 0.0526784 10.8536 0.146447L14.7071 4H15.5C15.7761 4 16 4.22386 16 4.5V11.5C16 11.7761 15.7761 12 15.5 12H14.7071L10.8536 15.8536C10.7598 15.9473 10.6326 16 10.5 16H5.5C5.36739 16 5.24021 15.9473 5.14645 15.8536L1.29289 12H0.5C0.223858 12 0 11.7761 0 11.5V5.5C0 5.36739 0.0526784 5.24021 0.146447 5.14645L5.14645 0.146447ZM1 11H1.5C1.63807 11 1.76307 11.056 1.85355 11.1464L2.12745 11.4203L6 9V11H10V2.5C10 2.22386 10.2239 2 10.5 2C10.7761 2 11 2.22386 11 2.5V4H13.2929L10.2929 1H5.70711L1 5.70711V11ZM6 12V14L2.55229 11.8452L5.70711 15H10.2929L13.2929 12H11V13.5C11 13.7761 10.7761 14 10.5 14C10.2239 14 10 13.7761 10 13.5V12H6ZM15 11H11V5H15V11Z" fill="#377AB5" class="Blue"/>
</svg>
