<svg width="16" height="16" viewBox="0 0 16 16" fill="none" xmlns="http://www.w3.org/2000/svg">
<path opacity="0.88" fill-rule="evenodd" clip-rule="evenodd" d="M14 0.5C14 0.223858 13.7761 0 13.5 0C13.2239 0 13 0.223858 13 0.5V2.29289L10.8536 0.146447C10.7598 0.0526784 10.6326 0 10.5 0H5.5C5.36739 0 5.24021 0.0526784 5.14645 0.146447L0.146447 5.14645C0.0526784 5.24021 0 5.36739 0 5.5V10.5C0 10.6326 0.0526784 10.7598 0.146447 10.8536L2.29289 13H0.5C0.223858 13 0 13.2239 0 13.5C0 13.7761 0.223858 14 0.5 14H3.29289L5.14645 15.8536C5.24021 15.9473 5.36739 16 5.5 16H10.5C10.6326 16 10.7598 15.9473 10.8536 15.8536L13 13.7071V15.5C13 15.7761 13.2239 16 13.5 16C13.7761 16 14 15.7761 14 15.5V12.7071L15.8536 10.8536C15.9473 10.7598 16 10.6326 16 10.5V5.5C16 5.36739 15.9473 5.24021 15.8536 5.14645L14 3.29289V0.5ZM15 10.2929L14 11.2929V8.5C14 8.22386 13.7761 8 13.5 8C13.2239 8 13 8.22386 13 8.5L9 6V8H8V4H13.2929L15 5.70711V10.2929ZM9 9V11L13 8.5V12H8V9H9ZM12.2929 13H8V13.5C8 13.7761 7.77614 14 7.5 14C7.22386 14 7 13.7761 7 13.5V2.5C7 2.22386 7.22386 2 7.5 2C7.77614 2 8 2.22386 8 2.5V3H12.2929L10.2929 1H5.70711L1 5.70711V10.2929L3.70711 13H5V6.5C5 6.22386 5.22386 6 5.5 6C5.77614 6 6 6.22386 6 6.5V13.5C6 13.7761 5.77614 14 5.5 14H4.70711L5.70711 15H10.2929L12.2929 13Z" fill="#377AB5" class="Blue"/>
</svg>
