<svg width="16" height="16" viewBox="0 0 16 16" fill="none" xmlns="http://www.w3.org/2000/svg">
<path opacity="0.88" fill-rule="evenodd" clip-rule="evenodd" d="M7.5 1C7.22386 1 7 1.22386 7 1.5V2H9V1.5C9 1.22386 8.77614 1 8.5 1H7.5ZM10 2V1.5C10 0.671573 9.32843 0 8.5 0H7.5C6.67157 0 6 0.671573 6 1.5V2H2.5C2.22386 2 2 2.22386 2 2.5C2 2.77614 2.22386 3 2.5 3H13.5C13.7761 3 14 2.77614 14 2.5C14 2.22386 13.7761 2 13.5 2H10ZM3.5 4C3.77614 4 4 4.22386 4 4.5V14C4 14.5523 4.44772 15 5 15H11C11.5523 15 12 14.5523 12 14V4.5C12 4.22386 12.2239 4 12.5 4C12.7761 4 13 4.22386 13 4.5V14C13 15.1046 12.1046 16 11 16H5C3.89543 16 3 15.1046 3 14V4.5C3 4.22386 3.22386 4 3.5 4ZM6.5 5C6.77614 5 7 5.22386 7 5.5V13.5C7 13.7761 6.77614 14 6.5 14C6.22386 14 6 13.7761 6 13.5V5.5C6 5.22386 6.22386 5 6.5 5ZM9.5 5C9.77614 5 10 5.22386 10 5.5V13.5C10 13.7761 9.77614 14 9.5 14C9.22386 14 9 13.7761 9 13.5V5.5C9 5.22386 9.22386 5 9.5 5Z" fill="#D04D2F" class="Red"/>
</svg>
