<svg width="16" height="16" viewBox="0 0 16 16" fill="none" xmlns="http://www.w3.org/2000/svg">
<path opacity="0.88" fill-rule="evenodd" clip-rule="evenodd" d="M6.5 0C6.77614 0 7 0.223858 7 0.5V6.5C7 6.77614 6.77614 7 6.5 7C6.22386 7 6 6.77614 6 6.5V4H2.5C2.22386 4 2 4.22386 2 4.5V11.5C2 11.7761 2.22386 12 2.5 12H4V9.5C4 9.31061 4.107 9.13748 4.27639 9.05279C4.44579 8.96809 4.64849 8.98637 4.8 9.1L8.8 12.1C8.9259 12.1944 9 12.3426 9 12.5C9 12.6574 8.9259 12.8056 8.8 12.9L4.8 15.9C4.64849 16.0136 4.44579 16.0319 4.27639 15.9472C4.107 15.8625 4 15.6894 4 15.5V13H2.5C1.67157 13 1 12.3284 1 11.5V4.5C1 3.67157 1.67157 3 2.5 3H6V0.5C6 0.223858 6.22386 0 6.5 0ZM5 14.5L7.66667 12.5L5 10.5V14.5ZM10 12V9.5C10 9.22386 9.77614 9 9.5 9C9.22386 9 9 9.22386 9 9.5V12.5V15.5C9 15.7761 9.22386 16 9.5 16C9.77614 16 10 15.7761 10 15.5V13H12.5C13.3284 13 14 12.3284 14 11.5V11H14.5C14.7761 11 15 10.7761 15 10.5V5.5C15 5.22386 14.7761 5 14.5 5H14V4.5C14 3.67157 13.3284 3 12.5 3H9V2C9 1.72386 8.77614 1.5 8.5 1.5C8.22386 1.5 8 1.72386 8 2V5C8 5.27614 8.22386 5.5 8.5 5.5C8.77614 5.5 9 5.27614 9 5V4H12.5C12.7761 4 13 4.22386 13 4.5V5H12.5C12.2239 5 12 5.22386 12 5.5V10.5C12 10.7761 12.2239 11 12.5 11H13V11.5C13 11.7761 12.7761 12 12.5 12H10ZM14 10V6H13V10H14Z" fill="#377AB5" class="Blue"/>
<path opacity="0.2" fill-rule="evenodd" clip-rule="evenodd" d="M5 14.5L7.66667 12.5L5 10.5V14.5ZM14 10V6H13V10H14Z" fill="#377AB5" class="Blue"/>
</svg>
