<svg width="16" height="16" viewBox="0 0 16 16" fill="none" xmlns="http://www.w3.org/2000/svg">
<path opacity="0.88" fill-rule="evenodd" clip-rule="evenodd" d="M4.5 1C3.67157 1 3 1.67157 3 2.5V3H2.5C1.67157 3 1 3.67157 1 4.5V13.5C1 14.3284 1.67157 15 2.5 15H11.5C12.3284 15 13 14.3284 13 13.5V13H13.5C14.3284 13 15 12.3284 15 11.5V2.70711C15 2.44189 14.8946 2.18754 14.7071 2L14 1.29289C13.8125 1.10536 13.5581 1 13.2929 1H4.5ZM12 13H4.5C3.67157 13 3 12.3284 3 11.5V4H2.5C2.22386 4 2 4.22386 2 4.5V13.5C2 13.7761 2.22386 14 2.5 14H11.5C11.7761 14 12 13.7761 12 13.5V13ZM4 2.5C4 2.22386 4.22386 2 4.5 2H5V5C5 5.55228 5.44772 6 6 6H12C12.5523 6 13 5.55228 13 5V2H13.2929L14 2.70711V11.5C14 11.7761 13.7761 12 13.5 12H13V8C13 7.44771 12.5523 7 12 7H6C5.44772 7 5 7.44772 5 8V12H4.5C4.22386 12 4 11.7761 4 11.5V2.5ZM12 2H11V5H12V2ZM10 2V5H6V2H10ZM6 12H12V8H6V12Z" fill="#377AB5" class="Blue"/>
<path opacity="0.2" fill-rule="evenodd" clip-rule="evenodd" d="M12 13H4.5C3.67157 13 3 12.3284 3 11.5V4H2.5C2.22386 4 2 4.22386 2 4.5V13.5C2 13.7761 2.22386 14 2.5 14H11.5C11.7761 14 12 13.7761 12 13.5V13Z" fill="#377AB5" class="Blue"/>
</svg>
