<svg width="16" height="16" viewBox="0 0 16 16" fill="none" xmlns="http://www.w3.org/2000/svg">
<g opacity="0.72">
<path fill-rule="evenodd" clip-rule="evenodd" d="M6.14645 0.14645C6.27064 0.0222594 6.45088 -0.0276652 6.62127 0.0149317L14.6213 2.01493C14.8439 2.07058 15 2.27057 15 2.5V10.4059C14.9915 10.392 14.9853 10.3789 14.9819 10.3665C14.9338 10.1929 14.796 10.0586 14.6213 10.0149L14 9.85962V3.70711L10 7.70711V8.85962L9 8.60962V7.89039L6.75 7.32789V8.04712L6.62126 8.01493C6.49383 7.98307 6.36089 8.00297 6.25 8.06698V7.20289L2 6.14039V12.2929L1.14644 13.1465C1.05234 13.2405 1.00101 13.3667 1 13.4961V5.5C1 5.36739 1.05268 5.24022 1.14645 5.14645L6.14645 0.14645ZM6.75 6.29711L9.34663 6.94627L13.522 2.77089L6.75 1.07789V6.29711ZM6.25 1.45711V6.17211L2.478 5.22911L6.25 1.45711Z" fill="#404040" class="Black"/>
<path d="M1.00091 13.5303C1.00021 13.5189 0.999911 13.5075 1 13.4961V13.5C1 13.5102 1.0003 13.5203 1.00091 13.5303Z" fill="#404040" class="Black"/>
<path d="M1.00091 13.5303C1.00794 13.6478 1.05554 13.7544 1.12989 13.8362C1.07816 13.7792 1.03939 13.7102 1.01814 13.6335C1.0087 13.5994 1.003 13.5648 1.00091 13.5303Z" fill="#404040" class="Black"/>
<path d="M1.37873 13.9851L1.38884 13.9876C1.30889 13.9695 1.23622 13.9321 1.17591 13.8808C1.23361 13.9299 1.30267 13.9661 1.37873 13.9851Z" fill="#404040" class="Black"/>
</g>
<g opacity="0.88">
<path d="M9 8.60962L6.62126 8.01493C6.45088 7.97233 6.27063 8.02226 6.14644 8.14645L1.14644 13.1464C1.01907 13.2738 0.970055 13.4599 1.01814 13.6335C1.06622 13.8071 1.20397 13.9414 1.37873 13.9851L9.29359 15.9638C9.12043 15.8823 9 15.7025 9 15.5V8.60962Z" fill="#377AB5" class="Blue"/>
<path d="M9.88909 15.818L14.8535 10.8536C14.9809 10.7262 15.0299 10.5401 14.9819 10.3665C14.9338 10.1929 14.796 10.0586 14.6213 10.0149L10 8.85962V15.5C10 15.619 9.95846 15.7301 9.88909 15.818Z" fill="#377AB5" class="Blue"/>
</g>
</svg>
