<svg width="16" height="16" viewBox="0 0 16 16" fill="none" xmlns="http://www.w3.org/2000/svg">
<g opacity="0.88">
<path d="M6 3C4.89543 3 4 3.89543 4 5V6C4 7.10457 4.89543 8 6 8H7C7.55228 8 8 7.55228 8 7V5.5C8 5.22386 7.77614 5 7.5 5H6.5C6.22386 5 6 5.22386 6 5.5C6 5.77614 6.22386 6 6.5 6H7V7H6C5.44772 7 5 6.55228 5 6V5C5 4.44772 5.44772 4 6 4H7.5C7.77614 4 8 3.77614 8 3.5C8 3.22386 7.77614 3 7.5 3H6Z" fill="#377AB5" class="Blue"/>
<path fill-rule="evenodd" clip-rule="evenodd" d="M5.5 0C5.36739 0 5.24021 0.0526784 5.14645 0.146447L0.146447 5.14645C0.0526784 5.24021 0 5.36739 0 5.5V11.5C0 11.7761 0.223858 12 0.5 12H1.29289L5.14645 15.8536C5.24021 15.9473 5.36739 16 5.5 16H10.5C10.6326 16 10.7598 15.9473 10.8536 15.8536L14.7071 12H15.5C15.7761 12 16 11.7761 16 11.5V4.5C16 4.22386 15.7761 4 15.5 4H14.7071L10.8536 0.146447C10.7598 0.0526784 10.6326 0 10.5 0H5.5ZM1 11V5.70711L5.70711 1H10.2929L13.2929 4H11V2.5C11 2.22386 10.7761 2 10.5 2C10.2239 2 10 2.22386 10 2.5V11.5L6 9V11H1ZM10 11.5V13.5C10 13.7761 10.2239 14 10.5 14C10.7761 14 11 13.7761 11 13.5V12H13.2929L10.2929 15H5.70711L2.70711 12H6V14L10 11.5ZM11 11H15V5H11V11Z" fill="#377AB5" class="Blue"/>
</g>
</svg>
