<svg width="16" height="16" viewBox="0 0 16 16" fill="none" xmlns="http://www.w3.org/2000/svg">
  <path opacity="0.72" fill-rule="evenodd" clip-rule="evenodd" d="M8.5 2C8.77614 2 9 2.22386 9 2.5V3.5C9 3.77614 8.77614 4 8.5 4C8.22386 4 8 3.77614 8 3.5V2.5C8 2.22386 8.22386 2 8.5 2ZM8.5 5C8.77614 5 9 5.22386 9 5.5V6.5C9 6.77614 8.77614 7 8.5 7C8.22386 7 8 6.77614 8 6.5V5.5C8 5.22386 8.22386 5 8.5 5ZM8.5 8C8.77614 8 9 8.22386 9 8.5V9.5C9 9.77614 8.77614 10 8.5 10C8.22386 10 8 9.77614 8 9.5V8.5C8 8.22386 8.22386 8 8.5 8Z" fill="#404040" class="Black" />
  <path opacity="0.88" fill-rule="evenodd" clip-rule="evenodd" d="M8.5 13C8.77614 13 9 12.7761 9 12.5C9 12.2239 8.77614 12 8.5 12C8.22386 12 8 12.2239 8 12.5C8 12.7761 8.22386 13 8.5 13ZM8.5 14C9.32843 14 10 13.3284 10 12.5C10 11.6716 9.32843 11 8.5 11C7.67157 11 7 11.6716 7 12.5C7 13.3284 7.67157 14 8.5 14Z" fill="#D04D2F" class="Red" />
  <g opacity="0.72">
    <path d="M1 2.5C1 2.22386 0.776142 2 0.5 2C0.223858 2 0 2.22386 0 2.5V13C0 13.5523 0.447715 14 1 14H6.49982C6.28146 13.7093 6.125 13.3694 6.05001 13H1V2.5Z" fill="#404040" class="Black" />
    <path d="M10.95 13C10.875 13.3694 10.7185 13.7093 10.5002 14H15.5C15.7761 14 16 13.7761 16 13.5C16 13.2239 15.7761 13 15.5 13H10.95Z" fill="#404040" class="Black" />
  </g>
  <g opacity="0.88">
    <path d="M6.20275 11.5122C4.48386 10.7067 3.45658 9.01888 2.83635 7.32784C2.74126 7.06859 2.45401 6.9355 2.19476 7.03059C1.9355 7.12568 1.80242 7.41293 1.8975 7.67218C2.57781 9.52704 3.81076 11.603 6.00008 12.5202C6.00003 12.5135 6 12.5067 6 12.5C6 12.1492 6.07227 11.8152 6.20275 11.5122Z" fill="#4DAE89" class="green" />
    <path d="M10.9999 12.5197C12.9872 11.6867 14.1878 9.89922 14.899 8.19232C15.3864 7.02275 15.6603 5.85952 15.8128 4.9929C15.8892 4.55841 15.9356 4.19559 15.963 3.94C15.9767 3.81214 15.9856 3.71092 15.9912 3.64078C15.994 3.6057 15.996 3.57838 15.9972 3.55936L15.9987 3.53712L15.9991 3.5308L15.9992 3.52886C15.9992 3.52886 15.9992 3.52775 15.5 3.50001L15.9992 3.52775C16.0145 3.25203 15.8035 3.0161 15.5277 3.00078C15.2521 2.98547 15.0162 3.19642 15.0008 3.472L15.0006 3.47595L14.9995 3.49231C14.9985 3.50734 14.9968 3.53056 14.9944 3.5614C14.9895 3.62309 14.9813 3.71523 14.9687 3.83347C14.9433 4.07006 14.8999 4.41036 14.8279 4.81963C14.6835 5.64051 14.4261 6.72728 13.976 7.80771C13.3404 9.33294 12.3526 10.7841 10.7974 11.5126C10.9278 11.8155 11 12.1493 11 12.5C11 12.5066 11 12.5131 10.9999 12.5197Z" fill="#4DAE89" class="green" />
  </g>
</svg>