<svg width="16" height="16" viewBox="0 0 16 16" fill="none" xmlns="http://www.w3.org/2000/svg">
<path opacity="0.88" fill-rule="evenodd" clip-rule="evenodd" d="M2.5 1C1.67157 1 1 1.67157 1 2.5V11.5C1 12.3284 1.67157 13 2.5 13H6V12H4V8H7.55693L8.75693 7H4C3.44772 7 3 7.44772 3 8V12H2.5C2.22386 12 2 11.7761 2 11.5V2.5C2 2.22386 2.22386 2 2.5 2H3V5C3 5.55228 3.44772 6 4 6H10C10.5523 6 11 5.55228 11 5V2H11.0858C11.2184 2 11.3456 2.05268 11.4393 2.14645L11.8536 2.56066C11.9473 2.65443 12 2.78161 12 2.91421V6.32884L13 6.57884V2.91421C13 2.51639 12.842 2.13486 12.5607 1.85355L12.1464 1.43934C11.8651 1.15804 11.4836 1 11.0858 1H2.5ZM4 5V2H8V5H4ZM9 5V2H10V5H9Z" fill="#377AB5" class="Blue"/>
<path opacity="0.2" d="M2.5 2C2.22386 2 2 2.22386 2 2.5V11.5C2 11.7761 2.22386 12 2.5 12H3V8C3 7.44772 3.44772 7 4 7H8.75693L9.53972 6.34767C9.90747 6.04122 10.3994 5.92869 10.8638 6.04479L12 6.32884V2.91421C12 2.78161 11.9473 2.65443 11.8536 2.56066L11.4393 2.14645C11.3456 2.05268 11.2184 2 11.0858 2H11V5C11 5.55228 10.5523 6 10 6H4C3.44772 6 3 5.55228 3 5V2H2.5Z" fill="#377AB5" class="Blue"/>
<path opacity="0.72" fill-rule="evenodd" clip-rule="evenodd" d="M10.1799 7.11587C10.3025 7.01371 10.4665 6.9762 10.6213 7.0149L14.6213 8.01492C14.8439 8.07057 15 8.27056 15 8.49999V12.5C15 12.6484 14.9341 12.7891 14.8201 12.8841L11.8201 15.3841C11.6975 15.4863 11.5335 15.5238 11.3787 15.4851L7.37873 14.4851C7.15615 14.4294 7 14.2295 7 14V10C7 9.85163 7.06591 9.71091 7.1799 9.61591L10.1799 7.11587ZM10.625 8.04663L8.57652 9.75376L11.375 10.4534L13.4235 8.74624L10.625 8.04663ZM12 11.2342V13.9325L14 12.2658V9.56752L12 11.2342ZM11 14.3596V11.3904L8 10.6404V13.6096L11 14.3596Z" fill="#404040" class="Black"/>
</svg>
