<svg width="16" height="16" viewBox="0 0 16 16" fill="none" xmlns="http://www.w3.org/2000/svg">
<g opacity="0.72">
<path d="M6.14645 0.14645C6.27063 0.0222594 6.45088 -0.0276652 6.62127 0.0149317L14.6213 2.01493C14.8438 2.07058 15 2.27057 15 2.5V10.5C15 10.6326 14.9473 10.7598 14.8536 10.8536L9.85355 15.8536C9.72242 15.9847 9.53658 16.0278 9.36952 15.9828L9.37873 15.9851C9.5281 16.0224 9.68635 15.9889 9.8077 15.8941C9.92906 15.7993 10 15.654 10 15.5V14.2929L13.7282 10.5647L10 9.63269V9.11731L14 10.1173V3.70711L10 7.70711V7.5C10 7.27056 9.84385 7.07057 9.62127 7.01493L9.34663 6.94627L13.522 2.77089L6.75 1.07789V6.29711L6.25 6.17211V1.45711L2.478 5.22911L1.62127 5.01493C1.4719 4.97758 1.31365 5.01114 1.19229 5.10589C1.17685 5.11795 1.16222 5.13083 1.14846 5.14444L6.14645 0.14645Z" fill="#404040" class="Black"/>
<path d="M1.00055 5.4765C1.00605 5.35941 1.05249 5.24861 1.13068 5.16294C1.0492 5.25207 1.00583 5.36356 1.00055 5.4765Z" fill="#404040" class="Black"/>
</g>
<path opacity="0.88" fill-rule="evenodd" clip-rule="evenodd" d="M1.19229 5.10589C1.31365 5.01114 1.4719 4.97758 1.62127 5.01493L9.62127 7.01493C9.84385 7.07057 10 7.27056 10 7.5V15.5C10 15.654 9.92906 15.7993 9.80771 15.8941C9.68635 15.9889 9.5281 16.0224 9.37873 15.9851L1.37873 13.9851C1.15615 13.9294 1 13.7294 1 13.5V5.5C1 5.34603 1.07094 5.20065 1.19229 5.10589Z" fill="#377AB5" class="Blue"/>
</svg>
