<svg width="16" height="16" viewBox="0 0 16 16" fill="none" xmlns="http://www.w3.org/2000/svg">
  <g opacity="0.88">
    <path d="M7.50299 10.055C7.53101 10.308 7.745 10.5 8 10.5C8.255 10.5 8.46899 10.308 8.49701 10.055L8.95203 5.961C8.979 5.716 8.901 5.472 8.73602 5.288C8.57202 5.104 8.33801 5 8.091 5H7.909C7.66199 5 7.42798 5.104 7.26398 5.288C7.099 5.472 7.021 5.716 7.04797 5.961L7.50299 10.055Z" fill="#EEB764" class="style2" />
    <path d="M9 12C9 11.447 8.552 11 8 11C7.448 11 7 11.447 7 12C7 12.552 7.448 13 8 13C8.552 13 9 12.552 9 12Z" fill="#EEB764" class="style2" />
    <path fill-rule="evenodd" clip-rule="evenodd" d="M14.998 15H1.002C0.643977 15 0.312007 14.808 0.133967 14.498C-0.0449882 14.188 -0.0440115 13.806 0.135981 13.497L7.13299 1.49202C7.31298 1.18402 7.643 0.994019 7.99999 0.994019C8.35699 0.994019 8.687 1.18402 8.86699 1.49202L15.864 13.497C16.044 13.806 16.045 14.188 15.866 14.498C15.688 14.808 15.356 15 14.998 15ZM7.99999 1.99402L1.002 14H14.998L7.99999 1.99402Z" fill="#EEB764" class="style2" />
  </g>
  <g opacity="0.4">
    <path d="M7.50299 10.055C7.53101 10.308 7.745 10.5 8 10.5C8.255 10.5 8.46899 10.308 8.49701 10.055L8.95203 5.961C8.979 5.716 8.901 5.472 8.73602 5.288C8.57202 5.104 8.33801 5 8.091 5H7.909C7.66199 5 7.42798 5.104 7.26398 5.288C7.099 5.472 7.021 5.716 7.04797 5.961L7.50299 10.055Z" fill="#D04D2F" class="Red" />
    <path d="M9 12C9 11.447 8.552 11 8 11C7.448 11 7 11.447 7 12C7 12.552 7.448 13 8 13C8.552 13 9 12.552 9 12Z" fill="#D04D2F" class="Red" />
    <path fill-rule="evenodd" clip-rule="evenodd" d="M14.998 15H1.002C0.643977 15 0.312007 14.808 0.133967 14.498C-0.0449882 14.188 -0.0440115 13.806 0.135981 13.497L7.13299 1.49202C7.31298 1.18402 7.643 0.994019 7.99999 0.994019C8.35699 0.994019 8.687 1.18402 8.86699 1.49202L15.864 13.497C16.044 13.806 16.045 14.188 15.866 14.498C15.688 14.808 15.356 15 14.998 15ZM7.99999 1.99402L1.002 14H14.998L7.99999 1.99402Z" fill="#D04D2F" class="Red" />
  </g>
</svg>