<svg width="16" height="16" viewBox="0 0 16 16" fill="none" xmlns="http://www.w3.org/2000/svg">
<g opacity="0.88">
<path d="M4.5 1C5.32843 1 6 1.67157 6 2.5V3C7.10457 3 8 3.89543 8 5C8 5.59735 7.73812 6.13353 7.32291 6.5C7.73812 6.86647 8 7.40265 8 8C8 8.59735 7.73812 9.13353 7.32291 9.5C7.73812 9.86647 8 10.4027 8 11C8 12.1046 7.10457 13 6 13V13.5C6 14.3284 5.32843 15 4.5 15H3.5C3.22386 15 3 14.7761 3 14.5C3 14.2239 3.22386 14 3.5 14H4.5C4.77614 14 5 13.7761 5 13.5V12.5C5 12.2239 5.22386 12 5.5 12H6C6.55228 12 7 11.5523 7 11C7 10.4477 6.55228 10 6 10H5C4.72386 10 4.5 9.77614 4.5 9.5C4.5 9.22386 4.72386 9 5 9H6C6.55228 9 7 8.55228 7 8C7 7.44772 6.55228 7 6 7H5C4.72386 7 4.5 6.77614 4.5 6.5C4.5 6.22386 4.72386 6 5 6H6C6.55228 6 7 5.55228 7 5C7 4.44772 6.55228 4 6 4H5.5C5.22386 4 5 3.77614 5 3.5V2.5C5 2.22386 4.77614 2 4.5 2H3.5C3.22386 2 3 1.77614 3 1.5C3 1.22386 3.22386 1 3.5 1H4.5Z" fill="#377AB5" class="Blue"/>
<path d="M13.5 1C12.6716 1 12 1.67157 12 2.5V3C10.8954 3 10 3.89543 10 5C10 5.59735 10.2619 6.13353 10.6771 6.5C10.2619 6.86647 10 7.40265 10 8C10 8.59735 10.2619 9.13353 10.6771 9.5C10.2619 9.86647 10 10.4027 10 11C10 12.1046 10.8954 13 12 13V13.5C12 14.3284 12.6716 15 13.5 15H14.5C14.7761 15 15 14.7761 15 14.5C15 14.2239 14.7761 14 14.5 14H13.5C13.2239 14 13 13.7761 13 13.5V12.5C13 12.2239 12.7761 12 12.5 12H12C11.4477 12 11 11.5523 11 11C11 10.4477 11.4477 10 12 10H13C13.2761 10 13.5 9.77614 13.5 9.5C13.5 9.22386 13.2761 9 13 9H12C11.4477 9 11 8.55228 11 8C11 7.44772 11.4477 7 12 7H13C13.2761 7 13.5 6.77614 13.5 6.5C13.5 6.22386 13.2761 6 13 6H12C11.4477 6 11 5.55228 11 5C11 4.44772 11.4477 4 12 4H12.5C12.7761 4 13 3.77614 13 3.5V2.5C13 2.22386 13.2239 2 13.5 2H14.5C14.7761 2 15 1.77614 15 1.5C15 1.22386 14.7761 1 14.5 1H13.5Z" fill="#377AB5" class="Blue"/>
</g>
</svg>
