<svg width="16" height="16" viewBox="0 0 16 16" fill="none" xmlns="http://www.w3.org/2000/svg">
<path opacity="0.72" fill-rule="evenodd" clip-rule="evenodd" d="M10 5.5C10 5.22386 10.2239 5 10.5 5H13.5C14.3284 5 15 5.67157 15 6.5V13.5C15 14.3284 14.3284 15 13.5 15H6.5C5.67157 15 5 14.3284 5 13.5V11.5C5 11.2239 5.22386 11 5.5 11C5.77614 11 6 11.2239 6 11.5V13.5C6 13.7761 6.22386 14 6.5 14H13.5C13.7761 14 14 13.7761 14 13.5V6.5C14 6.22386 13.7761 6 13.5 6H10.5C10.2239 6 10 5.77614 10 5.5Z" fill="#404040" class="Black"/>
<path opacity="0.88" fill-rule="evenodd" clip-rule="evenodd" d="M4.95668 1.27274L1.75213 10H2.86009L3.73747 7.52842H7.26679L8.14418 10H9.25213L6.04759 1.27274H4.95668ZM6.93399 6.59092L5.53622 2.65342H5.46804L4.07027 6.59092H6.93399Z" fill="#377AB5" class="Blue"/>
</svg>
