<svg width="16" height="16" viewBox="0 0 16 16" fill="none" xmlns="http://www.w3.org/2000/svg">
<path opacity="0.88" fill-rule="evenodd" clip-rule="evenodd" d="M5 7H4C3.448 7 3 7.447 3 8V15C3 15.552 3.448 16 4 16C5.70697 16 11.293 16 13 16C13.552 16 14 15.552 14 15V8C14 7.447 13.552 7 13 7H12V3.5C12 2.571 11.631 1.681 10.975 1.025C10.318 0.368 9.42798 0 8.5 0C7.57202 0 6.68201 0.368 6.02502 1.025C5.36902 1.681 5 2.571 5 3.5V7ZM4 8H13V15H4V8ZM11 7V3.5C11 2.837 10.737 2.201 10.268 1.732C9.79901 1.263 9.16302 1 8.5 1C7.83698 1 7.20099 1.263 6.73199 1.732C6.263 2.201 6 2.837 6 3.5V7H11Z" fill="#D04D2F" class="Red"/>
<path opacity="0.15" fill-rule="evenodd" clip-rule="evenodd" d="M4 8H13V15H4V8Z" fill="#D04D2F" class="Red"/>
</svg>
