<svg width="16" height="16" viewBox="0 0 16 16" fill="none" xmlns="http://www.w3.org/2000/svg">
  <path opacity="0.88" fill-rule="evenodd" clip-rule="evenodd" d="M3.5 1C2.67157 1 2 1.67157 2 2.5V5.5V12.5C2 13.3284 2.67157 14 3.5 14H7.75777C7.55127 13.6915 7.3819 13.356 7.25606 13H3.5C3.22386 13 3 12.7761 3 12.5V6H13V7.25606C13.356 7.3819 13.6915 7.55127 14 7.75777V5.5V4.5C14 3.67157 13.3284 3 12.5 3H8.61803C8.42865 3 8.25552 2.893 8.17082 2.72361L7.72361 1.82918C7.46952 1.321 6.95012 1 6.38197 1H3.5ZM3 2.5C3 2.22386 3.22386 2 3.5 2H6.38197C6.57135 2 6.74448 2.107 6.82918 2.27639L7.27639 3.17082C7.53048 3.679 8.04988 4 8.61803 4H12.5C12.7761 4 13 4.22386 13 4.5V5H3V2.5Z" fill="#EEB764" class="style2" />
  <path opacity="0.24" fill-rule="evenodd" clip-rule="evenodd" d="M3.5 1C2.67157 1 2 1.67157 2 2.5V5.5V12.5C2 13.3284 2.67157 14 3.5 14H7.75777C7.55127 13.6915 7.3819 13.356 7.25606 13H3.5C3.22386 13 3 12.7761 3 12.5V6H13V7.25606C13.356 7.3819 13.6915 7.55127 14 7.75777V5.5V4.5C14 3.67157 13.3284 3 12.5 3H8.61803C8.42865 3 8.25552 2.893 8.17082 2.72361L7.72361 1.82918C7.46952 1.321 6.95012 1 6.38197 1H3.5ZM3 2.5C3 2.22386 3.22386 2 3.5 2H6.38197C6.57135 2 6.74448 2.107 6.82918 2.27639L7.27639 3.17082C7.53048 3.679 8.04988 4 8.61803 4H12.5C12.7761 4 13 4.22386 13 4.5V5H3V2.5Z" fill="#D04D2F" class="Red" />
  <path opacity="0.24" fill-rule="evenodd" clip-rule="evenodd" d="M13 6H3V12.5C3 12.7761 3.22386 13 3.5 13H7.25606C7.09023 12.5308 7 12.026 7 11.5C7 9.01472 9.01472 7 11.5 7C12.026 7 12.5308 7.09023 13 7.25606V6Z" fill="#EEB764" class="style2" />
  <path opacity="0.72" fill-rule="evenodd" clip-rule="evenodd" d="M15 11.5C15 13.433 13.433 15 11.5 15C9.567 15 8 13.433 8 11.5C8 9.567 9.567 8 11.5 8C13.433 8 15 9.567 15 11.5ZM11 9.5C11 9.22386 11.2239 9 11.5 9C11.7761 9 12 9.22386 12 9.5V11H13.5C13.7761 11 14 11.2239 14 11.5C14 11.7761 13.7761 12 13.5 12H12V13.5C12 13.7761 11.7761 14 11.5 14C11.2239 14 11 13.7761 11 13.5V12H9.5C9.22386 12 9 11.7761 9 11.5C9 11.2239 9.22386 11 9.5 11H11V9.5Z" fill="#404040" class="Black" />
</svg>