<svg width="16" height="16" viewBox="0 0 16 16" fill="none" xmlns="http://www.w3.org/2000/svg">
<g opacity="0.88">
<path d="M3.75735 3.75736C6.01658 1.49814 9.62922 1.41722 11.9854 3.51461L10.5 5L15 6L14 1.5L12.6935 2.80646C9.94582 0.319154 5.70008 0.400418 3.05025 3.05025C1.82074 4.27976 1.14389 5.8541 1.0206 7.46177C0.999485 7.7371 1.20557 7.97742 1.4809 7.99854C1.75624 8.01965 1.99656 7.81356 2.01767 7.53823C2.12339 6.15964 2.70298 4.81173 3.75735 3.75736Z" fill="#377AB5" class="Blue"/>
<path d="M14.5191 8.00146C14.7944 8.02258 15.0005 8.2629 14.9794 8.53823C14.8561 10.1459 14.1793 11.7202 12.9497 12.9497C10.2999 15.5996 6.05417 15.6808 3.30645 13.1935L2 14.5L1 10L5.5 11L4.0146 12.4854C6.37077 14.5828 9.98342 14.5019 12.2426 12.2426C13.297 11.1883 13.8766 9.84036 13.9823 8.46177C14.0034 8.18644 14.2437 7.98035 14.5191 8.00146Z" fill="#377AB5" class="Blue"/>
</g>
</svg>
