<svg width="16" height="16" viewBox="0 0 16 16" fill="none" xmlns="http://www.w3.org/2000/svg">
<path opacity="0.88" d="M3 8.4C3 7.6268 3.6268 7 4.4 7H4.6C5.3732 7 6 7.6268 6 8.4V8.5C6 8.77614 6.22386 9 6.5 9C6.77614 9 7 8.77614 7 8.5V8.4C7 7.6268 7.6268 7 8.4 7H8.6C9.3732 7 10 7.6268 10 8.4V8.5C10 8.77614 10.2239 9 10.5 9C10.7761 9 11 8.77614 11 8.5V8.4C11 7.6268 11.6268 7 12.4 7H12.6C13.3732 7 14 7.6268 14 8.4V8.5C14 8.77614 14.2239 9 14.5 9H15.5C15.7761 9 16 8.77614 16 8.5C16 8.22386 15.7761 8 15.5 8H14.9668C14.7764 6.86491 13.7892 6 12.6 6H12.4C11.6268 6 10.9389 6.36567 10.5 6.93352C10.0611 6.36567 9.37324 6 8.6 6H8.4C7.62676 6 6.93893 6.36567 6.5 6.93352C6.06107 6.36567 5.37324 6 4.6 6H4.4C3.2108 6 2.22361 6.86491 2.03318 8H1.5C1.22386 8 1 8.22386 1 8.5C1 8.77614 1.22386 9 1.5 9H2.5C2.77614 9 3 8.77614 3 8.5V8.4Z" fill="#377AB5" class="Blue"/>
</svg>
