<svg width="16" height="16" viewBox="0 0 16 16" fill="none" xmlns="http://www.w3.org/2000/svg">
  <path opacity="0.72" fill-rule="evenodd" clip-rule="evenodd" d="M0.5 2C0.776142 2 1 2.22386 1 2.5V13H15.5C15.7761 13 16 13.2239 16 13.5C16 13.7761 15.7761 14 15.5 14H1C0.447715 14 0 13.5523 0 13V2.5C0 2.22386 0.223858 2 0.5 2Z" fill="#404040" class="Black" />
  <path opacity="0.88" fill-rule="evenodd" clip-rule="evenodd" d="M8.5 4C8.77614 4 9 3.77614 9 3.5C9 3.22386 8.77614 3 8.5 3C8.22386 3 8 3.22386 8 3.5C8 3.77614 8.22386 4 8.5 4ZM8.5 5C9.32843 5 10 4.32843 10 3.5C10 2.67157 9.32843 2 8.5 2C7.67157 2 7 2.67157 7 3.5C7 4.32843 7.67157 5 8.5 5Z" fill="#D04D2F" class="Red" />
  <path opacity="0.72" fill-rule="evenodd" clip-rule="evenodd" d="M8.5 6C8.77614 6 9 6.22386 9 6.5V7.5C9 7.77614 8.77614 8 8.5 8C8.22386 8 8 7.77614 8 7.5V6.5C8 6.22386 8.22386 6 8.5 6ZM8.5 9C8.77614 9 9 9.22386 9 9.5V10.5C9 10.7761 8.77614 11 8.5 11C8.22386 11 8 10.7761 8 10.5V9.5C8 9.22386 8.22386 9 8.5 9ZM8.5 12C8.77614 12 9 12.2239 9 12.5V13H8V12.5C8 12.2239 8.22386 12 8.5 12Z" fill="#404040" class="Black" />
  <g opacity="0.88">
    <path d="M10.7979 4.48645C10.9279 4.1838 11 3.85032 11 3.5C11 3.4938 11 3.4876 10.9999 3.4814C12.4225 4.07823 13.4461 5.16418 14.1713 6.36173C15.2555 8.15218 15.7015 10.2288 15.881 11.4258C15.922 11.6989 15.7338 11.9535 15.4607 11.9945C15.1876 12.0354 14.933 11.8473 14.8921 11.5742C14.7199 10.4264 14.2989 8.50307 13.3159 6.87971C12.7076 5.87526 11.896 5.00063 10.7979 4.48645Z" fill="#4DAE89" class="green" />
    <path d="M6.20275 4.48784C4.48386 5.29333 3.45658 6.98113 2.83635 8.67217C2.74126 8.93143 2.45401 9.06451 2.19476 8.96942C1.9355 8.87434 1.80242 8.58709 1.8975 8.32783C2.57781 6.47298 3.81076 4.397 6.00008 3.47983C6.00003 3.48655 6 3.49327 6 3.5C6 3.85085 6.07227 4.18483 6.20275 4.48784Z" fill="#4DAE89" class="green" />
  </g>
</svg>