<svg width="16" height="16" viewBox="0 0 16 16" fill="none" xmlns="http://www.w3.org/2000/svg">
  <path opacity="0.72" fill-rule="evenodd" clip-rule="evenodd" d="M0.5 2C0.776142 2 1 2.22386 1 2.5V13H15.5C15.7761 13 16 13.2239 16 13.5C16 13.7761 15.7761 14 15.5 14H1C0.447715 14 0 13.5523 0 13V2.5C0 2.22386 0.223858 2 0.5 2Z" fill="#404040" class="Black" />
  <path opacity="0.88" fill-rule="evenodd" clip-rule="evenodd" d="M8.5 8C8.77614 8 9 7.77614 9 7.5C9 7.22386 8.77614 7 8.5 7C8.22386 7 8 7.22386 8 7.5C8 7.77614 8.22386 8 8.5 8ZM8.5 9C9.32843 9 10 8.32843 10 7.5C10 6.67157 9.32843 6 8.5 6C7.67157 6 7 6.67157 7 7.5C7 8.32843 7.67157 9 8.5 9Z" fill="#D04D2F" class="Red" />
  <g opacity="0.88">
    <path d="M5.16669 3C6.19053 3 6.93216 3.66633 7.49226 4.46226C7.62728 4.65413 7.75668 4.86054 7.88145 5.07711C7.54931 5.16165 7.24373 5.31268 6.97973 5.51521C6.88048 5.34609 6.77902 5.18635 6.67445 5.03775C6.17899 4.33367 5.69841 4 5.16669 4C4.46546 4 3.8611 4.5877 3.2253 5.74134C3.09201 5.98318 2.78791 6.07119 2.54606 5.9379C2.30422 5.80461 2.21621 5.50051 2.3495 5.25866C2.97904 4.11639 3.83729 3 5.16669 3Z" fill="#4DAE89" class="green" />
    <path d="M9.11856 9.92289C9.24333 10.1395 9.37274 10.3459 9.50777 10.5378C10.0679 11.3337 10.8095 12 11.8333 12C13.1627 12 14.021 10.8836 14.6505 9.74133C14.7838 9.49949 14.6958 9.19538 14.454 9.0621C14.2121 8.92881 13.908 9.01682 13.7747 9.25867C13.1389 10.4123 12.5346 11 11.8333 11C11.3016 11 10.821 10.6664 10.3256 9.96228C10.221 9.81367 10.1195 9.65392 10.0203 9.48479C9.75627 9.68731 9.45069 9.83835 9.11856 9.92289Z" fill="#4DAE89" class="green" />
  </g>
  <g opacity="0.88">
    <path d="M10.95 8C10.9828 7.83845 11 7.67123 11 7.5C11 7.32877 10.9828 7.16155 10.95 7H15.5C15.7761 7 16 7.22386 16 7.5C16 7.77614 15.7761 8 15.5 8H10.95Z" fill="#D04D2F" class="Red" />
    <path d="M6.05001 8H1V7H6.05001C6.01722 7.16155 6 7.32877 6 7.5C6 7.67123 6.01722 7.83845 6.05001 8Z" fill="#D04D2F" class="Red" />
  </g>
</svg>