<svg width="16" height="16" viewBox="0 0 16 16" fill="none" xmlns="http://www.w3.org/2000/svg">
  <path opacity="0.88" fill-rule="evenodd" clip-rule="evenodd" d="M11.5 14C11.7761 14 12 13.7761 12 13.5C12 13.2239 11.7761 13 11.5 13C11.2239 13 11 13.2239 11 13.5C11 13.7761 11.2239 14 11.5 14ZM11.5 15C12.3284 15 13 14.3284 13 13.5C13 12.6716 12.3284 12 11.5 12C10.6716 12 10 12.6716 10 13.5C10 14.3284 10.6716 15 11.5 15Z" fill="#D04D2F" class="Red" />
  <path opacity="0.72" fill-rule="evenodd" clip-rule="evenodd" d="M11.5 3C11.7761 3 12 3.22386 12 3.5V4.5C12 4.77614 11.7761 5 11.5 5C11.2239 5 11 4.77614 11 4.5V3.5C11 3.22386 11.2239 3 11.5 3ZM11.5 6C11.7761 6 12 6.22386 12 6.5V7.5C12 7.77614 11.7761 8 11.5 8C11.2239 8 11 7.77614 11 7.5V6.5C11 6.22386 11.2239 6 11.5 6ZM11.5 9C11.7761 9 12 9.22386 12 9.5V10.5C12 10.7761 11.7761 11 11.5 11C11.2239 11 11 10.7761 11 10.5V9.5C11 9.22386 11.2239 9 11.5 9Z" fill="#404040" class="Black" />
  <g opacity="0.72">
    <path d="M1 2.5C1 2.22386 0.776142 2 0.5 2C0.223858 2 0 2.22386 0 2.5V13C0 13.5523 0.447715 14 1 14H9.05001C9.01721 13.8384 9 13.6712 9 13.5C9 13.3288 9.01721 13.1616 9.05001 13H1V2.5Z" fill="#404040" class="Black" />
    <path d="M13.95 13C13.9828 13.1616 14 13.3288 14 13.5C14 13.6712 13.9828 13.8384 13.95 14H15.5C15.7761 14 16 13.7761 16 13.5C16 13.2239 15.7761 13 15.5 13H13.95Z" fill="#404040" class="Black" />
  </g>
  <g opacity="0.88">
    <path d="M9.175 12.5793C9.08674 12.4581 9.00229 12.3329 8.92134 12.2051C8.30281 11.2284 7.78887 9.94354 7.29788 8.71602L7.28576 8.68572C6.78042 7.42237 6.29772 6.22039 5.73384 5.33006C5.16128 4.42602 4.60407 4.00003 4 4.00003C3.44688 4.00003 2.93296 4.35532 2.40536 5.11934C1.89556 5.85759 1.45016 6.86764 1 7.97509V5.53272C1.18382 5.17987 1.37703 4.84865 1.5825 4.5511C2.17341 3.69541 2.9487 3.00003 4 3.00003C5.14593 3.00003 5.96372 3.82404 6.57866 4.795C7.19719 5.77163 7.71113 7.05652 8.20212 8.28404L8.21424 8.31433C8.71958 9.57769 9.20228 10.7797 9.76616 11.67C9.76997 11.676 9.77379 11.682 9.7776 11.688C9.51698 11.9358 9.30977 12.2392 9.175 12.5793Z" fill="#4DAE89" class="green" />
    <path d="M13.825 12.5792C13.6902 12.2392 13.483 11.9358 13.2224 11.688C13.263 11.6244 13.3036 11.5584 13.3442 11.49C13.8654 10.6139 14.3158 9.48837 14.7849 8.31623C14.8517 8.14927 14.919 7.98132 14.9868 7.81305C15.09 7.55693 15.3814 7.43301 15.6375 7.53626C15.8936 7.63951 16.0175 7.93083 15.9143 8.18694C15.8483 8.35049 15.7822 8.51592 15.7157 8.68228L15.7153 8.68332C15.251 9.84451 14.7682 11.0522 14.2037 12.0013C14.0853 12.2002 13.9594 12.3946 13.825 12.5792Z" fill="#4DAE89" class="green" />
    <path d="M0 7.86593C-0.000175873 7.87357 -0.000175079 7.88119 0 7.8888V7.86593Z" fill="#4DAE89" class="green" />
  </g>
</svg>