<svg width="16" height="16" viewBox="0 0 16 16" fill="none" xmlns="http://www.w3.org/2000/svg">
<path opacity="0.88" fill-rule="evenodd" clip-rule="evenodd" d="M8.5 2C8.22386 2 8 2.22386 8 2.5V5H6.625L8.5 8H3.5C3.22386 8 3 8.22386 3 8.5V10H1.5C1.22386 10 1 10.2239 1 10.5C1 10.7761 1.22386 11 1.5 11H3V12.5C3 12.7761 3.22386 13 3.5 13H13.5C13.7761 13 14 12.7761 14 12.5V11H15.5C15.7761 11 16 10.7761 16 10.5C16 10.2239 15.7761 10 15.5 10H14V8.5C14 8.22386 13.7761 8 13.5 8H8.5L10.375 5H9V3H15.5C15.7761 3 16 2.77614 16 2.5C16 2.22386 15.7761 2 15.5 2H8.5ZM4 9V12H13V9H4Z" fill="#377AB5" class="Blue"/>
</svg>
