<svg width="16" height="16" viewBox="0 0 16 16" fill="none" xmlns="http://www.w3.org/2000/svg">
<path opacity="0.88" fill-rule="evenodd" clip-rule="evenodd" d="M6.14644 0.14645C6.27063 0.0222594 6.45088 -0.0276652 6.62126 0.0149317L14.6213 2.01493C14.796 2.05862 14.9338 2.19294 14.9819 2.36654C15.0299 2.54014 14.9809 2.72618 14.8535 2.85356L9.85355 7.85356C9.72936 7.97775 9.54912 8.02767 9.37873 7.98507L1.37873 5.98507C1.20397 5.94138 1.06622 5.80707 1.01814 5.63347C0.970055 5.45987 1.01907 5.27382 1.14644 5.14645L6.14644 0.14645Z" fill="#377AB5" class="Blue"/>
<g opacity="0.72">
<path d="M14.9819 2.36653L14.9804 2.3608C14.9904 2.39556 14.9968 2.43187 14.9991 2.46929C14.9969 2.43492 14.9913 2.40049 14.9819 2.36653Z" fill="#404040" class="Black"/>
<path fill-rule="evenodd" clip-rule="evenodd" d="M1 13.5V5.56779L1.01368 5.61742L1.01814 5.63347C1.06622 5.80707 1.20397 5.94138 1.37873 5.98507L2 6.14039V12.6464L6.25 8.39644V7.20289L6.75 7.32789V8.3048L9 8.8673V7.89039L9.37873 7.98507C9.54912 8.02767 9.72936 7.97774 9.85355 7.85355L10 7.7071V9.1173L14 10.1173V3.7071L14.8536 2.85355C14.9479 2.75922 14.9992 2.63271 15 2.50291V10.5C15 10.6326 14.9473 10.7598 14.8536 10.8536L9.85355 15.8536C9.72936 15.9777 9.54912 16.0277 9.37873 15.9851L1.37873 13.9851C1.15615 13.9294 1 13.7294 1 13.5ZM13.7282 10.5647L10 9.63269V14.2929L13.7282 10.5647ZM9 9.38269L6.57669 8.77686L2.19515 13.1584L9 14.8596V9.38269Z" fill="#404040" class="Black"/>
</g>
</svg>
