<svg width="16" height="16" viewBox="0 0 16 16" fill="none" xmlns="http://www.w3.org/2000/svg">
  <path opacity="0.88" fill-rule="evenodd" clip-rule="evenodd" d="M2.5 1C1.67157 1 1 1.67157 1 2.5V13.5C1 14.3284 1.67157 15 2.5 15H11.3219C12.239 15 13.0598 14.4311 13.3818 13.5725L15.6135 7.62135C15.9077 6.83685 15.3277 6 14.4899 6H13V4.5C13 3.67157 12.3284 3 11.5 3H7.11803C6.92865 3 6.75552 2.893 6.67082 2.72361L6.22361 1.82918C5.96952 1.321 5.45012 1 4.88197 1H2.5ZM12 6V4.5C12 4.22386 11.7761 4 11.5 4H7.11803C6.54988 4 6.03048 3.679 5.77639 3.17082L5.32918 2.27639C5.24448 2.107 5.07135 2 4.88197 2H2.5C2.22386 2 2 2.22386 2 2.5V11.7427L3.61818 7.42753C3.94018 6.56886 4.76104 6 5.6781 6H12ZM2.5101 14C2.37046 14 2.2738 13.8605 2.32283 13.7298L4.5545 7.77865C4.73014 7.31029 5.17789 7 5.6781 7H14.4899C14.6295 7 14.7262 7.13947 14.6772 7.27022L12.4455 13.2213C12.2699 13.6897 11.8221 14 11.3219 14H2.5101Z" fill="#EEB764" class="style2" />
  <path opacity="0.24" fill-rule="evenodd" clip-rule="evenodd" d="M2.5 1C1.67157 1 1 1.67157 1 2.5V13.5C1 14.3284 1.67157 15 2.5 15H11.3219C12.239 15 13.0598 14.4311 13.3818 13.5725L15.6135 7.62135C15.9077 6.83685 15.3277 6 14.4899 6H13V4.5C13 3.67157 12.3284 3 11.5 3H7.11803C6.92865 3 6.75552 2.893 6.67082 2.72361L6.22361 1.82918C5.96952 1.321 5.45012 1 4.88197 1H2.5ZM12 6V4.5C12 4.22386 11.7761 4 11.5 4H7.11803C6.54988 4 6.03048 3.679 5.77639 3.17082L5.32918 2.27639C5.24448 2.107 5.07135 2 4.88197 2H2.5C2.22386 2 2 2.22386 2 2.5V11.7427L3.61818 7.42753C3.94018 6.56886 4.76104 6 5.6781 6H12ZM2.5101 14C2.37046 14 2.2738 13.8605 2.32283 13.7298L4.5545 7.77865C4.73014 7.31029 5.17789 7 5.6781 7H14.4899C14.6295 7 14.7262 7.13947 14.6772 7.27022L12.4455 13.2213C12.2699 13.6897 11.8221 14 11.3219 14H2.5101Z" fill="#D04D2F" class="Red" />
  <path opacity="0.24" d="M4.55451 7.77865C4.73014 7.31029 5.17789 7 5.6781 7H14.4899C14.6295 7 14.7262 7.13947 14.6772 7.27022L12.4455 13.2213C12.2699 13.6897 11.8221 14 11.3219 14H2.5101C2.37046 14 2.27381 13.8605 2.32284 13.7298L4.55451 7.77865Z" fill="#EEB764" class="style2" />
</svg>