<svg width="16" height="16" viewBox="0 0 16 16" fill="none" xmlns="http://www.w3.org/2000/svg">
<path opacity="0.88" fill-rule="evenodd" clip-rule="evenodd" d="M11.5 3C11.2239 3 11 3.22386 11 3.5V5.5C11 5.77614 11.2239 6 11.5 6H13.5C13.7761 6 14 5.77614 14 5.5V3.5C14 3.22386 13.7761 3 13.5 3H11.5ZM10 3.5C10 2.67157 10.6716 2 11.5 2H13.5C14.3284 2 15 2.67157 15 3.5V5.5C15 6.32843 14.3284 7 13.5 7H11.5C10.6716 7 10 6.32843 10 5.5V3.5Z" fill="#377AB5" class="Blue"/>
<path opacity="0.72" fill-rule="evenodd" clip-rule="evenodd" d="M1.5 2C0.671573 2 0 2.67157 0 3.5V5.5C0 6.32843 0.671573 7 1.5 7H3.5C4.32843 7 5 6.32843 5 5.5V3.5C5 2.67157 4.32843 2 3.5 2H1.5ZM1.5 3C1.22386 3 1 3.22386 1 3.5V5.5C1 5.77614 1.22386 6 1.5 6H3.5C3.77614 6 4 5.77614 4 5.5V3.5C4 3.22386 3.77614 3 3.5 3H1.5Z" fill="#404040" class="Black"/>
<path opacity="0.2" fill-rule="evenodd" clip-rule="evenodd" d="M11.5 3C11.2239 3 11 3.22386 11 3.5V5.5C11 5.77614 11.2239 6 11.5 6H13.5C13.7761 6 14 5.77614 14 5.5V3.5C14 3.22386 13.7761 3 13.5 3H11.5Z" fill="#377AB5" class="Blue"/>
<path opacity="0.88" fill-rule="evenodd" clip-rule="evenodd" d="M11.5 10C11.2239 10 11 10.2239 11 10.5V12.5C11 12.7761 11.2239 13 11.5 13H13.5C13.7761 13 14 12.7761 14 12.5V10.5C14 10.2239 13.7761 10 13.5 10H11.5ZM10 10.5C10 9.67157 10.6716 9 11.5 9H13.5C14.3284 9 15 9.67157 15 10.5V12.5C15 13.3284 14.3284 14 13.5 14H11.5C10.6716 14 10 13.3284 10 12.5V10.5Z" fill="#377AB5" class="Blue"/>
<path opacity="0.2" fill-rule="evenodd" clip-rule="evenodd" d="M11.5 10C11.2239 10 11 10.2239 11 10.5V12.5C11 12.7761 11.2239 13 11.5 13H13.5C13.7761 13 14 12.7761 14 12.5V10.5C14 10.2239 13.7761 10 13.5 10H11.5Z" fill="#377AB5" class="Blue"/>
<path opacity="0.12" d="M1.5 3C1.22386 3 1 3.22386 1 3.5V5.5C1 5.77614 1.22386 6 1.5 6H3.5C3.77614 6 4 5.77614 4 5.5V3.5C4 3.22386 3.77614 3 3.5 3H1.5Z" fill="#404040" class="Black"/>
<path opacity="0.72" fill-rule="evenodd" clip-rule="evenodd" d="M5.5 4.5C5.5 4.22386 5.72386 4 6 4H9C9.27614 4 9.5 4.22386 9.5 4.5C9.5 4.77614 9.27614 5 9 5H8V11H9C9.27614 11 9.5 11.2239 9.5 11.5C9.5 11.7761 9.27614 12 9 12H8C7.44772 12 7 11.5523 7 11V5H6C5.72386 5 5.5 4.77614 5.5 4.5Z" fill="#404040" class="Black"/>
</svg>
