<svg width="16" height="16" viewBox="0 0 16 16" fill="none" xmlns="http://www.w3.org/2000/svg">
<g opacity="0.88">
<path d="M9 5C9 4.72386 8.77614 4.5 8.5 4.5C8.22386 4.5 8 4.72386 8 5V6H7C6.72386 6 6.5 6.22386 6.5 6.5C6.5 6.77614 6.72386 7 7 7H8V8C8 8.27614 8.22386 8.5 8.5 8.5C8.77614 8.5 9 8.27614 9 8V7H10C10.2761 7 10.5 6.77614 10.5 6.5C10.5 6.22386 10.2761 6 10 6H9V5Z" fill="#377AB5" class="Blue"/>
<path d="M6.5 9.5C6.5 9.22386 6.72386 9 7 9H10C10.2761 9 10.5 9.22386 10.5 9.5C10.5 9.77614 10.2761 10 10 10H7C6.72386 10 6.5 9.77614 6.5 9.5Z" fill="#377AB5" class="Blue"/>
<path fill-rule="evenodd" clip-rule="evenodd" d="M9 0.5C9 0.223858 8.77614 0 8.5 0C8.22386 0 8 0.223858 8 0.5V2.02242C5.19675 2.27504 3 4.63098 3 7.5C3 10.369 5.19675 12.725 8 12.9776V14.5C8 14.7761 8.22386 15 8.5 15C8.77614 15 9 14.7761 9 14.5V12.9776C11.8033 12.725 14 10.369 14 7.5C14 4.63098 11.8033 2.27504 9 2.02242V0.5ZM8.5 12C10.9853 12 13 9.98528 13 7.5C13 5.01472 10.9853 3 8.5 3C6.01472 3 4 5.01472 4 7.5C4 9.98528 6.01472 12 8.5 12Z" fill="#377AB5" class="Blue"/>
</g>
</svg>
