<svg width="16" height="16" viewBox="0 0 16 16" fill="none" xmlns="http://www.w3.org/2000/svg">
  <path opacity="0.88" fill-rule="evenodd" clip-rule="evenodd" d="M11.5 14C11.7761 14 12 13.7761 12 13.5C12 13.2239 11.7761 13 11.5 13C11.2239 13 11 13.2239 11 13.5C11 13.7761 11.2239 14 11.5 14ZM11.5 15C12.3284 15 13 14.3284 13 13.5C13 12.6716 12.3284 12 11.5 12C10.6716 12 10 12.6716 10 13.5C10 14.3284 10.6716 15 11.5 15Z" fill="#D04D2F" class="Red" />
  <path opacity="0.88" fill-rule="evenodd" clip-rule="evenodd" d="M4.5 4C4.77614 4 5 3.77614 5 3.5C5 3.22386 4.77614 3 4.5 3C4.22386 3 4 3.22386 4 3.5C4 3.77614 4.22386 4 4.5 4ZM4.5 5C5.32843 5 6 4.32843 6 3.5C6 2.67157 5.32843 2 4.5 2C3.67157 2 3 2.67157 3 3.5C3 4.32843 3.67157 5 4.5 5Z" fill="#D04D2F" class="Red" />
  <path opacity="0.72" fill-rule="evenodd" clip-rule="evenodd" d="M11.5 3C11.7761 3 12 3.22386 12 3.5V4.5C12 4.77614 11.7761 5 11.5 5C11.2239 5 11 4.77614 11 4.5V3.5C11 3.22386 11.2239 3 11.5 3ZM11.5 6C11.7761 6 12 6.22386 12 6.5V7.5C12 7.77614 11.7761 8 11.5 8C11.2239 8 11 7.77614 11 7.5V6.5C11 6.22386 11.2239 6 11.5 6ZM11.5 9C11.7761 9 12 9.22386 12 9.5V10.5C12 10.7761 11.7761 11 11.5 11C11.2239 11 11 10.7761 11 10.5V9.5C11 9.22386 11.2239 9 11.5 9Z" fill="#404040" class="Black" />
  <g opacity="0.72">
    <path d="M13.95 14C13.9828 13.8384 14 13.6712 14 13.5C14 13.3288 13.9828 13.1616 13.95 13H15.5C15.7761 13 16 13.2239 16 13.5C16 13.7761 15.7761 14 15.5 14H13.95Z" fill="#404040" class="Black" />
    <path d="M9.05001 14H0.5C0.223858 14 0 13.7761 0 13.5C0 13.2239 0.223858 13 0.5 13H9.05001C9.01721 13.1616 9 13.3288 9 13.5C9 13.6712 9.01721 13.8384 9.05001 14Z" fill="#404040" class="Black" />
  </g>
  <g opacity="0.72">
    <path d="M5 6.5C5 6.22386 4.77614 6 4.5 6C4.22386 6 4 6.22386 4 6.5V7.5C4 7.77614 4.22386 8 4.5 8C4.77614 8 5 7.77614 5 7.5V6.5Z" fill="#404040" class="Black" />
    <path d="M5 9.5C5 9.22386 4.77614 9 4.5 9C4.22386 9 4 9.22386 4 9.5V10.5C4 10.7761 4.22386 11 4.5 11C4.77614 11 5 10.7761 5 10.5V9.5Z" fill="#404040" class="Black" />
    <path d="M5 12.5C5 12.2239 4.77614 12 4.5 12C4.22386 12 4 12.2239 4 12.5V13H5V12.5Z" fill="#404040" class="Black" />
  </g>
  <g opacity="0.88">
    <path d="M6.17185 5.35878C6.44155 5.11604 6.65815 4.81545 6.80209 4.47654C6.8745 4.58525 6.94372 4.69697 7.01001 4.81061C7.58116 5.78972 8.03155 7.07659 8.46064 8.30261L8.47193 8.33487C8.90711 9.57825 9.3222 10.7586 9.82813 11.6413C9.55842 11.884 9.34183 12.1846 9.19789 12.5235C9.12549 12.4148 9.05627 12.3031 8.98999 12.1895C8.41884 11.2104 7.96845 9.92349 7.53936 8.69746L7.52807 8.66522C7.09288 7.42182 6.67779 6.24148 6.17185 5.35878Z" fill="#4DAE89" class="green" />
    <path d="M13.825 12.5793C13.9594 12.3947 14.0853 12.2003 14.2037 12.0013C14.7682 11.0522 15.251 9.84453 15.7153 8.68333C15.7819 8.51663 15.8482 8.35085 15.9143 8.18696C16.0175 7.93084 15.8936 7.63952 15.6375 7.53628C15.3814 7.43303 15.09 7.55695 14.9868 7.81306C14.919 7.98133 14.8518 8.14924 14.7849 8.31621C14.3158 9.48836 13.8654 10.6139 13.3442 11.4901C13.3036 11.5584 13.263 11.6244 13.2224 11.688C13.483 11.9358 13.6902 12.2392 13.825 12.5793Z" fill="#4DAE89" class="green" />
    <path d="M2.17503 4.42081C2.30981 4.76082 2.51701 5.06423 2.7776 5.31202C2.73892 5.37271 2.70019 5.43555 2.66139 5.50058C2.13787 6.37799 1.68562 7.50804 1.21448 8.68529C1.15125 8.84327 1.08768 9.00212 1.02356 9.16131C0.920376 9.41745 0.629088 9.54145 0.372947 9.43827C0.116805 9.33509 -0.00719552 9.04381 0.095984 8.78766C0.158837 8.63163 0.221876 8.47395 0.285264 8.3154C0.750925 7.15066 1.23538 5.93891 1.80264 4.98819C1.91915 4.79293 2.04296 4.60214 2.17503 4.42081Z" fill="#4DAE89" class="green" />
  </g>
</svg>