<svg width="16" height="16" viewBox="0 0 16 16" fill="none" xmlns="http://www.w3.org/2000/svg">
<g opacity="0.88">
<path fill-rule="evenodd" clip-rule="evenodd" d="M8.75 5.5C8.75 5.22386 8.97386 5 9.25 5H11C12.1046 5 13 5.89543 13 7C13 8.10457 12.1046 9 11 9H10V10.0669C10.1495 10.1533 10.25 10.3149 10.25 10.5C10.25 10.7761 10.0261 11 9.75 11H9.25C8.97386 11 8.75 10.7761 8.75 10.5C8.75 10.3149 8.85055 10.1533 9 10.0669V5.93311C8.85055 5.84666 8.75 5.68507 8.75 5.5ZM10 6V8H11C11.5523 8 12 7.55228 12 7C12 6.44772 11.5523 6 11 6H10Z" fill="#377AB5" class="Blue"/>
<path d="M5.49999 8C5.49999 7.72386 5.72385 7.5 5.99999 7.5H6.24999C6.6642 7.5 6.99999 7.16421 6.99999 6.75C6.99999 6.33579 6.6642 6 6.24999 6H5.99999C5.56536 6 5.19428 6.27755 5.05676 6.66662C4.96474 6.92698 4.67908 7.06344 4.41872 6.97142C4.15836 6.8794 4.0219 6.59373 4.11392 6.33338C4.38824 5.55726 5.1284 5 5.99999 5H6.24999C7.21649 5 7.99999 5.7835 7.99999 6.75C7.99999 7.23967 7.79887 7.68237 7.47473 8C7.79887 8.31763 7.99999 8.76033 7.99999 9.25C7.99999 10.2165 7.21649 11 6.24999 11H5.99999C5.1284 11 4.38824 10.4427 4.11392 9.66662C4.0219 9.40627 4.15836 9.1206 4.41872 9.02858C4.67908 8.93656 4.96474 9.07302 5.05676 9.33338C5.19428 9.72245 5.56536 10 5.99999 10H6.24999C6.6642 10 6.99999 9.66421 6.99999 9.25C6.99999 8.83579 6.6642 8.5 6.24999 8.5H5.99999C5.72385 8.5 5.49999 8.27614 5.49999 8Z" fill="#377AB5" class="Blue"/>
<path fill-rule="evenodd" clip-rule="evenodd" d="M5 1.5C5 1.22386 4.77614 1 4.5 1C4.22386 1 4 1.22386 4 1.5V2H2.5C2.22386 2 2 2.22386 2 2.5V4H1.5C1.22386 4 1 4.22386 1 4.5C1 4.77614 1.22386 5 1.5 5H2V11H1.5C1.22386 11 1 11.2239 1 11.5C1 11.7761 1.22386 12 1.5 12H2V13.5C2 13.7761 2.22386 14 2.5 14H14.5C14.7761 14 15 13.7761 15 13.5V12H15.5C15.7761 12 16 11.7761 16 11.5C16 11.2239 15.7761 11 15.5 11H15V5H15.5C15.7761 5 16 4.77614 16 4.5C16 4.22386 15.7761 4 15.5 4H15V2.5C15 2.22386 14.7761 2 14.5 2H13V1.5C13 1.22386 12.7761 1 12.5 1C12.2239 1 12 1.22386 12 1.5V2H5V1.5ZM3 3V13H14V3H3Z" fill="#377AB5" class="Blue"/>
</g>
</svg>
