<svg width="16" height="16" viewBox="0 0 16 16" fill="none" xmlns="http://www.w3.org/2000/svg">
<path opacity="0.88" fill-rule="evenodd" clip-rule="evenodd" d="M14.9836 7C14.7263 3.09098 11.4741 0 7.5 0C3.35786 0 0 3.35786 0 7.5C0 11.6421 3.35786 15 7.5 15C8.37659 15 9.21805 14.8496 10 14.5732V15.5C10 15.7761 10.2239 16 10.5 16C10.7761 16 11 15.7761 11 15.5V14.135C13.24 12.9509 14.8081 10.6656 14.9836 8H15.5C15.7761 8 16 7.77614 16 7.5C16 7.22386 15.7761 7 15.5 7H14.9836ZM1.01894 7H4V4C4 3.72386 4.22386 3.5 4.5 3.5C4.77614 3.5 5 3.72386 5 4V6.29289L9.85367 1.43923C9.12384 1.1556 8.33009 1 7.5 1C4.07838 1 1.27426 3.64378 1.01894 7ZM10.8052 1.90189L5.70711 7H13.9811C13.8158 4.82751 12.5826 2.95354 10.8052 1.90189ZM9.85367 13.5608C9.12384 13.8444 8.33009 14 7.5 14C4.07839 14 1.27426 11.3562 1.01894 8H4V11C4 11.2761 4.22386 11.5 4.5 11.5C4.77614 11.5 5 11.2761 5 11V8L6 12.5L7.39645 11.1036L9.85367 13.5608ZM10.8052 13.0981L8.10355 10.3964L9.5 9L5 8H13.9811C13.8158 10.1725 12.5826 12.0465 10.8052 13.0981Z" fill="#377AB5" class="Blue"/>
</svg>
