<svg width="16" height="16" viewBox="0 0 16 16" fill="none" xmlns="http://www.w3.org/2000/svg">
    <path fill-rule="evenodd" clip-rule="evenodd" d="M16 8C16 12.4183 12.4183 16 8 16C3.58172 16 0 12.4183 0 8C0 3.58172 3.58172 0 8 0C12.4183 0 16 3.58172 16 8ZM6.74999 11.75C6.74999 11.0596 7.30964 10.5 7.99999 10.5C8.69035 10.5 9.24999 11.0596 9.24999 11.75C9.24999 12.4404 8.69035 13 7.99999 13C7.30964 13 6.74999 12.4404 6.74999 11.75ZM7.26436 3C6.76768 3 6.38127 3.43173 6.43612 3.92537L6.91766 8.2587C6.96456 8.68073 7.32128 9 7.7459 9H8.25416C8.67879 9 9.03551 8.68071 9.0824 8.25868L9.56382 3.92535C9.61866 3.43171 9.23225 3 8.73558 3H7.26436Z" fill="#D04D2F" class="Red"/>
</svg>