<svg width="16" height="16" viewBox="0 0 16 16" fill="none" xmlns="http://www.w3.org/2000/svg">
<path opacity="0.88" fill-rule="evenodd" clip-rule="evenodd" d="M5.30866 0.0380748C5.4955 -0.0393156 5.71055 0.00346223 5.85355 0.146461L12.7071 7.00001H15.5C15.7761 7.00001 16 7.22387 16 7.50001C16 7.77616 15.7761 8.00001 15.5 8.00001H12.7071L5.85355 14.8536C5.71055 14.9966 5.4955 15.0393 5.30866 14.962C5.12182 14.8846 5 14.7022 5 14.5V12H0.5C0.223858 12 0 11.7762 0 11.5C0 11.2239 0.223858 11 0.5 11H5V4.00001H0.5C0.223858 4.00001 0 3.77616 0 3.50001C0 3.22387 0.223858 3.00001 0.5 3.00001H5V0.500015C5 0.297783 5.12182 0.115465 5.30866 0.0380748ZM11.7929 7.50001L6 1.70712V13.2929L11.7929 7.50001Z" fill="#377AB5" class="Blue"/>
</svg>
