<svg width="16" height="16" viewBox="0 0 16 16" fill="none" xmlns="http://www.w3.org/2000/svg">
<g opacity="0.88">
<path d="M5.5 0C5.77614 0 6 0.223858 6 0.5V3C6 3.27614 5.77614 3.5 5.5 3.5C5.22386 3.5 5 3.27614 5 3V0.5C5 0.223858 5.22386 0 5.5 0Z" fill="#377AB5" class="Blue"/>
<path d="M5.5 12.5C5.77614 12.5 6 12.7239 6 13V15.5C6 15.7761 5.77614 16 5.5 16C5.22386 16 5 15.7761 5 15.5V13C5 12.7239 5.22386 12.5 5.5 12.5Z" fill="#377AB5" class="Blue"/>
<path d="M6 5C6 4.72386 5.77614 4.5 5.5 4.5C5.22386 4.5 5 4.72386 5 5V6H4C3.72386 6 3.5 6.22386 3.5 6.5C3.5 6.77614 3.72386 7 4 7H5V8C5 8.27614 5.22386 8.5 5.5 8.5C5.77614 8.5 6 8.27614 6 8V7H7C7.27614 7 7.5 6.77614 7.5 6.5C7.5 6.22386 7.27614 6 7 6H6V5Z" fill="#377AB5" class="Blue"/>
<path d="M4 10C3.72386 10 3.5 10.2239 3.5 10.5C3.5 10.7761 3.72386 11 4 11H7C7.27614 11 7.5 10.7761 7.5 10.5C7.5 10.2239 7.27614 10 7 10H4Z" fill="#377AB5" class="Blue"/>
<path d="M11 0.5C11 0.223858 10.7761 0 10.5 0C10.2239 0 10 0.223858 10 0.5V5.5C10 5.77614 10.2239 6 10.5 6C10.7761 6 11 5.77614 11 5.5V0.5Z" fill="#377AB5" class="Blue"/>
<path d="M14.8536 5.14645C14.6583 4.95118 14.3417 4.95118 14.1464 5.14645L10.1464 9.14645C10.0527 9.24021 10 9.36739 10 9.5V15.5C10 15.7761 10.2239 16 10.5 16C10.7761 16 11 15.7761 11 15.5V9.70711L14.8536 5.85355C15.0488 5.65829 15.0488 5.34171 14.8536 5.14645Z" fill="#377AB5" class="Blue"/>
</g>
</svg>
