<svg width="16" height="16" viewBox="0 0 16 16" fill="none" xmlns="http://www.w3.org/2000/svg">
<g opacity="0.88">
<path d="M4.25 5C3.97386 5 3.75 5.22386 3.75 5.5C3.75 5.68507 3.85055 5.84666 4 5.93311V8.5C4 8.77614 4.22386 9 4.5 9H7V10.0669C6.85055 10.1533 6.75 10.3149 6.75 10.5C6.75 10.7761 6.97386 11 7.25 11H7.75C8.02614 11 8.25 10.7761 8.25 10.5C8.25 10.3149 8.14945 10.1533 8 10.0669V5.93311C8.14945 5.84666 8.25 5.68507 8.25 5.5C8.25 5.22386 8.02614 5 7.75 5H7.25C6.97386 5 6.75 5.22386 6.75 5.5C6.75 5.68507 6.85055 5.84666 7 5.93311V8H5V5.93311C5.14945 5.84666 5.25 5.68507 5.25 5.5C5.25 5.22386 5.02614 5 4.75 5H4.25Z" fill="#377AB5" class="Blue"/>
<path fill-rule="evenodd" clip-rule="evenodd" d="M9.25 5C8.97386 5 8.75 5.22386 8.75 5.5C8.75 5.68507 8.85055 5.84666 9 5.93311V10.0669C8.85055 10.1533 8.75 10.3149 8.75 10.5C8.75 10.7761 8.97386 11 9.25 11H9.75C10.0261 11 10.25 10.7761 10.25 10.5C10.25 10.3149 10.1495 10.1533 10 10.0669V9H11C12.1046 9 13 8.10457 13 7C13 5.89543 12.1046 5 11 5H9.25ZM10 8V6H11C11.5523 6 12 6.44772 12 7C12 7.55228 11.5523 8 11 8H10Z" fill="#377AB5" class="Blue"/>
<path fill-rule="evenodd" clip-rule="evenodd" d="M5 1.5C5 1.22386 4.77614 1 4.5 1C4.22386 1 4 1.22386 4 1.5V2H2.5C2.22386 2 2 2.22386 2 2.5V4H1.5C1.22386 4 1 4.22386 1 4.5C1 4.77614 1.22386 5 1.5 5H2V11H1.5C1.22386 11 1 11.2239 1 11.5C1 11.7761 1.22386 12 1.5 12H2V13.5C2 13.7761 2.22386 14 2.5 14H4V14.5C4 14.7761 4.22386 15 4.5 15C4.77614 15 5 14.7761 5 14.5V14H12V14.5C12 14.7761 12.2239 15 12.5 15C12.7761 15 13 14.7761 13 14.5V14H14.5C14.7761 14 15 13.7761 15 13.5V12H15.5C15.7761 12 16 11.7761 16 11.5C16 11.2239 15.7761 11 15.5 11H15V5H15.5C15.7761 5 16 4.77614 16 4.5C16 4.22386 15.7761 4 15.5 4H15V2.5C15 2.22386 14.7761 2 14.5 2H13V1.5C13 1.22386 12.7761 1 12.5 1C12.2239 1 12 1.22386 12 1.5V2H5V1.5ZM3 3V13H14V3H3Z" fill="#377AB5" class="Blue"/>
</g>
</svg>
