<svg width="16" height="16" viewBox="0 0 16 16" fill="none" xmlns="http://www.w3.org/2000/svg">
  <path opacity="0.72" fill-rule="evenodd" clip-rule="evenodd" d="M0.5 2C0.776142 2 1 2.22386 1 2.5V13H15.5C15.7761 13 16 13.2239 16 13.5C16 13.7761 15.7761 14 15.5 14H1C0.447715 14 0 13.5523 0 13V2.5C0 2.22386 0.223858 2 0.5 2Z" fill="#404040" class="Black" />
  <path opacity="0.88" fill-rule="evenodd" clip-rule="evenodd" d="M8.5 8C8.77614 8 9 7.77614 9 7.5C9 7.22386 8.77614 7 8.5 7C8.22386 7 8 7.22386 8 7.5C8 7.77614 8.22386 8 8.5 8ZM8.5 9C9.32843 9 10 8.32843 10 7.5C10 6.67157 9.32843 6 8.5 6C7.67157 6 7 6.67157 7 7.5C7 8.32843 7.67157 9 8.5 9Z" fill="#D04D2F" class="Red" />
  <g opacity="0.88">
    <path d="M9 2.5C9 2.22386 8.77614 2 8.5 2C8.22386 2 8 2.22386 8 2.5V5.05001C8.16155 5.01722 8.32877 5 8.5 5C8.67123 5 8.83845 5.01722 9 5.05001V2.5Z" fill="#D04D2F" class="Red" />
    <path d="M9 9.94999C8.83845 9.98278 8.67123 10 8.5 10C8.32877 10 8.16155 9.98278 8 9.94999V13H9V9.94999Z" fill="#D04D2F" class="Red" />
  </g>
  <g opacity="0.88">
    <path d="M4.24916e-09 10.1354C-7.11553e-05 10.1305 -7.12629e-05 10.1256 4.24916e-09 10.1207V10.1354Z" fill="#4DAE89" class="green" />
    <path d="M1 10.2775C1.37204 9.6958 1.69977 9.01424 2.00772 8.33464C2.1054 8.11909 2.20083 7.90437 2.29534 7.69173C2.52734 7.1697 2.7538 6.66018 2.99434 6.18135C3.33266 5.5079 3.67399 4.94809 4.04627 4.5606C4.41105 4.1809 4.77169 4 5.16669 4C5.6984 4 6.17899 4.33367 6.67445 5.03775C6.77902 5.18635 6.88047 5.34609 6.97973 5.51521C7.24373 5.31268 7.54931 5.16165 7.88145 5.07711C7.75668 4.86054 7.62727 4.65413 7.49225 4.46226C6.93216 3.66633 6.19053 3 5.16669 3C4.41566 3 3.81118 3.36188 3.32514 3.86779C2.84659 4.3659 2.45137 5.03454 2.10077 5.73244C1.84894 6.23371 1.60728 6.77744 1.37141 7.30813C1.27916 7.51569 1.18763 7.72163 1.09687 7.92191C1.06456 7.99323 1.03228 8.06397 1 8.13408V10.2775Z" fill="#4DAE89" class="green" />
    <path d="M9.50776 10.5378C9.37274 10.3459 9.24333 10.1395 9.11856 9.92289C9.45069 9.83835 9.75627 9.68731 10.0203 9.48479C10.1195 9.65392 10.221 9.81367 10.3256 9.96228C10.821 10.6664 11.3016 11 11.8333 11C12.4324 11 12.9661 10.5736 13.5202 9.69256C13.9442 9.01823 14.3132 8.1883 14.6997 7.31914C14.8127 7.06484 14.9273 6.80717 15.0452 6.54906C15.1599 6.29787 15.4565 6.18724 15.7077 6.30195C15.9589 6.41667 16.0695 6.71329 15.9548 6.96448C15.8485 7.19724 15.7416 7.4378 15.6334 7.68149C15.2422 8.56212 14.8329 9.48356 14.3667 10.2249C13.7775 11.1619 12.9836 12 11.8333 12C10.8095 12 10.0679 11.3337 9.50776 10.5378Z" fill="#4DAE89" class="green" />
  </g>
</svg>