<svg width="16" height="16" viewBox="0 0 16 16" fill="none" xmlns="http://www.w3.org/2000/svg">
<path opacity="0.88" fill-rule="evenodd" clip-rule="evenodd" d="M0 7.5C0 3.35786 3.35786 0 7.5 0C11.6421 0 15 3.35786 15 7.5C15 10.378 13.3789 12.8775 11 14.135V15.5C11 15.7761 10.7761 16 10.5 16C10.2239 16 10 15.7761 10 15.5V14.5732C9.21805 14.8496 8.37659 15 7.5 15C3.35786 15 0 11.6421 0 7.5ZM1.01894 7H4V4C4 3.72386 4.22386 3.5 4.5 3.5C4.77614 3.5 5 3.72386 5 4V6.29289L9.85367 1.43923C9.12384 1.1556 8.33009 1 7.5 1C4.07838 1 1.27426 3.64378 1.01894 7ZM10.8052 1.90189C12.7176 3.03342 14 5.11695 14 7.5C14 9.88305 12.7176 11.9666 10.8052 13.0981L8.10355 10.3964L9.5 9L5 8V7.70711L10.8052 1.90189ZM7.39645 11.1036L6 12.5L5 8V11C5 11.2761 4.77614 11.5 4.5 11.5C4.22386 11.5 4 11.2761 4 11V8H1.01894C1.27426 11.3562 4.07839 14 7.5 14C8.33009 14 9.12384 13.8444 9.85367 13.5608L7.39645 11.1036Z" fill="#377AB5" class="Blue"/>
</svg>
