<svg width="16" height="16" viewBox="0 0 16 16" fill="none" xmlns="http://www.w3.org/2000/svg">
  <path opacity="0.88" fill-rule="evenodd" clip-rule="evenodd" d="M1 3C1 1.89543 1.89543 1 3 1H13C14.1046 1 15 1.89543 15 3V13C15 14.1046 14.1046 15 13 15H3C1.89543 15 1 14.1046 1 13V3ZM3 2C2.44772 2 2 2.44772 2 3V13C2 13.5523 2.44772 14 3 14H13C13.5523 14 14 13.5523 14 13V3C14 2.44772 13.5523 2 13 2H3Z" fill="#4DAE89" class="green" />
  <g opacity="0.72">
    <path d="M6.96399 7.05038H8C7.95753 6.72529 7.86704 6.43631 7.72853 6.18346C7.59187 5.92871 7.41736 5.71388 7.20499 5.53897C6.99261 5.36217 6.75069 5.22814 6.47922 5.13688C6.20776 5.04563 5.91413 5 5.59834 5C5.10342 5 4.6602 5.11882 4.2687 5.35646C3.87719 5.59411 3.56787 5.93726 3.34072 6.38593C3.11357 6.8327 3 7.37072 3 8C3 8.62738 3.11265 9.1654 3.33795 9.61407C3.56325 10.0627 3.87165 10.4059 4.26316 10.6435C4.65466 10.8812 5.09972 11 5.59834 11C5.93629 11 6.24377 10.9487 6.52078 10.846C6.79778 10.7414 7.0397 10.597 7.24654 10.4125C7.45337 10.2262 7.6205 10.0114 7.74792 9.76806C7.87719 9.52472 7.96122 9.26426 8 8.98669L6.96399 8.98099C6.93259 9.15209 6.87535 9.30418 6.79224 9.43726C6.71099 9.57034 6.61034 9.68251 6.4903 9.77376C6.37211 9.86502 6.23823 9.93441 6.08864 9.98194C5.9409 10.0276 5.78209 10.0504 5.61219 10.0504C5.30563 10.0504 5.03324 9.97338 4.79501 9.81939C4.55863 9.6635 4.37211 9.43346 4.23546 9.12928C4.10065 8.82319 4.03324 8.44677 4.03324 8C4.03324 7.56084 4.10065 7.18916 4.23546 6.88498C4.37027 6.5789 4.55679 6.34696 4.79501 6.18916C5.03324 6.02947 5.30656 5.94962 5.61496 5.94962C5.78855 5.94962 5.95014 5.97433 6.09972 6.02376C6.25115 6.07129 6.38596 6.14259 6.50415 6.23764C6.62234 6.3327 6.72114 6.44867 6.80055 6.58555C6.87996 6.72053 6.93444 6.87548 6.96399 7.05038Z" fill="#404040" class="Black" />
    <path fill-rule="evenodd" clip-rule="evenodd" d="M10.8857 11L11.1096 9.45312H9.97232L9.74842 11H9.0247L9.2486 9.45312H8.5L8.62148 8.63281H9.36734L9.55053 7.36719H8.80758L8.92648 6.54688H9.66926L9.89317 5H10.6169L10.393 6.54688H11.5303L11.7542 5H12.4779L12.254 6.54688H13L12.8811 7.36719H12.1352L11.9521 8.63281H12.695L12.5735 9.45312H11.8333L11.6094 11H10.8857ZM11.4115 7.36719L11.2283 8.63281H10.0911L10.2743 7.36719H11.4115Z" fill="#404040" class="Black" />
  </g>
</svg>