<svg width="16" height="16" viewBox="0 0 16 16" fill="none" xmlns="http://www.w3.org/2000/svg">
<g opacity="0.88">
<path d="M6.5 6C6.22386 6 6 6.22386 6 6.5C6 6.77614 6.22386 7 6.5 7H11.5C11.7761 7 12 6.77614 12 6.5C12 6.22386 11.7761 6 11.5 6H6.5Z" fill="#377AB5" class="Blue"/>
<path d="M6.5 8C6.22386 8 6 8.22386 6 8.5C6 8.77614 6.22386 9 6.5 9H11.5C11.7761 9 12 8.77614 12 8.5C12 8.22386 11.7761 8 11.5 8H6.5Z" fill="#377AB5" class="Blue"/>
<path d="M6.5 10C6.22386 10 6 10.2239 6 10.5C6 10.7761 6.22386 11 6.5 11H8.5C8.77614 11 9 10.7761 9 10.5C9 10.2239 8.77614 10 8.5 10H6.5Z" fill="#377AB5" class="Blue"/>
<path fill-rule="evenodd" clip-rule="evenodd" d="M4 2V1.5C4 0.671573 4.67157 0 5.5 0H9.5C9.63261 0 9.75979 0.0526784 9.85355 0.146447L13.8536 4.14645C13.9473 4.24021 14 4.36739 14 4.5V12.5C14 13.3284 13.3284 14 12.5 14H12V14.5C12 15.3284 11.3284 16 10.5 16H3.5C2.67157 16 2 15.3284 2 14.5V3.5C2 2.67157 2.67157 2 3.5 2H4ZM5 1.5C5 1.22386 5.22386 1 5.5 1H9V4C9 4.55228 9.44772 5 10 5H13V12.5C13 12.7761 12.7761 13 12.5 13H5.5C5.22386 13 5 12.7761 5 12.5V1.5ZM4 3H3.5C3.22386 3 3 3.22386 3 3.5V14.5C3 14.7761 3.22386 15 3.5 15H10.5C10.7761 15 11 14.7761 11 14.5V14H5.5C4.67157 14 4 13.3284 4 12.5V3ZM12.2929 4L10 1.70711V4H12.2929Z" fill="#377AB5" class="Blue"/>
</g>
<path opacity="0.2" fill-rule="evenodd" clip-rule="evenodd" d="M4 3H3.5C3.22386 3 3 3.22386 3 3.5V14.5C3 14.7761 3.22386 15 3.5 15H10.5C10.7761 15 11 14.7761 11 14.5V14H5.5C4.67157 14 4 13.3284 4 12.5V3Z" fill="#377AB5" class="Blue"/>
</svg>
