<svg width="16" height="16" viewBox="0 0 16 16" fill="none" xmlns="http://www.w3.org/2000/svg">
<path opacity="0.88" d="M5.85355 2.85355C6.04882 2.65829 6.04882 2.34171 5.85355 2.14645C5.65829 1.95118 5.34171 1.95118 5.14645 2.14645L1.14645 6.14645C0.951184 6.34171 0.951184 6.65829 1.14645 6.85355L5.14645 10.8536C5.34171 11.0488 5.65829 11.0488 5.85355 10.8536C6.04882 10.6583 6.04882 10.3417 5.85355 10.1464L2.70711 7H8C11.3137 7 14 9.68629 14 13V13.5C14 13.7761 14.2239 14 14.5 14C14.7761 14 15 13.7761 15 13.5V13C15 9.13401 11.866 6 8 6H2.70711L5.85355 2.85355Z" fill="#377AB5" class="Blue"/>
</svg>
