<svg width="16" height="16" viewBox="0 0 16 16" fill="none" xmlns="http://www.w3.org/2000/svg">
<path opacity="0.88" fill-rule="evenodd" clip-rule="evenodd" d="M5.5 0C4.67157 0 4 0.671573 4 1.5V10.5C4 11.3284 4.67157 12 5.5 12H13C13.5523 12 14 11.5523 14 11V1C14 0.447716 13.5523 0 13 0H5.5ZM5 10.5C5 10.7761 5.22386 11 5.5 11H13V10H5.5C5.22386 10 5 10.2239 5 10.5ZM13 9H5.5C5.32468 9 5.15639 9.03008 5 9.08535V1.5C5 1.22386 5.22386 1 5.5 1H13V9Z" fill="#D04D2F" class="Red"/>
<path opacity="0.88" fill-rule="evenodd" clip-rule="evenodd" d="M11 12H12V15C12 15.5523 11.5523 16 11 16H3.5C2.67157 16 2 15.3284 2 14.5V5.5C2 4.67157 2.67157 4 3.5 4H4V5H3.5C3.22386 5 3 5.22386 3 5.5V13.0854C3.15639 13.0301 3.32468 13 3.5 13H11V12ZM3.5 15C3.22386 15 3 14.7761 3 14.5C3 14.2239 3.22386 14 3.5 14H11V15H3.5Z" fill="#377AB5" class="Blue"/>
<path opacity="0.12" d="M5.5 1H13V9H5.5C5.32468 9 5.15639 9.03008 5 9.08535V1.5C5 1.22386 5.22386 1 5.5 1Z" fill="#D04D2F" class="Red"/>
<path opacity="0.2" d="M4 5H3.5C3.22386 5 3 5.22386 3 5.5V13.0854C3.15639 13.0301 3.32468 13 3.5 13H11V12H5.5C4.67157 12 4 11.3284 4 10.5V5Z" fill="#377AB5" class="Blue"/>
</svg>
