<svg width="16" height="16" viewBox="0 0 16 16" fill="none" xmlns="http://www.w3.org/2000/svg">
  <path opacity="0.88" fill-rule="evenodd" clip-rule="evenodd" d="M5 2C4.44772 2 4 2.44772 4 3V12C4 12.5523 4.44772 13 5 13H7.25606C7.14352 12.6816 7.06579 12.3467 7.02746 12H5V3H6.5C6.77614 3 7 2.77614 7 2.5C7 2.22386 6.77614 2 6.5 2H5Z" fill="#EEB764" class="style2" />
  <path opacity="0.4" fill-rule="evenodd" clip-rule="evenodd" d="M5 2C4.44772 2 4 2.44772 4 3V12C4 12.5523 4.44772 13 5 13H7.25606C7.14352 12.6816 7.06579 12.3467 7.02746 12H5V3H6.5C6.77614 3 7 2.77614 7 2.5C7 2.22386 6.77614 2 6.5 2H5Z" fill="#D04D2F" class="Red" />
  <path opacity="0.88" fill-rule="evenodd" clip-rule="evenodd" d="M2 1.5C2 0.671573 2.67157 0 3.5 0H8.08579C8.48361 0 8.86514 0.158035 9.14645 0.43934L12.5607 3.85355C12.842 4.13486 13 4.51639 13 4.91421V8.25606C12.6816 8.14352 12.3467 8.06579 12 8.02746V5H9C8.44772 5 8 4.55229 8 4V1H3.5C3.22386 1 3 1.22386 3 1.5V13.5C3 13.7761 3.22386 14 3.5 14H7.25606C7.3819 14.356 7.55127 14.6915 7.75777 15H3.5C2.67157 15 2 14.3284 2 13.5V1.5ZM9 1.70711L11.2929 4H9V1.70711Z" fill="#377AB5" class="Blue" />
  <path opacity="0.72" fill-rule="evenodd" clip-rule="evenodd" d="M15 12.5C15 14.433 13.433 16 11.5 16C9.567 16 8 14.433 8 12.5C8 10.567 9.567 9 11.5 9C13.433 9 15 10.567 15 12.5ZM11 10.5C11 10.2239 11.2239 10 11.5 10C11.7761 10 12 10.2239 12 10.5V12H13.5C13.7761 12 14 12.2239 14 12.5C14 12.7761 13.7761 13 13.5 13H12V14.5C12 14.7761 11.7761 15 11.5 15C11.2239 15 11 14.7761 11 14.5V13H9.5C9.22386 13 9 12.7761 9 12.5C9 12.2239 9.22386 12 9.5 12H11V10.5Z" fill="#404040" class="Black" />
</svg>