<svg width="16" height="16" viewBox="0 0 16 16" fill="none" xmlns="http://www.w3.org/2000/svg">
  <path opacity="0.88" fill-rule="evenodd" clip-rule="evenodd" d="M1 2.5C1 1.67157 1.67157 1 2.5 1H5.88197C6.45012 1 6.96952 1.321 7.22361 1.82918L7.67082 2.72361C7.75552 2.893 7.92865 3 8.11803 3H13.5C14.3284 3 15 3.67157 15 4.5V13.5C15 14.3284 14.3284 15 13.5 15H2.5C1.67157 15 1 14.3284 1 13.5V2.5ZM2.5 2C2.22386 2 2 2.22386 2 2.5V5H14V4.5C14 4.22386 13.7761 4 13.5 4H8.11803C7.54988 4 7.03048 3.679 6.77639 3.17082L6.32918 2.27639C6.24448 2.107 6.07135 2 5.88197 2H2.5ZM14 6H2V13.5C2 13.7761 2.22386 14 2.5 14H13.5C13.7761 14 14 13.7761 14 13.5V6Z" fill="#EEB764" class="style2" />
  <path opacity="0.24" fill-rule="evenodd" clip-rule="evenodd" d="M1 2.5C1 1.67157 1.67157 1 2.5 1H5.88197C6.45012 1 6.96952 1.321 7.22361 1.82918L7.67082 2.72361C7.75552 2.893 7.92865 3 8.11803 3H13.5C14.3284 3 15 3.67157 15 4.5V13.5C15 14.3284 14.3284 15 13.5 15H2.5C1.67157 15 1 14.3284 1 13.5V2.5ZM2.5 2C2.22386 2 2 2.22386 2 2.5V5H14V4.5C14 4.22386 13.7761 4 13.5 4H8.11803C7.54988 4 7.03048 3.679 6.77639 3.17082L6.32918 2.27639C6.24448 2.107 6.07135 2 5.88197 2H2.5ZM14 6H2V13.5C2 13.7761 2.22386 14 2.5 14H13.5C13.7761 14 14 13.7761 14 13.5V6Z" fill="#D04D2F" class="Red" />
  <path opacity="0.24" d="M2 6H14V13.5C14 13.7761 13.7761 14 13.5 14H2.5C2.22386 14 2 13.7761 2 13.5V6Z" fill="#EEB764" class="style2" />
</svg>