<svg width="16" height="16" viewBox="0 0 16 16" fill="none" xmlns="http://www.w3.org/2000/svg">
<path opacity="0.88" fill-rule="evenodd" clip-rule="evenodd" d="M7.5 0C7.77614 0 8 0.223858 8 0.5V5.5C8 5.77614 7.77614 6 7.5 6C7.22386 6 7 5.77614 7 5.5V0.5C7 0.223858 7.22386 0 7.5 0ZM11.1464 5.14645C11.3417 4.95118 11.6583 4.95118 11.8536 5.14645C12.0488 5.34171 12.0488 5.65829 11.8536 5.85355L8 9.70711V15.5C8 15.7761 7.77614 16 7.5 16C7.22386 16 7 15.7761 7 15.5V9.5C7 9.36739 7.05268 9.24021 7.14645 9.14645L11.1464 5.14645Z" fill="#377AB5" class="Blue"/>
</svg>
