<svg width="16" height="16" viewBox="0 0 16 16" fill="none" xmlns="http://www.w3.org/2000/svg">
<path opacity="0.88" fill-rule="evenodd" clip-rule="evenodd" d="M12.5 2H10C10 0.895431 9.10457 0 8 0C6.89543 0 6 0.895431 6 2H3.5C2.67157 2 2 2.67157 2 3.5V14.5C2 15.3284 2.67157 16 3.5 16H12.5C13.3284 16 14 15.3284 14 14.5V3.5C14 2.67157 13.3284 2 12.5 2ZM8 3C8.55228 3 9 2.55228 9 2C9 1.44772 8.55228 1 8 1C7.44772 1 7 1.44772 7 2C7 2.55228 7.44772 3 8 3ZM12 3C12 3.55228 11.5523 4 11 4H5C4.44772 4 4 3.55228 4 3H3.5C3.22386 3 3 3.22386 3 3.5V14.5C3 14.7761 3.22386 15 3.5 15H12.5C12.7761 15 13 14.7761 13 14.5V3.5C13 3.22386 12.7761 3 12.5 3H12Z" fill="#377AB5" class="Blue"/>
</svg>
