<svg width="16" height="16" viewBox="0 0 16 16" fill="none" xmlns="http://www.w3.org/2000/svg">
<g opacity="0.88">
<path d="M7 5.50001C7 5.29778 6.87818 5.11547 6.69134 5.03807C6.5045 4.96068 6.28945 5.00346 6.14645 5.14646L4.89645 6.39646C4.70118 6.59172 4.70118 6.90831 4.89645 7.10357C5.09171 7.29883 5.40829 7.29883 5.60355 7.10357L6 6.70712V10.0669C5.85055 10.1534 5.75 10.3149 5.75 10.5C5.75 10.7762 5.97386 11 6.25 11H6.75C7.02614 11 7.25 10.7762 7.25 10.5C7.25 10.3149 7.14945 10.1534 7 10.0669V5.50001Z" fill="#377AB5" class="Blue"/>
<path fill-rule="evenodd" clip-rule="evenodd" d="M8.5 5C8.22386 5 8 5.22386 8 5.5C8 5.68507 8.10055 5.84666 8.25 5.93311V10.0669C8.10055 10.1533 8 10.3149 8 10.5C8 10.7761 8.22386 11 8.5 11H9C9.27614 11 9.5 10.7761 9.5 10.5C9.5 10.3149 9.39945 10.1533 9.25 10.0669V9H10.25C11.3546 9 12.25 8.10457 12.25 7C12.25 5.89543 11.3546 5 10.25 5H8.5ZM9.25 8V6H10.25C10.8023 6 11.25 6.44772 11.25 7C11.25 7.55228 10.8023 8 10.25 8H9.25Z" fill="#377AB5" class="Blue"/>
<path fill-rule="evenodd" clip-rule="evenodd" d="M2 2.5C2 2.22386 2.22386 2 2.5 2H14.5C14.7761 2 15 2.22386 15 2.5V13.5C15 13.7761 14.7761 14 14.5 14H2.5C2.22386 14 2 13.7761 2 13.5V12H1.5C1.22386 12 1 11.7761 1 11.5C1 11.2239 1.22386 11 1.5 11H2V5H1.5C1.22386 5 1 4.77614 1 4.5C1 4.22386 1.22386 4 1.5 4H2V2.5ZM3 13H14V3H3V13Z" fill="#377AB5" class="Blue"/>
</g>
</svg>
