<svg width="16" height="16" viewBox="0 0 16 16" fill="none" xmlns="http://www.w3.org/2000/svg">
  <path opacity="0.72" fill-rule="evenodd" clip-rule="evenodd" d="M1.5 1C1.77614 1 2 1.22386 2 1.5V14H14.5C14.7761 14 15 14.2239 15 14.5C15 14.7761 14.7761 15 14.5 15H2C1.44771 15 1 14.5523 1 14V1.5C1 1.22386 1.22386 1 1.5 1Z" fill="#404040" class="Black" />
  <path opacity="0.88" fill-rule="evenodd" clip-rule="evenodd" d="M7 7C7 6.44772 7.44772 6 8 6H9C9.55228 6 10 6.44772 10 7V8C10 8.55228 9.55228 9 9 9H8C7.44772 9 7 8.55228 7 8V7ZM9 7H8V8H9V7Z" fill="#D04D2F" class="Red" />
  <g opacity="0.88">
    <path d="M7.74098 8.96613L2.70711 14H2V13.2929L7.03387 8.25902C7.1259 8.60313 7.39687 8.8741 7.74098 8.96613Z" fill="#4DAE89" class="green" />
    <path d="M9.96613 6.74098L14.8536 1.85355C15.0488 1.65829 15.0488 1.34171 14.8536 1.14645C14.6583 0.951184 14.3417 0.951184 14.1464 1.14645L9.25902 6.03387C9.60313 6.1259 9.8741 6.39687 9.96613 6.74098Z" fill="#4DAE89" class="green" />
  </g>
  <g opacity="0.72">
    <path d="M8.5 2C8.77614 2 9 1.77614 9 1.5C9 1.22386 8.77614 1 8.5 1C8.22386 1 8 1.22386 8 1.5C8 1.77614 8.22386 2 8.5 2Z" fill="#404040" class="Black" />
    <path d="M9 3.5C9 3.22386 8.77614 3 8.5 3C8.22386 3 8 3.22386 8 3.5V4.5C8 4.77614 8.22386 5 8.5 5C8.77614 5 9 4.77614 9 4.5V3.5Z" fill="#404040" class="Black" />
    <path d="M9 14V13.5C9 13.2239 8.77614 13 8.5 13C8.22386 13 8 13.2239 8 13.5V14H9Z" fill="#404040" class="Black" />
    <path d="M8.5 10C8.77614 10 9 10.2239 9 10.5V11.5C9 11.7761 8.77614 12 8.5 12C8.22386 12 8 11.7761 8 11.5V10.5C8 10.2239 8.22386 10 8.5 10Z" fill="#404040" class="Black" />
  </g>
</svg>