<svg width="16" height="16" viewBox="0 0 16 16" fill="none" xmlns="http://www.w3.org/2000/svg">
<path opacity="0.88" d="M10.1464 2.85355C9.95118 2.65829 9.95118 2.34171 10.1464 2.14645C10.3417 1.95118 10.6583 1.95118 10.8536 2.14645L14.8536 6.14645C15.0488 6.34171 15.0488 6.65829 14.8536 6.85355L10.8536 10.8536C10.6583 11.0488 10.3417 11.0488 10.1464 10.8536C9.95118 10.6583 9.95118 10.3417 10.1464 10.1464L13.2929 7H8C4.68629 7 2 9.68629 2 13V13.5C2 13.7761 1.77614 14 1.5 14C1.22386 14 1 13.7761 1 13.5V13C1 9.13401 4.13401 6 8 6H13.2929L10.1464 2.85355Z" fill="#377AB5" class="Blue"/>
</svg>
