<svg width="16" height="16" viewBox="0 0 16 16" fill="none" xmlns="http://www.w3.org/2000/svg">
<g opacity="0.88">
<path d="M7.15302 2C6.54447 2 6.07701 2.53899 6.16307 3.14142L6.87736 8.14142C6.94773 8.63407 7.36966 9 7.86731 9H8.13271C8.63037 9 9.05229 8.63407 9.12266 8.14142L9.83695 3.14142C9.92301 2.53899 9.45555 2 8.847 2H7.15302Z" fill="#D04D2F" class="Red"/>
<path d="M8.00001 11C7.17158 11 6.50001 11.6716 6.50001 12.5C6.50001 13.3284 7.17158 14 8.00001 14C8.82844 14 9.50001 13.3284 9.50001 12.5C9.50001 11.6716 8.82844 11 8.00001 11Z" fill="#D04D2F" class="Red"/>
</g>
</svg>
