<svg width="86" height="62" viewBox="0 0 86 62" fill="none" xmlns="http://www.w3.org/2000/svg">
<path d="M57.6333 0.225098H7.87769V50.8842H57.6333V0.225098Z" fill="#FFCC00"/>
<path d="M82.3718 58.4226C81.0151 57.7084 79.8469 58.3157 80.1931 55.1064C80.4403 52.8064 79.1701 51.0288 77.4457 49.8678C75.6223 48.6375 73.3292 48.367 71.3205 47.5678C70.996 47.4388 70.6746 47.2972 70.3563 47.1493C68.876 46.4729 67.3307 45.466 66.1626 44.3113C66.1564 44.305 66.1471 44.2988 66.1409 44.2893C65.7948 43.9464 65.4672 43.5845 65.1396 43.207C64.9171 39.6202 66.0884 35.8949 66.2213 32.865C66.2677 31.7858 66.1873 30.6846 66.0204 29.6211C65.6805 27.4376 64.1569 24.8481 65.6434 22.8376C65.8164 22.6048 66.0111 22.4443 66.2676 22.1958C67.0557 21.4281 67.8005 20.4464 67.9241 19.3106C67.9519 19.0463 67.9488 18.8292 67.9643 18.675C68.1744 18.4327 68.3011 18.0615 68.261 17.7437C68.2424 17.5832 68.1806 17.4385 68.0694 17.3252C67.9581 17.2151 67.7943 17.1365 67.5718 17.1207C67.5934 17.1837 67.6058 17.2497 67.612 17.3189C67.6182 17.3882 67.612 17.4574 67.5996 17.5297C67.578 17.6399 67.5285 17.7531 67.4451 17.8664C67.4173 17.9042 67.3864 17.9419 67.3493 17.9828C67.3555 17.9419 67.3586 17.9042 67.3586 17.8633C67.3586 17.8255 67.3524 17.7877 67.3462 17.75C67.3215 17.6399 67.2689 17.5329 67.1979 17.4385C67.1299 17.3473 67.0464 17.2623 66.9568 17.1868C66.9537 17.1837 66.9506 17.1805 66.9444 17.1774C66.5952 17.234 66.2429 17.256 65.8535 17.2497C65.6187 17.2466 65.3714 17.2308 65.0995 17.2088C64.5586 17.1648 63.9282 17.083 63.1402 16.9854C61.802 16.8187 60.4391 16.7148 59.1133 17.0389C57.2313 17.5014 55.7448 18.7946 55.1143 20.6887C54.6601 22.0573 54.5704 23.5078 54.2707 24.911C54.0852 25.77 53.4084 27.0065 51.959 28.7873C50.4725 29.0799 48.7172 28.8156 48.2227 28.737C48.0589 28.7118 47.8951 28.6804 47.7375 28.6426C47.6881 28.6961 47.6386 28.7527 47.5985 28.8125C47.515 28.9321 47.4532 29.0611 47.4408 29.1964C47.4347 29.2656 47.4408 29.3348 47.4594 29.404C47.1534 29.1334 47.1225 28.8408 47.1905 28.5954C47.1998 28.5608 47.2122 28.5262 47.2245 28.4916C47.206 28.4853 47.1874 28.479 47.1689 28.4727C46.9773 28.4035 46.8289 28.394 46.7146 28.4318C46.6003 28.4695 46.523 28.5514 46.4735 28.6646C46.4519 28.7118 46.4365 28.759 46.421 28.8062C46.4087 28.8534 46.3994 28.9006 46.3932 28.9446C46.3808 29.0359 46.3839 29.1271 46.3994 29.2152C46.4056 29.2593 46.4179 29.3033 46.4303 29.3442C46.4488 29.4072 46.4766 29.4701 46.5075 29.5299C46.5292 29.5771 46.557 29.6211 46.5848 29.6652C46.6003 29.6903 46.6157 29.7155 46.6343 29.7407C46.8444 30.0396 47.2709 30.6531 48.575 31.21C48.1949 31.2792 47.4161 31.1502 46.5415 30.4014C45.4784 31.8707 48.2474 33.5855 49.2302 34.3375C49.3167 35.9641 48.2938 37.2761 47.4687 38.0313C45.9914 39.3842 44.0816 40.3092 42.4467 41.4482C40.2865 42.9521 38.3087 44.6197 36.8222 46.8378C36.5595 47.228 36.3401 47.6402 36.1639 48.0618C35.6324 49.3297 35.4748 50.7078 35.6107 52.0387C35.79 53.7755 36.2597 55.7577 34.4642 56.8212C33.7627 57.2365 29.8811 58.259 28.7964 61.2449C31.5129 59.7504 33.1013 60.6786 35.1534 60.2507C37.0014 59.8637 38.0336 58.4793 37.9007 56.9313C38.0151 58.5894 38.7166 60.1342 40.3174 60.7698C41.158 61.1033 42.0821 61.1788 42.9752 61.0876C43.7787 61.0058 44.5977 60.6534 45.4105 60.8076C47.138 61.1316 48.7697 61.6004 50.5065 61.1253C51.0535 60.9743 51.5264 60.8296 51.9714 60.6691C52.7595 60.9492 53.5444 61.1788 54.3047 61.3519C55.4852 61.6193 56.6441 61.7609 57.7536 61.7735C59.1072 61.7892 60.3835 61.613 61.5517 61.2512C62.111 61.0782 62.6395 60.8548 63.1402 60.6031C63.8139 60.7415 64.4968 60.8233 65.1829 60.8673C65.2045 60.8673 65.2324 60.8673 65.2664 60.8673C65.3498 60.8673 65.4765 60.8673 65.6217 60.8611C65.9432 61.0058 66.348 61.1725 66.7837 61.1788C67.2782 61.1851 67.6954 60.9775 67.989 60.581C68.2579 60.2192 68.3197 59.7819 68.159 59.3823C68.1188 59.2847 68.0663 59.1903 68.0014 59.0991C67.9921 58.8914 67.955 58.6869 67.8778 58.4982C69.6671 58.7562 71.5306 58.4793 72.9213 58.1206C72.3187 59.7535 70.0627 60.2979 68.5422 60.0021C69.7938 61.204 71.6326 61.418 73.2489 61.0152C74.1482 60.7918 74.9981 60.3765 75.715 59.7787C76.3022 59.291 76.8678 58.5611 77.7207 58.8096C78.2245 58.9544 78.4501 59.4043 78.7993 59.7535C79.2227 60.1846 79.7388 60.4961 80.3043 60.6943C81.8928 61.2449 83.4565 60.4741 85.1408 61.2481C84.5969 60.0304 83.7223 59.1369 82.3656 58.4226H82.3718Z" fill="white"/>
<path d="M53.9834 47.4484C53.6218 47.1558 53.3282 47.2627 53.3282 47.2627C53.2911 47.4326 53.5383 47.7347 53.7145 48.2003C53.8907 48.666 54.2584 48.8925 54.3635 48.4174C54.4686 47.9455 54.2121 47.6277 53.9834 47.4452V47.4484Z" fill="#1D1D1B"/>
<path d="M50.5899 46.9953C50.5899 46.9953 50.6085 46.9827 50.6178 46.9764C50.8155 46.8631 51.0102 46.8222 51.1524 46.7908C51.2946 46.7593 51.3811 46.7436 51.344 46.6806C51.3193 46.6334 51.2389 46.5862 51.1277 46.5579C50.9732 46.5139 50.7568 46.5076 50.5467 46.5831C50.5003 46.5988 50.454 46.6208 50.4107 46.646C50.0151 46.8726 49.8081 47.1903 49.8761 47.3162C49.944 47.4389 50.2067 47.2155 50.5869 46.9953H50.5899Z" fill="#1D1D1B"/>
<path d="M52.5711 48.2758C52.5619 48.1752 52.531 48.0776 52.463 47.9895C52.6669 47.9738 52.8153 47.9077 52.8431 47.7976C52.8925 47.6025 52.565 47.3477 52.1107 47.2281C51.678 47.1148 51.2917 47.1652 51.2113 47.3382C51.2083 47.3477 51.199 47.354 51.199 47.3634C51.1866 47.4137 51.199 47.4641 51.233 47.5176C51.2577 47.5585 51.2948 47.6025 51.3411 47.6434C51.3411 47.6434 51.3381 47.6434 51.335 47.6434C51.3072 47.6529 51.2793 47.6686 51.2546 47.6812C51.2083 47.7064 51.165 47.7378 51.1248 47.7756C51.0136 47.7756 50.856 47.7756 50.686 47.7913C50.4264 47.8196 50.1359 47.8825 49.9536 48.0273C50.2564 47.9958 50.5191 48.0053 50.7169 48.0273C50.7941 48.0367 50.8683 48.0462 50.9239 48.0556C50.9147 48.0745 50.9054 48.0965 50.8961 48.1185C50.8529 48.128 50.7972 48.1405 50.7323 48.1594C50.4387 48.2349 49.9752 48.3954 49.7619 48.6691C50.2039 48.5055 50.5778 48.4615 50.7725 48.4489C50.7725 48.4489 50.7787 48.4489 50.7818 48.4489C50.7818 48.4552 50.7787 48.4646 50.7756 48.4709C50.7694 48.4929 50.7632 48.5181 50.7602 48.5401C50.5407 48.6314 49.9288 48.9051 49.7341 49.2858C50.1606 49.0341 50.5346 48.9271 50.7169 48.8862C50.7107 49.1159 50.7601 49.3015 50.8498 49.4431C50.7262 49.4683 50.6365 49.5312 50.6025 49.6225C50.5376 49.8112 50.7478 50.0598 51.0692 50.1731C51.0908 50.1794 51.1094 50.1794 51.1279 50.1857C51.3751 50.258 51.6007 50.2266 51.7089 50.1164C51.7336 50.0913 51.7584 50.0693 51.7707 50.0378C51.8016 49.9465 51.7707 49.8427 51.6904 49.7452C51.8881 49.6948 52.0767 49.5721 52.225 49.3833C52.3301 49.5029 52.5959 49.8333 52.8091 50.343C52.8802 49.8868 52.4939 49.2292 52.4012 49.0782C52.4104 49.053 52.4197 49.0278 52.4259 49.0026C52.5619 49.1128 52.8647 49.3896 53.149 49.8333C53.1398 49.3613 52.6329 48.7698 52.5279 48.6534C52.531 48.6408 52.534 48.6251 52.5371 48.6125C52.7133 48.7006 53.0378 48.8894 53.3777 49.2103C53.2727 48.817 52.7844 48.43 52.568 48.2727L52.5711 48.2758Z" fill="#1D1D1B"/>
<path d="M82.3718 58.4226C81.0151 57.7084 79.8469 58.3157 80.1931 55.1064C80.4403 52.8064 79.1701 51.0288 77.4457 49.8678C75.6223 48.6375 73.3292 48.367 71.3205 47.5678C70.996 47.4388 70.6746 47.2972 70.3563 47.1493C68.876 46.4729 67.3307 45.466 66.1626 44.3113C66.1564 44.305 66.1471 44.2988 66.1409 44.2893C65.7948 43.9464 65.4672 43.5845 65.1396 43.207C64.9171 39.6202 66.0884 35.8949 66.2213 32.865C66.2677 31.7858 66.1873 30.6846 66.0204 29.6211C65.6805 27.4376 64.1569 24.8481 65.6434 22.8376C65.8164 22.6048 66.0111 22.4443 66.2676 22.1958C67.0557 21.4281 67.8005 20.4464 67.9241 19.3106C67.9519 19.0463 67.9488 18.8292 67.9643 18.675C68.1744 18.4327 68.3011 18.0615 68.261 17.7437C68.2424 17.5832 68.1806 17.4385 68.0694 17.3252C67.9581 17.2151 67.7943 17.1365 67.5718 17.1207C67.5934 17.1837 67.6058 17.2497 67.612 17.3189C67.6182 17.3882 67.612 17.4574 67.5996 17.5297C67.578 17.6399 67.5285 17.7531 67.4451 17.8664C67.4173 17.9042 67.3864 17.9419 67.3493 17.9828C67.3555 17.9419 67.3586 17.9042 67.3586 17.8633C67.3586 17.8255 67.3524 17.7877 67.3462 17.75C67.3215 17.6399 67.2689 17.5329 67.1979 17.4385C67.1299 17.3473 67.0464 17.2623 66.9568 17.1868C66.9537 17.1837 66.9506 17.1805 66.9444 17.1774C66.5952 17.234 66.2429 17.256 65.8535 17.2497C65.6187 17.2466 65.3714 17.2308 65.0995 17.2088C64.5586 17.1648 63.9282 17.083 63.1402 16.9854C61.802 16.8187 60.4391 16.7148 59.1133 17.0389C57.2313 17.5014 55.7448 18.7946 55.1143 20.6887C54.6601 22.0573 54.5704 23.5078 54.2707 24.911C54.0852 25.77 53.4084 27.0065 51.959 28.7873C50.4725 29.0799 48.7172 28.8156 48.2227 28.737C48.0589 28.7118 47.8951 28.6804 47.7375 28.6426C47.6881 28.6961 47.6386 28.7527 47.5985 28.8125C47.515 28.9321 47.4532 29.0611 47.4408 29.1964C47.4347 29.2656 47.4408 29.3348 47.4594 29.404C47.1534 29.1334 47.1225 28.8408 47.1905 28.5954C47.1998 28.5608 47.2122 28.5262 47.2245 28.4916C47.206 28.4853 47.1874 28.479 47.1689 28.4727C46.9773 28.4035 46.8289 28.394 46.7146 28.4318C46.6003 28.4695 46.523 28.5514 46.4735 28.6646C46.4519 28.7118 46.4365 28.759 46.421 28.8062C46.4087 28.8534 46.3994 28.9006 46.3932 28.9446C46.3808 29.0359 46.3839 29.1271 46.3994 29.2152C46.4056 29.2593 46.4179 29.3033 46.4303 29.3442C46.4488 29.4072 46.4766 29.4701 46.5075 29.5299C46.5292 29.5771 46.557 29.6211 46.5848 29.6652C46.6003 29.6903 46.6157 29.7155 46.6343 29.7407C46.8444 30.0396 47.2709 30.6531 48.575 31.21C48.1949 31.2792 47.4161 31.1502 46.5415 30.4014C45.4784 31.8707 48.2474 33.5855 49.2302 34.3375C49.3167 35.9641 48.2938 37.2761 47.4687 38.0313C45.9914 39.3842 44.0816 40.3092 42.4467 41.4482C40.2865 42.9521 38.3087 44.6197 36.8222 46.8378C36.5595 47.228 36.3401 47.6402 36.1639 48.0618C35.6324 49.3297 35.4748 50.7078 35.6107 52.0387C35.79 53.7755 36.2597 55.7577 34.4642 56.8212C33.7627 57.2365 29.8811 58.259 28.7964 61.2449C31.5129 59.7504 33.1013 60.6786 35.1534 60.2507C37.0014 59.8637 38.0336 58.4793 37.9007 56.9313C38.0151 58.5894 38.7166 60.1342 40.3174 60.7698C41.158 61.1033 42.0821 61.1788 42.9752 61.0876C43.7787 61.0058 44.5977 60.6534 45.4105 60.8076C47.138 61.1316 48.7697 61.6004 50.5065 61.1253C51.0535 60.9743 51.5264 60.8296 51.9714 60.6691C52.7595 60.9492 53.5444 61.1788 54.3047 61.3519C55.4852 61.6193 56.6441 61.7609 57.7536 61.7735C59.1072 61.7892 60.3835 61.613 61.5517 61.2512C62.111 61.0782 62.6395 60.8548 63.1402 60.6031C63.8139 60.7415 64.4968 60.8233 65.1829 60.8673C65.2045 60.8673 65.2324 60.8673 65.2664 60.8673C65.3498 60.8673 65.4765 60.8673 65.6217 60.8611C65.9432 61.0058 66.348 61.1725 66.7837 61.1788C67.2782 61.1851 67.6954 60.9775 67.989 60.581C68.2579 60.2192 68.3197 59.7819 68.159 59.3823C68.1188 59.2847 68.0663 59.1903 68.0014 59.0991C67.9921 58.8914 67.955 58.6869 67.8778 58.4982C69.6671 58.7562 71.5306 58.4793 72.9213 58.1206C72.3187 59.7535 70.0627 60.2979 68.5422 60.0021C69.7938 61.204 71.6326 61.418 73.2489 61.0152C74.1482 60.7918 74.9981 60.3765 75.715 59.7787C76.3022 59.291 76.8678 58.5611 77.7207 58.8096C78.2245 58.9544 78.4501 59.4043 78.7993 59.7535C79.2227 60.1846 79.7388 60.4961 80.3043 60.6943C81.8928 61.2449 83.4565 60.4741 85.1408 61.2481C84.5969 60.0304 83.7223 59.1369 82.3656 58.4226H82.3718ZM54.7713 25.6221C55.3121 24.502 55.5903 23.2435 55.8931 22.3027C55.924 22.2115 55.958 22.1202 55.9889 22.029C56.4556 22.2178 57.0489 21.878 57.324 21.2487C57.562 20.7075 57.4878 20.1318 57.1757 19.836C58.2851 18.395 59.8859 17.4354 61.8205 17.6525C63.6933 17.8601 64.5865 17.8727 66.7034 17.5423C66.0297 18.3415 64.7564 18.4327 63.9251 18.2975C64.1476 18.4894 64.2527 18.7002 64.2527 18.7002C64.2527 18.7002 63.5419 20.4212 61.6969 19.4018C62.485 19.6189 63.1401 19.7007 63.7891 18.568C62.998 17.879 61.9194 18.244 61.6815 18.5932C61.3693 19.0557 60.9367 19.2036 60.3093 19.8675C59.6851 20.5313 59.4502 21.7962 59.4502 21.7962C59.4502 21.7962 59.1968 21.3053 59.6264 20.179C58.8692 20.8334 58.3562 21.5445 57.9637 22.4066C57.4507 23.5392 57.2375 26.5597 58.727 29.253C57.8648 28.479 57.1015 27.2016 56.9964 25.3798C56.0137 28.0479 58.3346 30.7066 59.4038 32.9499C60.4731 35.1901 60.7698 36.414 61.1808 37.4051C61.9133 39.1734 62.4294 40.1173 63.3967 41.3695C61.5362 40.1991 60.2908 36.3134 59.5058 34.6112C59.4502 34.4916 59.3946 34.3721 59.3389 34.2494C58.7394 32.9468 58.0719 31.5687 57.0211 30.5776C56.8542 30.4203 56.6812 30.2724 56.5019 30.1403C55.7386 29.5739 54.6075 28.7747 52.5802 28.8125C53.1674 28.0574 53.7947 27.6421 54.7713 25.6221ZM62.5128 18.8386C62.5468 18.9708 62.6271 19.0557 62.7322 19.0966C62.7168 19.1061 62.7044 19.1218 62.6889 19.1312C62.4633 19.2665 62.2408 19.2225 62.1945 19.0337C62.1481 18.8449 62.2934 18.5838 62.519 18.4485C62.5344 18.439 62.5468 18.439 62.5592 18.4327C62.5035 18.568 62.4819 18.7096 62.5128 18.8386ZM41.5196 52.4131C40.0146 53.0424 38.7939 53.9391 37.8729 55.3267C38.0151 55.1127 36.952 52.4069 36.9025 51.9318C36.2845 45.9852 41.7421 43.1912 45.8616 40.5011C48.7419 38.6196 49.9379 36.7947 49.6289 34.8C50.9145 36.0742 51.5666 37.8236 51.2451 40.2494C50.8403 43.3045 51.239 44.3743 51.239 44.3743C51.239 44.3743 48.9922 44.8903 47.7499 48.3229C46.7671 50.4435 45.5063 50.9595 44.5019 51.3182C45.2096 50.711 45.6422 49.852 45.7535 49.2196C44.3937 50.7928 43.1699 51.7241 41.5196 52.4131ZM54.6292 60.3922C54.0172 60.2601 53.3775 60.0871 52.7069 59.8668C52.6297 59.8416 52.5586 59.8196 52.4813 59.7944C52.7625 59.678 53.0469 59.5522 53.3528 59.4106C53.7669 59.2155 54.0605 58.7278 54.2645 58.1898C54.4159 57.7839 54.5148 57.356 54.5735 57.0005C54.5921 56.8904 54.6075 56.7865 54.6168 56.6953C54.6508 56.409 54.6508 56.2202 54.623 56.2234C54.6044 56.2234 54.5643 56.3115 54.5055 56.4562C54.4592 56.5695 54.3974 56.7173 54.3294 56.8872C54.1532 57.312 53.906 57.8595 53.6 58.3094C53.3837 58.6303 53.1365 58.8977 52.8676 59.0267C51.9559 59.4546 51.4862 59.7882 50.5745 60.0776C50.4725 60.1091 50.3706 60.1405 50.2562 60.172C49.1746 60.4678 48.5812 60.4426 47.7561 60.2349C47.7406 60.2318 47.7252 60.2255 47.7066 60.2223C47.6386 60.2035 47.5737 60.1877 47.5058 60.1689C47.1905 60.0808 46.934 60.0273 46.7146 59.9895C46.4983 59.9518 46.3159 59.9329 46.146 59.914C45.9142 59.8888 45.6948 59.8637 45.4197 59.8007C45.2312 59.7567 45.1138 59.6875 45.0767 59.5931C45.0427 59.505 45.0581 59.376 45.123 59.2092C45.1818 59.0551 45.2776 58.8726 45.4166 58.6555C45.8864 57.9224 46.9649 57.9664 47.7437 58.2307C48.7419 58.5674 49.3693 58.3094 49.7278 57.8783C49.7648 57.8343 49.8019 57.7902 49.8421 57.743C50.3118 57.2113 50.1759 56.5883 50.0275 55.8521C49.9503 55.4682 49.8668 55.0529 49.8637 54.603C49.8637 54.496 49.8637 54.389 49.873 54.2789C49.8328 54.2632 49.7401 54.3985 49.6536 54.6376C49.5516 54.9176 49.4682 55.3424 49.5022 55.8552C49.5022 55.8993 49.5022 55.9402 49.5083 55.9842L49.5269 56.1636C49.6103 56.9722 49.6103 56.9879 49.2642 57.3906C49.224 57.4378 49.1838 57.485 49.1468 57.5291C49.1344 57.5417 49.1251 57.5574 49.1128 57.57C48.9922 57.485 48.6616 57.2019 48.3463 56.5663C48.3463 56.5411 48.3371 56.516 48.3216 56.4939C48.3123 56.4782 48.3 56.4625 48.2907 56.4467C48.2289 56.3083 48.1671 56.1541 48.1084 55.9842C48.0064 55.6853 47.9168 55.3392 47.8457 54.9334C47.8086 54.7194 47.7777 54.4866 47.753 54.238C47.6788 53.4389 47.685 52.6869 47.7623 51.9475C47.8982 50.6606 48.2691 49.4273 48.915 48.1247C48.9397 48.0775 48.9675 48.0272 48.9922 47.9768C49.0942 47.7723 49.1962 47.5709 49.3136 47.3633C49.6134 46.8316 49.9503 46.4508 50.2964 46.174C50.4756 46.0292 50.658 45.9128 50.8434 45.8247C51.0319 45.7335 51.2235 45.6643 51.4089 45.6202C51.6747 45.5541 51.9343 45.5353 52.1754 45.5384C52.7409 45.551 53.2137 45.7052 53.4548 45.8058C54.932 46.4131 55.6304 47.6527 55.2812 49.034C55.1947 49.3769 55.0958 49.6947 55 50.0031C54.6013 51.2899 54.4932 52.2495 55.7077 53.0707C56.2362 53.4263 56.7739 53.5395 57.7536 53.8856C58.2975 56.5978 56.5977 59.4232 54.623 60.3891L54.6292 60.3922ZM67.2133 59.9832C67.1731 60.0399 67.1237 60.0776 67.0742 60.1122C66.7961 60.2853 66.3913 60.128 65.8999 59.9014C65.8164 59.8637 65.7361 59.8259 65.6619 59.7944C65.4456 59.7032 65.2633 59.6371 65.0995 59.5899C64.7719 59.4924 64.5154 59.4641 64.2063 59.4609C64.4041 59.3225 64.4938 59.1463 64.5247 58.9984C64.5556 58.8537 64.5308 58.7341 64.4968 58.6995C64.4907 58.6932 64.4412 58.7278 64.3547 58.7876C64.1229 58.9512 63.6068 59.3225 62.8126 59.6969C62.4726 59.8574 62.077 60.021 61.6351 60.1689C60.9676 60.3923 59.6943 60.5716 58.3747 60.6691C60.8347 59.936 62.3243 57.5574 62.9485 56.8432C63.9993 56.9533 64.6606 57.828 64.9388 58.0325C65.2602 58.2685 65.5939 58.4069 66.2429 58.5202C66.9259 58.6366 67.0248 58.7908 67.0402 59.1054C66.7961 58.9795 66.2182 58.882 65.9493 59.0393C66.5705 59.0802 67.1762 59.5239 67.2689 59.7567C67.2906 59.807 67.3029 59.8794 67.2257 59.9864L67.2133 59.9832ZM69.9267 51.293C68.6102 51.2112 67.7758 50.8085 67.1206 50.2831C66.586 49.852 66.1688 49.3392 65.7176 48.8483C65.3282 48.4267 64.7255 48.1436 64.401 48.776C64.1198 49.3297 64.3825 49.959 64.4319 50.5316C64.5216 51.529 64.0518 52.4918 63.5295 53.3036C63.3719 53.549 63.1247 53.9643 62.8033 54.4646C63.0536 53.5867 63.2761 52.5138 63.3534 51.293C62.8311 53.2343 61.768 55.4588 60.9429 57.0257C59.784 58.3817 58.3469 59.6088 56.7832 59.7819C58.1182 58.2968 58.5911 56.6859 58.795 55.421C58.6591 54.1971 58.4829 51.2805 59.6264 49.4053C59.4008 50.1037 59.3297 50.991 59.342 51.8783C59.4317 51.5605 59.5336 51.249 59.6727 50.9501C60.1146 49.9936 60.8934 49.3769 61.6011 48.6375C62.315 47.8919 61.8113 47.0549 61.0139 46.6585C59.8118 46.0607 57.1602 43.3265 56.4 38.4057C56.0816 39.7869 56.1867 41.4985 56.3752 42.5274C55.0804 39.831 55.8097 36.6311 55.3987 33.7365C55.1669 32.113 54.3634 30.8765 52.7533 30.4517C52.3886 30.3542 52.0116 30.3007 51.6345 30.2661C51.616 30.2661 51.5975 30.2598 51.5758 30.2598C51.3564 30.3322 51.1154 30.4612 50.9361 30.7097C51.035 30.8702 51.1524 30.9929 51.2791 31.0873C51.4089 31.1848 51.5511 31.2541 51.6933 31.3012C51.8014 31.232 51.8818 31.1188 51.9034 30.9646C51.9281 30.7947 51.8818 30.6153 51.7922 30.4486C51.8107 30.4549 51.8292 30.4549 51.8478 30.4643C52.1568 30.6091 52.3762 30.9268 52.3392 31.1754C52.3237 31.2761 52.2619 31.3453 52.1785 31.3862C52.5462 31.4019 52.8367 31.3201 52.8367 31.3201C52.8367 31.3201 52.0023 31.8204 51.4738 31.553C51.3749 31.5026 51.2761 31.4491 51.1803 31.3925C50.865 31.2132 50.5931 31.0307 50.4818 30.952C50.4478 30.93 50.4231 30.9111 50.4231 30.9111C50.4231 30.9111 50.5096 30.6846 50.7198 30.4801C50.8156 30.3888 50.933 30.2976 51.0844 30.2378C51.0906 30.2378 51.0968 30.2346 51.0999 30.2315C51.0783 30.2315 51.0597 30.2283 51.035 30.2283C50.9732 30.2283 50.9176 30.2221 50.8588 30.2189C48.9861 30.1151 48.6925 29.3379 48.6925 29.3379C49.3971 29.6117 50.2933 29.5896 51.2946 29.5393C51.5635 29.5267 51.8385 29.511 52.1197 29.5015C52.2681 29.4953 52.4195 29.489 52.5709 29.4858C54.0451 29.4512 55.3029 30.0364 56.4185 31.49C56.366 31.5089 56.3196 31.5341 56.2763 31.5687C55.9518 31.8393 56.0415 32.4969 56.4772 33.0349C56.4865 33.0475 56.4958 33.0569 56.505 33.0663C56.6935 33.2929 56.9161 33.4565 57.1293 33.5477C57.3734 33.6516 57.6083 33.661 57.7814 33.5603C57.8123 33.6169 57.8463 33.6767 57.8772 33.7365C58.2882 34.4916 58.6961 35.3317 59.2648 36.4675C59.9941 37.9306 60.5998 39.4691 61.496 40.8378C62.4757 42.3291 64.0395 43.3139 65.4023 44.4435C66.7065 45.5227 67.8283 46.6711 69.2684 47.5898C71.2679 48.8672 73.6692 48.6564 75.6532 50.2264C72.8008 50.4656 71.716 51.4095 69.9174 51.2993L69.9267 51.293Z" fill="#1D1D1B"/>
<path d="M5.4793 34.9007L0.411025 34.3564C0.602631 33.4534 0.877678 32.7454 1.23926 32.2263C1.60083 31.7103 2.12002 31.2604 2.79682 30.8797C3.28202 30.6059 3.95264 30.392 4.8025 30.2441C5.65237 30.0931 6.57331 30.0176 7.56533 30.0176C9.15381 30.0176 10.4301 30.1088 11.3944 30.2882C12.3586 30.4707 13.1621 30.8482 13.8049 31.4208C14.2561 31.8204 14.6115 32.3836 14.8742 33.1104C15.1338 33.8404 15.2636 34.5357 15.2636 35.1996V41.4199C15.2636 42.0838 15.3037 42.6029 15.3872 42.9773C15.4706 43.3517 15.6499 43.8331 15.928 44.4152H10.9524C10.7515 44.0534 10.6218 43.7765 10.563 43.5877C10.5012 43.3989 10.4425 43.1 10.3807 42.6942C9.68536 43.3738 8.99619 43.8614 8.31012 44.1541C7.37373 44.5442 6.28281 44.7393 5.04046 44.7393C3.39018 44.7393 2.13857 44.3491 1.28252 43.572C0.426477 42.7948 0 41.8352 0 40.6931C0 39.6233 0.309041 38.7424 0.924034 38.0533C1.54212 37.3643 2.67939 36.8514 4.33585 36.5148C6.32608 36.1089 7.61478 35.8226 8.20505 35.659C8.79532 35.4953 9.41958 35.2814 10.0809 35.0171C10.0809 34.3532 9.94495 33.8907 9.67609 33.6233C9.40722 33.359 8.93439 33.2268 8.25759 33.2268C7.38918 33.2268 6.7371 33.3684 6.30444 33.6516C5.9645 33.8718 5.69254 34.2872 5.48239 34.8975L5.4793 34.9007ZM10.0778 37.7387C9.3485 38.003 8.58826 38.2389 7.79711 38.4403C6.72165 38.7329 6.03867 39.0192 5.75126 39.3024C5.45458 39.595 5.30933 39.9254 5.30933 40.2966C5.30933 40.7214 5.45458 41.0675 5.74508 41.3381C6.03558 41.6087 6.46206 41.744 7.0276 41.744C7.59315 41.744 8.16796 41.5992 8.67479 41.3066C9.18162 41.014 9.5432 40.6585 9.75644 40.24C9.96968 39.8216 10.0747 39.2741 10.0747 38.6008V37.7387H10.0778Z" fill="#1D1D1B"/>
<path d="M18.6228 24.9805H23.9383V44.4248H18.6228V24.9805Z" fill="#1D1D1B"/>
<path d="M33.7196 24.9805V30.3387H36.6369V34.2905H33.7196V39.2806C33.7196 39.8815 33.7752 40.2779 33.8896 40.473C34.0626 40.7719 34.3686 40.9229 34.8012 40.9229C35.1937 40.9229 35.7407 40.8097 36.4422 40.58L36.8316 44.3053C35.5213 44.5979 34.2944 44.7426 33.1571 44.7426C31.8375 44.7426 30.864 44.5695 30.2398 44.2266C29.6155 43.8836 29.1519 43.3582 28.8522 42.6566C28.5524 41.9549 28.4041 40.8191 28.4041 39.2459V34.2936H26.4509V30.3418H28.4041V27.7555L33.7196 24.9836V24.9805Z" fill="#1D1D1B"/>
<path d="M12.2626 9.04443H15.5261V13.5343C15.8475 13.1567 16.2153 12.8735 16.6263 12.6847C17.0373 12.496 17.4916 12.4016 17.9891 12.4016C19.0152 12.4016 19.865 12.8137 20.5387 13.6349C21.2094 14.4561 21.5462 15.636 21.5462 17.1746C21.5462 18.2003 21.3917 19.1033 21.0857 19.8836C20.7798 20.6638 20.3533 21.2491 19.8094 21.6329C19.2655 22.0199 18.6629 22.2118 18.0015 22.2118C17.436 22.2118 16.9168 22.0765 16.4439 21.806C16.0885 21.5952 15.7022 21.1956 15.285 20.6135V22.001H12.2595V9.04443H12.2626ZM15.5045 17.2847C15.5045 18.0933 15.6404 18.6785 15.9124 19.0403C16.1843 19.4022 16.5305 19.5847 16.9477 19.5847C17.334 19.5847 17.6585 19.4053 17.9212 19.0498C18.1838 18.6942 18.3136 18.0933 18.3136 17.2501C18.3136 16.5075 18.1838 15.9632 17.9273 15.614C17.6708 15.2679 17.3587 15.0917 16.994 15.0917C16.5552 15.0917 16.1967 15.2742 15.9186 15.636C15.6404 15.9978 15.5014 16.5484 15.5014 17.2847H15.5045Z" fill="#1D1D1B"/>
<path d="M26.046 15.6581L22.9556 15.2963C23.073 14.6953 23.2399 14.2234 23.4593 13.8773C23.6787 13.5312 23.997 13.2323 24.4081 12.9806C24.7047 12.7981 25.1127 12.6565 25.6319 12.5558C26.151 12.4551 26.7135 12.4048 27.3161 12.4048C28.2865 12.4048 29.0622 12.4646 29.6525 12.5873C30.2397 12.7068 30.731 12.9585 31.1204 13.3424C31.3955 13.6067 31.6118 13.9842 31.7725 14.4688C31.9301 14.9565 32.0105 15.419 32.0105 15.8626V20.0095C32.0105 20.4531 32.0352 20.7992 32.0846 21.0478C32.1341 21.2995 32.2453 21.6173 32.4153 22.0074H29.3805C29.26 21.7651 29.1797 21.5826 29.1426 21.4536C29.1055 21.3278 29.0684 21.1296 29.0313 20.8558C28.6079 21.3089 28.1876 21.633 27.7673 21.8281C27.1956 22.0861 26.5312 22.2182 25.774 22.2182C24.7665 22.2182 24.0032 21.9602 23.484 21.4411C22.9617 20.9219 22.7021 20.2832 22.7021 19.5218C22.7021 18.8076 22.8907 18.2224 23.2646 17.763C23.6416 17.3036 24.3339 16.9607 25.3445 16.7373C26.5559 16.4667 27.3439 16.2748 27.7024 16.1678C28.064 16.0577 28.4441 15.9161 28.8459 15.7399C28.8459 15.2963 28.7624 14.9879 28.5987 14.8117C28.4349 14.6355 28.1444 14.5474 27.7333 14.5474C27.2049 14.5474 26.8062 14.6418 26.5404 14.8306C26.3334 14.9785 26.1665 15.2554 26.0398 15.6612L26.046 15.6581ZM28.849 17.549C28.404 17.7252 27.9404 17.8826 27.4583 18.0178C26.8 18.2129 26.3859 18.4048 26.2098 18.5936C26.0305 18.7887 25.9409 19.0089 25.9409 19.2575C25.9409 19.5407 26.0305 19.7704 26.2067 19.9528C26.3828 20.1322 26.6455 20.2234 26.9886 20.2234C27.3316 20.2234 27.6839 20.1259 27.9929 19.9308C28.302 19.7357 28.5214 19.4998 28.6512 19.2197C28.781 18.9397 28.8459 18.5747 28.8459 18.128V17.5522L28.849 17.549Z" fill="#1D1D1B"/>
<path d="M33.3765 19.3991L36.5843 19.0624C36.7172 19.4872 36.9026 19.7892 37.1406 19.9717C37.3786 20.1542 37.6969 20.2454 38.0924 20.2454C38.5251 20.2454 38.862 20.1416 39.0999 19.9371C39.2853 19.7829 39.3781 19.5942 39.3781 19.3645C39.3781 19.1065 39.2575 18.9051 39.0134 18.7635C38.8403 18.6628 38.3768 18.5401 37.6227 18.3923C36.5009 18.1752 35.719 17.9738 35.2833 17.7882C34.8475 17.6025 34.4797 17.2879 34.18 16.8474C33.8802 16.4069 33.7319 15.9035 33.7319 15.3372C33.7319 14.7205 33.8926 14.1856 34.2171 13.7388C34.5416 13.2921 34.9835 12.9585 35.5521 12.7351C36.1177 12.5149 36.8779 12.4048 37.8328 12.4048C38.8403 12.4048 39.582 12.4897 40.061 12.6628C40.54 12.8327 40.9387 13.1001 41.2601 13.4588C41.5815 13.8175 41.8473 14.3052 42.0574 14.9187L38.9917 15.2554C38.9114 14.9533 38.7785 14.7331 38.5962 14.5915C38.3428 14.4027 38.0337 14.3083 37.6752 14.3083C37.3167 14.3083 37.0448 14.3807 36.8779 14.5254C36.711 14.6701 36.6276 14.8432 36.6276 15.0509C36.6276 15.2805 36.7327 15.4536 36.9459 15.5731C37.1591 15.6896 37.6196 15.7965 38.3273 15.8909C39.4028 16.0262 40.2032 16.215 40.7255 16.4573C41.2508 16.6995 41.6495 17.0425 41.9276 17.4893C42.2058 17.936 42.3448 18.43 42.3448 18.9649C42.3448 19.4998 42.1965 20.0346 41.9029 20.5444C41.6093 21.0572 41.1458 21.4631 40.5122 21.7683C39.8787 22.0703 39.0165 22.2245 37.9256 22.2245C36.3834 22.2245 35.2863 21.9791 34.6343 21.4914C33.9791 21.0037 33.5619 20.3084 33.3765 19.4054V19.3991Z" fill="#1D1D1B"/>
<path d="M53.2506 18.2035H46.77C46.8287 18.7824 46.9678 19.2103 47.1903 19.4935C47.5024 19.8994 47.9103 20.1039 48.4141 20.1039C48.7324 20.1039 49.0352 20.0158 49.3196 19.8396C49.4957 19.7263 49.6811 19.5312 49.8851 19.2481L53.0713 19.5753C52.583 20.5192 51.9959 21.1956 51.3067 21.6047C50.6175 22.0137 49.6317 22.2182 48.343 22.2182C47.2243 22.2182 46.3466 22.042 45.7069 21.6928C45.0672 21.3435 44.5356 20.7866 44.1153 20.0221C43.695 19.2575 43.4849 18.3608 43.4849 17.3288C43.4849 15.8626 43.9083 14.6733 44.7519 13.7671C45.5956 12.861 46.7638 12.4048 48.2503 12.4048C49.4586 12.4048 50.4105 12.6093 51.1089 13.0152C51.8073 13.4211 52.3389 14.0126 52.7067 14.7834C53.0713 15.5543 53.2537 16.5611 53.2537 17.7976V18.2035H53.2506ZM49.9624 16.4793C49.8975 15.7839 49.7306 15.2868 49.4586 14.9848C49.1867 14.6827 48.8282 14.5349 48.3832 14.5349C47.8702 14.5349 47.4591 14.7614 47.1532 15.2145C46.9585 15.4976 46.8318 15.9192 46.7792 16.4793H49.9655H49.9624Z" fill="#1D1D1B"/>
</svg>
