<?xml version="1.0" encoding="utf-8"?>
<!-- Generator: Adobe Illustrator 22.0.1, SVG Export Plug-In . SVG Version: 6.00 Build 0)  -->
<svg version="1.1" id="sp" xmlns="http://www.w3.org/2000/svg" xmlns:xlink="http://www.w3.org/1999/xlink" x="0px" y="0px"
	 viewBox="0 0 568.8 176.8" style="enable-background:new 0 0 568.8 176.8;" xml:space="preserve">
<style type="text/css">
	.st0{fill:#0079C0;}
</style>
<title>astra_linux_logo_2019</title>
<path class="st0" d="M50.6,74h9.7l18.4,65.7h-8l-5.3-18.8H44.8L40,139.7h-8L50.6,74z M55.4,79.3h-0.2l-8.7,35h17.3L55.4,79.3z"/>
<path class="st0" d="M91.7,118.9c0,9.7,2.7,15.8,12.4,15.8c7.4,0,12.5-3.2,12.5-11c0-8.5-4-10.6-10.7-13.1l-9.7-3.6
	c-6-2.3-10.6-6.8-10.6-17.3s7.2-17,17.9-17c11.4,0,18.2,6.5,18.7,18.5H115c0-7.2-3.6-12-10.9-12c-8.1,0-10.9,4.9-10.9,10.4
	c0,6,1.6,8.7,5.8,10.2l10.5,3.9c10.4,3.9,14.7,10.1,14.7,18.8c0,12.4-7.7,18.6-20.3,18.6s-19.5-8.2-19.5-22.3L91.7,118.9L91.7,118.9
	L91.7,118.9z"/>
<path class="st0" d="M152.5,139.7h-7.3V80.6h-17.1V74h41.3v6.6h-17L152.5,139.7L152.5,139.7z"/>
<path class="st0" d="M184.9,139.7h-7.3V74h20c11.5,0,19.1,5.6,19.1,17.9c0,7.5-4.3,14.1-11.9,15.1v0.2c6.9,0.8,11.2,6.8,11.2,14.9
	c0,13.7,1.2,14.2,2.2,16.2v1.5h-7.4c-1.5-4.3-2.1-8.1-2.1-15.2c0-8.7-3.8-13.7-12-13.7h-11.8V139.7L184.9,139.7z M184.9,104.2h12.7
	c5.1,0,11.5-2.4,11.5-12c0-9.5-5.4-11.6-11.8-11.6h-12.4V104.2L184.9,104.2z"/>
<path class="st0" d="M244.6,74h9.7l18.4,65.7h-8l-5.2-18.8h-20.7l-4.8,18.9h-8L244.6,74z M249.3,79.3h-0.2l-8.7,35h17.3L249.3,79.3z
	"/>
<path class="st0" d="M314.3,133.2h26.8v6.6H307V74h7.3V133.2z"/>
<path class="st0" d="M357.3,139.7H350V74h7.3V139.7z"/>
<path class="st0" d="M382.5,74l18.6,53.8c0.8,2.3,1.5,4.2,2.3,7.2h0.3c-0.1-2.4-0.3-4.9-0.3-7.3V74h7.3v65.7h-12l-18.3-52.6
	c-1.1-3.2-2-6.5-2.5-9.8h-0.2c0.1,3.3,0.2,6.7,0.2,10v52.4h-7.3V74H382.5z"/>
<path class="st0" d="M431.4,74v47.3c0,5.1,0.7,13.4,12.4,13.4s12.4-8.3,12.4-13.4V74h7.3v49.9c0,11.7-7.8,17.3-19.7,17.3
	s-19.7-5.6-19.7-17.3V74H431.4z"/>
<path class="st0" d="M481.4,74l13.8,25.6L508.9,74h8.1L499.5,106l18,33.8h-8.3l-14-27.5l-14.2,27.5h-8.1L491,106L473.3,74H481.4z"/>
<path class="st0" d="M536.4,34.5h-226c-2,0-3.7,1.6-3.7,3.7c0,2,1.6,3.7,3.7,3.7h226c13.8,0,25.1,11.2,25.1,25.1v0v77.4
	c0,13.8-11.2,25.1-25.1,25.1h-152v0h-352c-13.8,0-25.1-11.2-25-25.1V66.9c0-13.8,11.2-25,25-25.1h226.2c2,0,3.7-1.6,3.7-3.7
	c0-2-1.6-3.7-3.7-3.7H32.4C14.5,34.5,0,49,0,66.9v77.4c0,17.9,14.5,32.4,32.4,32.4c0,0,0,0,0,0h352v0h152
	c17.9,0,32.4-14.5,32.4-32.4V66.9C568.8,49,554.3,34.5,536.4,34.5z"/>
<path class="st0" d="M312.9,22.7l-19.3-3.3l-7.3-15.5L284.4,0l-9.2,19.3l-19.3,3.3l13.8,15l-3.1,21.2l17.8-9.8l17.8,9.8L299,37.6
	l11.2-12.2L312.9,22.7z M296.6,36.7l2.6,17.7l-14.9-8.1l-14.8,8.1l2.6-17.7l-11.5-12.5l16.1-2.8l7.6-16l7.6,16l16.1,2.8L296.6,36.7z
	"/>
<polygon class="st0" points="273.5,39.9 278.9,47.2 281.2,45.9 272.3,27.5 284,44.4 284.4,44.2 288.5,46.4 279.5,26.6 294.8,49.9 
	296.9,51 296.6,48.8 286.7,25.7 295.2,39.2 294.7,36.1 297.3,33.3 293.9,24.7 298.3,32.2 304.6,25.3 290.8,23 284.4,9.5 278,23 
	264.2,25.3 274.1,36.1 "/>
<polygon class="st0" points="273,43.8 271.9,51 275.6,49 "/>
<path class="st0" d="M538.7,82.3c0,4.7-3.8,8.6-8.6,8.6c-4.7,0-8.6-3.8-8.6-8.6c0-4.7,3.8-8.6,8.6-8.6c0,0,0,0,0.1,0
	C534.8,73.8,538.7,77.6,538.7,82.3C538.7,82.3,538.7,82.3,538.7,82.3z M522.8,82.3c0,4,3.3,7.3,7.3,7.3c4,0,7.3-3.3,7.3-7.3
	c0-4-3.3-7.3-7.3-7.3S522.8,78.3,522.8,82.3L522.8,82.3z M526.9,77.5h4.2c1.6,0,3.4,0.5,3.4,2.6s-1.5,2.6-3,2.6l2.9,4.4H533
	l-2.7-4.4h-2.1v4.4h-1.2L526.9,77.5z M528.1,81.8h2.8c0.9,0,2.3-0.2,2.3-1.8c0-1.4-1.3-1.6-2.5-1.6h-2.7V81.8L528.1,81.8z"/>
</svg>
